<?xml version="1.0" encoding="UTF-8"?><svg xmlns="http://www.w3.org/2000/svg" xmlns:xlink="http://www.w3.org/1999/xlink" height="387.9" preserveAspectRatio="xMidYMid meet" version="1.0" viewBox="-3.0 -1.4 323.0 387.9" width="323.0" zoomAndPan="magnify"><defs><clipPath id="a"><path d="M177.47,117.41s12.07-11.31,24,1.89C201.47,119.3,191.15,129.1,177.47,117.41Z" fill="#bd7450"/></clipPath></defs><g data-name="Layer 1"><g id="change1_1"><path d="M303.34,282.51a105.34,105.34,0,0,1-9.5,32.85c-1.09,2.29-2.35,4.65-4.51,6.1-2.67,1.8-6.16,1.87-9.43,1.87H180.45c-3.61,0-7.65-.17-10.13-2.69a12.06,12.06,0,0,1-2.57-5.17c-1.22-4.05-2.25-8.14-3.15-12.26q-1.41,9.65-2.85,19.28c-.31,2.07-.74,4.36-2.42,5.61s-4.08,1-6.19.7c-46.5-6.39-94,9.42-140.42,2.69-2.74-.4-5.66-1-7.61-2.94s-2.54-5.22-2.91-8.14c-3-24.15-5.17-51,9.25-70.58C19.3,239.15,31.77,231.16,35,218.31c3.54-13.93-5.13-27.68-8.75-41.59a61.06,61.06,0,0,1,10.45-51.64c4.73-6.18,10.86-11.84,12.48-19.45,1.41-6.61-.9-13.37-1.68-20.08a45.33,45.33,0,0,1,16.56-40c6.7-5.31,14.86-8.64,21.15-14.42,5.61-5.16,9.43-12,14.8-17.4C111.11,2.54,128-1.43,143.66.45c13.8,1.65,39.73,8,44.65,22.89a13.07,13.07,0,0,1,3-1.09c9.52-2.21,20.52-.1,28.87,4.57a39.89,39.89,0,0,1,19.29,25.35c1.68,7.29,1.5,15.66,6.94,21,2.29,2.26,5.33,3.65,8,5.48,9.2,6.31,13.61,17.7,13.17,28.52-.55,13.31-7.43,27.14-1.93,39.38,3.4,7.57,10.87,12.64,15.93,19.31,10.34,13.63,9.47,32.5,3.93,48.48-3.18,9.16-7.68,19.37-3.07,28,3.61,6.72,11.77,10,16.46,16.12C304.09,265.14,304.33,274.21,303.34,282.51Z" fill="#2d1c22"/></g><g id="change2_1"><path d="M1.34,386.42c1.06-3.65,2.18-7.46,3.37-11.49C20.87,320.4,36.35,295.5,36.35,295.5c26.25-22.21,72.07-34.8,72.07-34.8l90.82-3.57A208.25,208.25,0,0,1,240,267.9a147.42,147.42,0,0,1,37.36,21.54s14.8,17.5,27.59,53.85c4.91,13.95,10.32,29.39,15.11,43.13Z" fill="#003f2b"/></g><g id="change3_1"><path d="M186.91,229.22c-1.43-8.73-2.85-16.72-3.92-22.47-1-5.55-1.68-9-1.68-9H130.85s-.76,3.83-2,9.38c-2.1,9.62-5.66,24.47-9.22,33.55-5.61,14.31-11.22,20-11.22,20a35.54,35.54,0,0,0,1,5.46c2.12,10.15,7.95,32.78,21.16,53.54,19.74,31.05,26.92,43.08,26.92,43.08s45.77-64.87,45.77-104.64C203.28,258.14,189.72,246.39,186.91,229.22Z" fill="#bd7450"/></g><g id="change4_1"><path d="M158.41,319.39a.35.35,0,0,1-.28-.15l-43.81-68a.32.32,0,0,1,.1-.45.34.34,0,0,1,.46.09l43.5,67.51,36.19-70.51a.34.34,0,0,1,.45-.14.34.34,0,0,1,.14.45l-36.46,71a.35.35,0,0,1-.28.18Zm5.94,5.61a6.28,6.28,0,1,0-6.28,6.28A6.29,6.29,0,0,0,164.35,325Zm-.66,0a5.62,5.62,0,1,1-5.62-5.61A5.62,5.62,0,0,1,163.69,325Z" fill="#e3b857"/></g><g id="change3_2"><path d="M226.45,151.13c-.2.91-.45,1.86-.7,2.76-6.06,22.39-20.93,43.93-41.42,55-21.79,11.77-48.14,6.81-66.27-9.57-14.72-13.32-24.44-32.76-28.8-52.94a113.36,113.36,0,0,1-2.6-30.76c1.85-33.86,19.53-71.28,52.64-83.55a72.35,72.35,0,0,1,26.5-4.46c10.82.26,21.53,3.06,30.35,9.07,12.52,8.52,21.44,21.49,26.6,35.66C231.61,96.69,232.52,126,226.45,151.13Z" fill="#bd7450"/></g><g id="change3_3"><path d="M224.72,127.41c1.3-5.52,10-12.26,14.23-13.77,12.44-4.46,19.78,12.52,16.88,24.69-2.5,10.44-10.3,20.27-19,24.09-2.78,1.22-21,2.88-21.11,3.47Z" fill="#bd7450"/></g><g id="change3_4"><path d="M89,124.48c-1.29-5.53-10-12.26-14.23-13.77C62.29,106.24,55,123.23,57.86,135.39c2.49,10.45,10.29,20.27,19,24.1,2.79,1.22,21,2.88,21.11,3.46C98,163,89,124.59,89,124.48Z" fill="#bd7450"/></g><g id="change1_2"><path d="M160.34,160.31a.64.64,0,0,1-.39-.14c-3.17-2.71-6.07-5.46-6.78-9.21-.61-3.25.61-6.39,1.78-9.43l.53-1.38a48,48,0,0,0-.53-34.39.6.6,0,1,1,1.1-.46,49.19,49.19,0,0,1,.55,35.27l-.54,1.39c-1.11,2.88-2.26,5.86-1.71,8.78.63,3.37,3.38,5.95,6.38,8.52a.59.59,0,0,1,.06.84A.57.57,0,0,1,160.34,160.31Z" fill="#2d1c22"/></g><g id="change4_2"><path d="M227.58,144.85a117,117,0,0,1-14.87,39.75c-.26.37-.5.77-.76,1.16-7.22,11.34-17.64,22.12-32.4,27.87l-1.27.47a64.61,64.61,0,0,1-20.38,3.75c-.23,0-.5,0-.76,0h-.61c-23.3.24-38.36-11.68-48-26-.27-.39-.53-.79-.77-1.18A89,89,0,0,1,100.48,177c-.18-.39-.34-.81-.52-1.21a123,123,0,0,1-8.36-32.06s14.68-8,37.65-12.18c.52-.1,1.05-.21,1.6-.29a149.48,149.48,0,0,1,25.63-2.16c.45,0,.9,0,1.35,0s.79,0,1.18,0a177.6,177.6,0,0,1,58.37,11.36l1.32.5C224.39,143.21,227.58,144.85,227.58,144.85Z" fill="#e3b857"/></g><g id="change5_1"><path d="M231,119.47c-5.47-3.46-3.6-12.07-6.89-17.64s-11-7-14.62-12.29c-6-8.67,2.22-21.69-3.14-30.75-3.69-6.23-12.12-7.73-17.26-12.81a17.41,17.41,0,0,1-4.25-7.88,18.72,18.72,0,0,1-4.94,3.64c-5.5,2.76-11.92,2.94-18.07,2.62s-12.37-1.09-18.43,0a20.15,20.15,0,0,0-8.7,3.48C126,54.43,126.68,68.49,119,76.32c-3.53,3.57-8.48,5.44-12.17,8.86-7.52,7-8.42,18.91-15.44,26.39-1.79,1.9-4.43,3.56-6.89,2.69-2.27-.8-3.34-3.36-4-5.68A69.4,69.4,0,0,1,95.9,43.08C106.7,31.47,121.3,24,136.43,19.2c7.88-2.47,16.14-4.27,24.36-3.42s18.79,4.31,25.18,9.55l.53.47c4.24-5.36,13.17-2.23,18.28.47,5.84,3.1,10.65,7.86,14.83,13A95.29,95.29,0,0,1,240.2,87.58C241.61,99.07,240.14,112.32,231,119.47Z" fill="#2c1c22"/></g><g id="change1_3"><path d="M92.07,130.48c.61,1.37,1.44,2.91,2.92,3.15a3.11,3.11,0,0,0,3-1.86,9.17,9.17,0,0,0,.67-3.72q.61-15.56,1.24-31.11c.21-5.29.09-11.36-4-14.79C85.25,73,80,90.25,80.07,97.92,80.15,108.71,87.79,120.84,92.07,130.48Z" fill="#2d1c22"/></g><g id="change1_4"><path d="M223.71,133.14c-.6,1.2-1.41,2.55-2.74,2.7a2.78,2.78,0,0,1-2.65-1.78,8,8,0,0,1-.46-3.37l.12-27.93c0-4.75.36-10.19,4.12-13.1,10-7.75,14,7.89,13.65,14.76C235.25,114.09,227.92,124.66,223.71,133.14Z" fill="#2d1c22"/></g><g id="change4_3"><path d="M245.66,113.28a9.43,9.43,0,0,0-5.34-.07,6.42,6.42,0,0,0-3.93.13c-8.33,3-13.47,22.83-14.76,30.27l-2.59-.45c.19-1.16,5-28.24,16.48-32.32C238.81,109.68,242.15,110.64,245.66,113.28Z" fill="#e3b857"/></g><g id="change4_4"><path d="M240.87,160.06c-6.8,10.49-25.86,19.38-26.71,19.74l-1.1-2.39c.18-.08,14.31-6.68,22.3-14.77A24.9,24.9,0,0,0,240.87,160.06Z" fill="#e3b857"/></g><g id="change4_5"><path d="M68.49,110.22a11.16,11.16,0,0,1,5.33.2,6,6,0,0,1,3.79.34c8.33,2.95,13.93,25.12,15.22,32.56l2.58-1.07c-.18-1.16-5.44-29.91-16.93-34C75.18,107.1,72,107.59,68.49,110.22Z" fill="#e3b857"/></g><g id="change4_6"><path d="M73.13,157.48c6.8,10.49,26.94,20.13,27.78,20.5l.28-3.47c-.18-.08-14.57-6.36-22.55-14.45A24.69,24.69,0,0,1,73.13,157.48Z" fill="#e3b857"/></g><g id="change2_2"><path d="M201.34,136a.56.56,0,0,0,.77-.14.54.54,0,0,0,.09-.32l-1-.28A.55.55,0,0,0,201.34,136Z" fill="#003f2b"/></g><g id="change2_3"><path d="M200.91,137.56a.54.54,0,0,0-.13-.76.55.55,0,0,0-.77.13.56.56,0,0,0,.14.77A.55.55,0,0,0,200.91,137.56Z" fill="#003f2b"/></g><g id="change2_4"><path d="M199.72,139.27a.55.55,0,1,0-.76.14A.55.55,0,0,0,199.72,139.27Z" fill="#003f2b"/></g><g id="change2_5"><path d="M198.53,141a.56.56,0,0,0-.14-.77.55.55,0,0,0-.76.14.54.54,0,0,0,.13.76A.55.55,0,0,0,198.53,141Z" fill="#003f2b"/></g><g id="change2_6"><path d="M197.34,142.69a.55.55,0,0,0-.91-.63.55.55,0,0,0,.14.76A.57.57,0,0,0,197.34,142.69Z" fill="#003f2b"/></g><g id="change2_7"><path d="M193.44,142.88a.54.54,0,0,0,.14-.76.55.55,0,1,0-.9.62A.54.54,0,0,0,193.44,142.88Z" fill="#003f2b"/></g><g id="change2_8"><path d="M192.26,141.17a.55.55,0,1,0-.62-.91.55.55,0,0,0,.62.91Z" fill="#003f2b"/></g><g id="change2_9"><path d="M191.09,139.45a.55.55,0,1,0-.77-.14A.56.56,0,0,0,191.09,139.45Z" fill="#003f2b"/></g><g id="change2_10"><path d="M189.91,137.73a.55.55,0,0,0,.14-.76.54.54,0,0,0-.76-.15.55.55,0,1,0,.62.91Z" fill="#003f2b"/></g><g id="change2_11"><path d="M188.73,136a.54.54,0,0,0,.14-.76.55.55,0,0,0-.76-.15.56.56,0,0,0-.14.77A.55.55,0,0,0,188.73,136Z" fill="#003f2b"/></g><g id="change2_12"><path d="M187.55,134.29a.55.55,0,1,0-.76-.14A.55.55,0,0,0,187.55,134.29Z" fill="#003f2b"/></g><g id="change2_13"><path d="M185.61,132.43a.55.55,0,0,0,.77.14.53.53,0,0,0,.19-.64l-.9-.17A.53.53,0,0,0,185.61,132.43Z" fill="#003f2b"/></g><g id="change2_14"><path d="M223.16,142.81l-.86-.37a.5.5,0,0,0,.22.38A.56.56,0,0,0,223.16,142.81Z" fill="#003f2b"/></g><g id="change2_15"><path d="M219.39,142.88a.55.55,0,0,0,.15-.76.56.56,0,0,0-.77-.14.55.55,0,0,0-.14.76A.54.54,0,0,0,219.39,142.88Z" fill="#003f2b"/></g><g id="change2_16"><path d="M217.45,141a.56.56,0,0,0,.77.15.59.59,0,0,0,.2-.3l-1-.39A.55.55,0,0,0,217.45,141Z" fill="#003f2b"/></g><g id="change2_17"><path d="M207.38,152.71a.55.55,0,0,0-.55.55.55.55,0,1,0,1.1,0A.55.55,0,0,0,207.38,152.71Z" fill="#003f2b"/></g><g id="change2_18"><path d="M207.38,155.92a.55.55,0,0,0-.55.55.55.55,0,1,0,1.1,0A.55.55,0,0,0,207.38,155.92Z" fill="#003f2b"/></g><g id="change2_19"><path d="M206.19,154.43a.55.55,0,0,0-.55.55.55.55,0,0,0,.55.55.54.54,0,0,0,.55-.55A.55.55,0,0,0,206.19,154.43Z" fill="#003f2b"/></g><g id="change2_20"><circle cx="208.51" cy="154.98" fill="#003f2b" r=".55"/></g><g id="change2_21"><path d="M198.62,152.78a.55.55,0,0,0-.77.13.56.56,0,0,0,.14.77.55.55,0,0,0,.63-.9Z" fill="#003f2b"/></g><g id="change2_22"><path d="M199.94,151.83a.54.54,0,0,0-.13-.76.55.55,0,1,0-.63.9A.55.55,0,0,0,199.94,151.83Z" fill="#003f2b"/></g><g id="change2_23"><path d="M200.24,149.5a.54.54,0,0,0,.13.76.55.55,0,0,0,.77-.13.56.56,0,0,0-.14-.77A.55.55,0,0,0,200.24,149.5Z" fill="#003f2b"/></g><g id="change2_24"><path d="M202.33,148.42a.56.56,0,0,0-.14-.77.55.55,0,0,0-.76.14.54.54,0,0,0,.13.76A.55.55,0,0,0,202.33,148.42Z" fill="#003f2b"/></g><g id="change2_25"><path d="M203.52,146.71a.54.54,0,0,0-.13-.76.55.55,0,0,0-.77.13.56.56,0,0,0,.14.77A.55.55,0,0,0,203.52,146.71Z" fill="#003f2b"/></g><g id="change2_26"><path d="M203.81,144.37a.55.55,0,1,0,.91.63.55.55,0,0,0-.91-.63Z" fill="#003f2b"/></g><g id="change2_27"><path d="M205.91,143.3a.56.56,0,0,0-.14-.77.55.55,0,0,0-.76.14.54.54,0,0,0,.13.76A.56.56,0,0,0,205.91,143.3Z" fill="#003f2b"/></g><g id="change2_28"><path d="M208.9,142.47a.55.55,0,0,0-.14.76.55.55,0,1,0,.14-.76Z" fill="#003f2b"/></g><g id="change2_29"><path d="M210.08,144.18a.55.55,0,1,0,.76.15A.55.55,0,0,0,210.08,144.18Z" fill="#003f2b"/></g><g id="change2_30"><path d="M211.88,146.81a.55.55,0,0,0-.62-.91.55.55,0,1,0,.62.91Z" fill="#003f2b"/></g><g id="change2_31"><path d="M213.06,148.53a.55.55,0,1,0-.77-.14A.56.56,0,0,0,213.06,148.53Z" fill="#003f2b"/></g><g id="change2_32"><path d="M214.23,150.25a.55.55,0,1,0-.62-.91.55.55,0,0,0,.62.91Z" fill="#003f2b"/></g><g id="change2_33"><path d="M215.41,152a.55.55,0,0,0-.62-.91.54.54,0,0,0-.14.76A.55.55,0,0,0,215.41,152Z" fill="#003f2b"/></g><g id="change2_34"><path d="M216.59,153.68a.55.55,0,0,0,.14-.76.54.54,0,0,0-.76-.14.55.55,0,1,0,.62.9Z" fill="#003f2b"/></g><g id="change2_35"><path d="M216.73,156.9a.55.55,0,0,0-.14-.76.54.54,0,0,0-.76.13.55.55,0,0,0,.13.77A.56.56,0,0,0,216.73,156.9Z" fill="#003f2b"/></g><g id="change2_36"><path d="M215.54,158.61a.55.55,0,1,0-.77.14A.56.56,0,0,0,215.54,158.61Z" fill="#003f2b"/></g><g id="change2_37"><path d="M214.34,160.32a.55.55,0,0,0-.13-.77.56.56,0,0,0-.77.14.55.55,0,0,0,.14.76A.54.54,0,0,0,214.34,160.32Z" fill="#003f2b"/></g><g id="change2_38"><path d="M213.15,162a.56.56,0,0,0-.14-.77.55.55,0,1,0,.14.77Z" fill="#003f2b"/></g><g id="change2_39"><path d="M212,163.73a.55.55,0,1,0-.77.14A.56.56,0,0,0,212,163.73Z" fill="#003f2b"/></g><g id="change2_40"><path d="M209.86,164.81a.56.56,0,0,0,.14.77.55.55,0,0,0,.76-.14.54.54,0,0,0-.13-.76A.55.55,0,0,0,209.86,164.81Z" fill="#003f2b"/></g><g id="change2_41"><path d="M208.67,166.52a.56.56,0,0,0,.14.77.55.55,0,0,0,.76-.14.56.56,0,0,0-.14-.77A.55.55,0,0,0,208.67,166.52Z" fill="#003f2b"/></g><g id="change2_42"><path d="M205.68,167.35a.56.56,0,0,0,.14-.77.55.55,0,0,0-.76-.14.55.55,0,1,0,.62.91Z" fill="#003f2b"/></g><g id="change2_43"><path d="M204.64,164.87a.55.55,0,1,0-.14.76A.55.55,0,0,0,204.64,164.87Z" fill="#003f2b"/></g><g id="change2_44"><path d="M203.32,163.91a.54.54,0,0,0,.14-.76.55.55,0,0,0-.76-.15.56.56,0,0,0-.14.77A.55.55,0,0,0,203.32,163.91Z" fill="#003f2b"/></g><g id="change2_45"><path d="M202.14,162.19a.55.55,0,0,0,.15-.76.56.56,0,0,0-.77-.14.55.55,0,0,0-.14.76A.54.54,0,0,0,202.14,162.19Z" fill="#003f2b"/></g><g id="change2_46"><path d="M201.11,159.71a.56.56,0,0,0-.77-.14.55.55,0,0,0-.14.76.55.55,0,1,0,.91-.62Z" fill="#003f2b"/></g><g id="change2_47"><path d="M199,158.61a.55.55,0,1,0,.91-.62.55.55,0,0,0-.91.62Z" fill="#003f2b"/></g><g id="change2_48"><path d="M198,156.13a.55.55,0,1,0,.76.14A.55.55,0,0,0,198,156.13Z" fill="#003f2b"/></g><g id="change2_49"><path d="M223.8,152.91a.56.56,0,0,0,.14.77.55.55,0,0,0,.76-.14.54.54,0,0,0-.13-.76A.55.55,0,0,0,223.8,152.91Z" fill="#003f2b"/></g><g id="change2_50"><path d="M225,151.2a.55.55,0,1,0,.91.63.55.55,0,0,0-.14-.76A.56.56,0,0,0,225,151.2Z" fill="#003f2b"/></g><g id="change2_51"><path d="M226.32,150.26a.85.85,0,0,0,.17.08c.09-.37.17-.73.24-1.07a.55.55,0,0,0-.54.23A.54.54,0,0,0,226.32,150.26Z" fill="#003f2b"/></g><g id="change2_52"><path d="M223.94,156.13a.56.56,0,0,0-.14.77.55.55,0,0,0,.76.14.55.55,0,1,0-.62-.91Z" fill="#003f2b"/></g><g id="change2_53"><path d="M180.74,155.39a.52.52,0,0,0,.36.14l.1,0,.06,0h0a.54.54,0,0,0,.55-.55.55.55,0,0,0-.55-.55h-.09l-.1,0a.57.57,0,0,0-.36.14v.82Z" fill="#003f2b"/></g><g id="change2_54"><path d="M182.53,145a.55.55,0,0,0,.54.23.58.58,0,0,0,.42-.09.55.55,0,0,0,.14-.76.55.55,0,0,0-.54-.23.57.57,0,0,0-.42.08A.56.56,0,0,0,182.53,145Z" fill="#003f2b"/></g><g id="change2_55"><path d="M183.71,146.67a.55.55,0,0,0,.54.23.55.55,0,0,0,.41-.09.54.54,0,0,0,.15-.76.52.52,0,0,0-.54-.23.57.57,0,0,0-.42.08A.56.56,0,0,0,183.71,146.67Z" fill="#003f2b"/></g><g id="change2_56"><path d="M184.89,148.39a.52.52,0,0,0,.54.22.54.54,0,0,0,.41-.08.56.56,0,0,0,.15-.77.54.54,0,0,0-.55-.22.51.51,0,0,0-.41.08A.55.55,0,0,0,184.89,148.39Z" fill="#003f2b"/></g><g id="change2_57"><path d="M186.06,150.1a.54.54,0,0,0,.54.23.57.57,0,0,0,.42-.08.56.56,0,0,0,.14-.77.63.63,0,0,0-1.1.62Z" fill="#003f2b"/></g><g id="change2_58"><path d="M187.24,151.82a.56.56,0,0,0,.54.23.57.57,0,0,0,.42-.08.56.56,0,0,0,.14-.77.55.55,0,0,0-.54-.23.58.58,0,0,0-.42.09A.55.55,0,0,0,187.24,151.82Z" fill="#003f2b"/></g><g id="change2_59"><path d="M188.42,153.54a.55.55,0,0,0,.54.23.54.54,0,0,0,.42-.09.55.55,0,0,0,.14-.76.56.56,0,0,0-.54-.23.54.54,0,0,0-.42.09A.55.55,0,0,0,188.42,153.54Z" fill="#003f2b"/></g><g id="change2_60"><path d="M185.4,162.25a.58.58,0,0,0,.54-.22.56.56,0,0,0-.14-.77.58.58,0,0,0-.42-.09.56.56,0,0,0-.54.23.55.55,0,0,0,.14.76A.54.54,0,0,0,185.4,162.25Z" fill="#003f2b"/></g><g id="change2_61"><path d="M183,165.67a.55.55,0,0,0,.54-.23.55.55,0,0,0-.14-.76.51.51,0,0,0-.41-.09.54.54,0,0,0-.54.22.55.55,0,0,0,.13.77A.58.58,0,0,0,183,165.67Z" fill="#003f2b"/></g><g id="change2_62"><path d="M181.26,167.14a.5.5,0,0,0,.14.15.57.57,0,0,0,.42.08.54.54,0,0,0,.54-.22.56.56,0,0,0-.14-.77.89.89,0,0,0-1,.14A.56.56,0,0,0,181.26,167.14Z" fill="#003f2b"/></g><g id="change2_63"><path d="M195.14,177a.55.55,0,0,0-.55.55.55.55,0,0,0,.55.55.54.54,0,0,0,.55-.55A.55.55,0,0,0,195.14,177Z" fill="#003f2b"/></g><g id="change2_64"><path d="M195.14,180.2a.55.55,0,0,0-.55.55.55.55,0,0,0,.55.55.54.54,0,0,0,.55-.55A.55.55,0,0,0,195.14,180.2Z" fill="#003f2b"/></g><g id="change2_65"><path d="M194,178.72a.55.55,0,0,0-.55.55.54.54,0,0,0,.55.55.55.55,0,0,0,.55-.55A.55.55,0,0,0,194,178.72Z" fill="#003f2b"/></g><g id="change2_66"><path d="M196.82,179.27a.55.55,0,0,0-.55-.55.55.55,0,0,0-.55.55.55.55,0,0,0,.55.55A.54.54,0,0,0,196.82,179.27Z" fill="#003f2b"/></g><g id="change2_67"><path d="M186.52,177.83a.55.55,0,1,0-.77.14A.56.56,0,0,0,186.52,177.83Z" fill="#003f2b"/></g><g id="change2_68"><path d="M187.57,175.36a.54.54,0,0,0-.76.13.55.55,0,0,0,.13.77.56.56,0,0,0,.77-.14A.55.55,0,0,0,187.57,175.36Z" fill="#003f2b"/></g><g id="change2_69"><path d="M188,173.78a.56.56,0,0,0,.14.77.55.55,0,0,0,.63-.9A.56.56,0,0,0,188,173.78Z" fill="#003f2b"/></g><g id="change2_70"><path d="M189.19,172.08a.55.55,0,0,0,.14.76.54.54,0,0,0,.76-.13.55.55,0,0,0-.13-.77A.56.56,0,0,0,189.19,172.08Z" fill="#003f2b"/></g><g id="change2_71"><path d="M190.39,170.37a.54.54,0,0,0,.13.76.55.55,0,0,0,.77-.13.56.56,0,0,0-.14-.77A.55.55,0,0,0,190.39,170.37Z" fill="#003f2b"/></g><g id="change2_72"><path d="M191.58,168.66a.55.55,0,1,0,.9.63.55.55,0,0,0-.14-.76A.54.54,0,0,0,191.58,168.66Z" fill="#003f2b"/></g><g id="change2_73"><path d="M192.77,167a.56.56,0,0,0,.14.77.55.55,0,0,0,.76-.14.54.54,0,0,0-.13-.76A.55.55,0,0,0,192.77,167Z" fill="#003f2b"/></g><g id="change2_74"><path d="M196.67,166.75a.55.55,0,1,0,.62.91.55.55,0,0,0-.62-.91Z" fill="#003f2b"/></g><g id="change2_75"><path d="M197.84,168.47a.56.56,0,0,0-.14.77.55.55,0,0,0,.76.14.54.54,0,0,0,.15-.76A.55.55,0,0,0,197.84,168.47Z" fill="#003f2b"/></g><g id="change2_76"><path d="M199,170.19a.56.56,0,0,0-.14.77.55.55,0,0,0,.76.14.55.55,0,1,0-.62-.91Z" fill="#003f2b"/></g><g id="change2_77"><path d="M200.82,172.82a.56.56,0,0,0,.14-.77.55.55,0,0,0-.76-.14.54.54,0,0,0-.14.76A.55.55,0,0,0,200.82,172.82Z" fill="#003f2b"/></g><g id="change2_78"><path d="M202.14,173.77a.55.55,0,1,0-.14.76A.55.55,0,0,0,202.14,173.77Z" fill="#003f2b"/></g><g id="change2_79"><path d="M203.32,175.49a.55.55,0,0,0-.91.62.56.56,0,0,0,.77.14A.55.55,0,0,0,203.32,175.49Z" fill="#003f2b"/></g><g id="change2_80"><path d="M204.35,178a.55.55,0,0,0,.15-.76.55.55,0,1,0-.91.62A.55.55,0,0,0,204.35,178Z" fill="#003f2b"/></g><g id="change2_81"><path d="M203.73,181.33a.55.55,0,0,0,.76-.14.54.54,0,0,0-.13-.76.55.55,0,0,0-.77.13A.56.56,0,0,0,203.73,181.33Z" fill="#003f2b"/></g><g id="change2_82"><path d="M202.4,182.27a.55.55,0,0,0,.9.63.56.56,0,0,0-.14-.77A.55.55,0,0,0,202.4,182.27Z" fill="#003f2b"/></g><g id="change2_83"><path d="M201.21,184a.54.54,0,0,0,.13.76.55.55,0,0,0,.77-.13.56.56,0,0,0-.14-.77A.55.55,0,0,0,201.21,184Z" fill="#003f2b"/></g><g id="change2_84"><path d="M200.91,186.31a.54.54,0,0,0-.13-.76.55.55,0,1,0-.63.9A.55.55,0,0,0,200.91,186.31Z" fill="#003f2b"/></g><g id="change2_85"><path d="M198.82,187.39a.56.56,0,0,0,.14.77.55.55,0,1,0-.14-.77Z" fill="#003f2b"/></g><g id="change2_86"><path d="M197.63,189.1a.55.55,0,0,0,.13.77.55.55,0,0,0,.63-.91A.55.55,0,0,0,197.63,189.1Z" fill="#003f2b"/></g><g id="change2_87"><path d="M196.43,190.81a.55.55,0,0,0,.91.63.55.55,0,0,0-.91-.63Z" fill="#003f2b"/></g><g id="change2_88"><path d="M192.82,190.73a.55.55,0,1,0,.76.14A.55.55,0,0,0,192.82,190.73Z" fill="#003f2b"/></g><g id="change2_89"><path d="M191.64,189a.56.56,0,0,0-.14.77.55.55,0,0,0,.76.14.55.55,0,1,0-.62-.91Z" fill="#003f2b"/></g><g id="change2_90"><path d="M190.46,187.29a.55.55,0,1,0,.63.91.55.55,0,0,0-.63-.91Z" fill="#003f2b"/></g><g id="change2_91"><path d="M189.29,185.57a.55.55,0,1,0,.62.91.55.55,0,0,0-.62-.91Z" fill="#003f2b"/></g><g id="change2_92"><path d="M188.73,184.76a.55.55,0,1,0-.62-.9.55.55,0,0,0-.14.76A.54.54,0,0,0,188.73,184.76Z" fill="#003f2b"/></g><g id="change2_93"><path d="M186.93,182.14a.55.55,0,0,0,.62.91.55.55,0,1,0-.62-.91Z" fill="#003f2b"/></g><g id="change2_94"><path d="M186.38,181.33a.55.55,0,1,0-.63-.91.55.55,0,0,0-.14.76A.56.56,0,0,0,186.38,181.33Z" fill="#003f2b"/></g><g id="change2_95"><path d="M211.57,177.2a.55.55,0,0,0,.13.77.55.55,0,1,0,.63-.91A.55.55,0,0,0,211.57,177.2Z" fill="#003f2b"/></g><g id="change2_96"><path d="M212.76,175.49a.55.55,0,1,0,.9.63.55.55,0,0,0-.14-.76A.54.54,0,0,0,212.76,175.49Z" fill="#003f2b"/></g><g id="change2_97"><path d="M214,173.78a.56.56,0,0,0,.14.77.55.55,0,0,0,.76-.14.54.54,0,0,0-.13-.76A.56.56,0,0,0,214,173.78Z" fill="#003f2b"/></g><g id="change2_98"><path d="M215.14,172.08a.55.55,0,0,0,.91.63.55.55,0,0,0-.91-.63Z" fill="#003f2b"/></g><g id="change2_99"><path d="M216.34,170.37a.54.54,0,0,0,.13.76.55.55,0,0,0,.77-.13.56.56,0,0,0-.14-.77A.55.55,0,0,0,216.34,170.37Z" fill="#003f2b"/></g><g id="change2_100"><path d="M217.53,168.66a.56.56,0,0,0,.14.77.55.55,0,1,0-.14-.77Z" fill="#003f2b"/></g><g id="change2_101"><path d="M218.72,167a.56.56,0,0,0,.14.77.55.55,0,0,0,.76-.14.54.54,0,0,0-.13-.76A.55.55,0,0,0,218.72,167Z" fill="#003f2b"/></g><g id="change2_102"><path d="M212.88,182.14a.55.55,0,0,0,.62.91.55.55,0,1,0-.62-.91Z" fill="#003f2b"/></g><g id="change2_103"><path d="M211.71,180.42a.55.55,0,0,0-.15.76.55.55,0,1,0,.91-.62A.55.55,0,0,0,211.71,180.42Z" fill="#003f2b"/></g><g id="change2_104"><path d="M197.85,201.66a.53.53,0,0,0,.07.7l.81-.71a.63.63,0,0,0-.11-.12A.56.56,0,0,0,197.85,201.66Z" fill="#003f2b"/></g><g id="change2_105"><path d="M199.81,199.82a.56.56,0,0,0-.77.14.55.55,0,0,0,.14.76.51.51,0,0,0,.46.07l.36-.34A.54.54,0,0,0,199.81,199.82Z" fill="#003f2b"/></g><g id="change2_106"><path d="M200.24,198.25a.54.54,0,0,0,.13.76.55.55,0,0,0,.77-.13.56.56,0,0,0-.14-.77A.55.55,0,0,0,200.24,198.25Z" fill="#003f2b"/></g><g id="change2_107"><path d="M201.43,196.54a.55.55,0,0,0,.13.77.56.56,0,0,0,.77-.14.55.55,0,0,0-.14-.76A.54.54,0,0,0,201.43,196.54Z" fill="#003f2b"/></g><g id="change2_108"><path d="M202.62,194.83a.56.56,0,0,0,.14.77.55.55,0,0,0,.76-.14.54.54,0,0,0-.13-.76A.55.55,0,0,0,202.62,194.83Z" fill="#003f2b"/></g><g id="change2_109"><path d="M203.81,193.13a.55.55,0,0,0,.14.76.55.55,0,1,0-.14-.76Z" fill="#003f2b"/></g><g id="change2_110"><path d="M205,191.42a.54.54,0,0,0,.13.76.55.55,0,0,0,.77-.13.56.56,0,0,0-.14-.77A.55.55,0,0,0,205,191.42Z" fill="#003f2b"/></g><g id="change2_111"><path d="M186.06,198.86a.89.89,0,0,0,1,.14.56.56,0,0,0,.14-.77.52.52,0,0,0-.54-.22.54.54,0,0,0-.41.08A.56.56,0,0,0,186.06,198.86Z" fill="#003f2b"/></g><g id="change2_112"><path d="M187.78,200.8a.57.57,0,0,0,.42-.08.55.55,0,0,0-.4-1,.58.58,0,0,0-.42.09.55.55,0,0,0-.14.76A.52.52,0,0,0,187.78,200.8Z" fill="#003f2b"/></g><g id="change2_113"><path d="M189,202.52a.57.57,0,0,0,.42-.08.55.55,0,0,0-.4-1,.58.58,0,0,0-.42.09.55.55,0,0,0-.14.76A.55.55,0,0,0,189,202.52Z" fill="#003f2b"/></g><g id="change2_114"><path d="M184.08,211.63a.55.55,0,0,0-.38.18Z" fill="#003f2b"/></g><g id="change2_115"><path d="M180.17,152.71a.58.58,0,0,0-.19,0,.55.55,0,0,0,0,1,.58.58,0,0,0,.19,0,.55.55,0,0,0,.55-.55A.55.55,0,0,0,180.17,152.71Z" fill="#003f2b"/></g><g id="change2_116"><path d="M180.17,155.92a.58.58,0,0,0-.19,0,.55.55,0,0,0,0,1,.58.58,0,0,0,.19,0,.55.55,0,0,0,.55-.55A.55.55,0,0,0,180.17,155.92Z" fill="#003f2b"/></g><g id="change2_117"><path d="M182.45,142.61a.55.55,0,0,0-.54-.23.51.51,0,0,0-.41.09.55.55,0,0,0-.15.76.56.56,0,0,0,.54.23.54.54,0,0,0,.42-.09A.55.55,0,0,0,182.45,142.61Z" fill="#003f2b"/></g><g id="change2_118"><path d="M189.38,156.14a.54.54,0,0,0-.42-.09.55.55,0,0,0-.4,1,.57.57,0,0,0,.42.09.56.56,0,0,0,.54-.23A.55.55,0,0,0,189.38,156.14Z" fill="#003f2b"/></g><g id="change2_119"><path d="M188.19,157.84a.57.57,0,0,0-.42-.08.53.53,0,0,0-.54.22.57.57,0,0,0,.13.77.53.53,0,0,0,.42.08.52.52,0,0,0,.54-.22A.55.55,0,0,0,188.19,157.84Z" fill="#003f2b"/></g><g id="change2_120"><path d="M186.57,159.47a.51.51,0,0,0-.53.22.55.55,0,0,0,.55.85.55.55,0,0,0,.4-1A.52.52,0,0,0,186.57,159.47Z" fill="#003f2b"/></g><g id="change2_121"><path d="M184.19,162.88a.57.57,0,0,0-.54.22.56.56,0,0,0,.14.77.83.83,0,0,0,1-.14.55.55,0,0,0-.55-.85Z" fill="#003f2b"/></g><g id="change2_122"><path d="M180.17,201.47a.58.58,0,0,0-.19,0,.55.55,0,0,0,0,1,.58.58,0,0,0,.19,0,.55.55,0,0,0,.55-.55A.55.55,0,0,0,180.17,201.47Z" fill="#003f2b"/></g><g id="change2_123"><path d="M180.17,204.67a.58.58,0,0,0-.19,0,.53.53,0,0,0-.36.51.54.54,0,0,0,.36.51.58.58,0,0,0,.19,0,.55.55,0,0,0,0-1.1Z" fill="#003f2b"/></g><g id="change2_124"><path d="M181.84,203.74a.54.54,0,0,0-.55-.55h0l-.06,0-.1,0a.52.52,0,0,0-.36.14v.82a.57.57,0,0,0,.36.14l.1,0h.09A.55.55,0,0,0,181.84,203.74Z" fill="#003f2b"/></g><g id="change2_125"><path d="M182.45,191.36a.55.55,0,0,0-.54-.23.56.56,0,0,0-.56.85.56.56,0,0,0,.54.23.57.57,0,0,0,.42-.08A.56.56,0,0,0,182.45,191.36Z" fill="#003f2b"/></g><g id="change2_126"><path d="M183.63,193.08a.55.55,0,0,0-.54-.23.54.54,0,0,0-.42.09.55.55,0,0,0-.14.76.55.55,0,0,0,.54.23.54.54,0,0,0,.42-.09A.55.55,0,0,0,183.63,193.08Z" fill="#003f2b"/></g><g id="change2_127"><path d="M184.81,194.8a.56.56,0,0,0-.54-.23.54.54,0,0,0-.42.09.55.55,0,0,0-.14.76.55.55,0,0,0,.54.23.55.55,0,0,0,.41-.09A.54.54,0,0,0,184.81,194.8Z" fill="#003f2b"/></g><g id="change2_128"><path d="M186,196.52a.56.56,0,1,0-.15.76A.55.55,0,0,0,186,196.52Z" fill="#003f2b"/></g><g id="change2_129"><path d="M189,204.8a.56.56,0,0,0-.54.23.55.55,0,0,0,.14.76.53.53,0,0,0,.42.09.58.58,0,0,0,.54-.22.56.56,0,0,0-.14-.77A.54.54,0,0,0,189,204.8Z" fill="#003f2b"/></g><g id="change2_130"><path d="M187.77,206.51a.55.55,0,0,0-.54.22.57.57,0,0,0,.13.77.58.58,0,0,0,.42.09.55.55,0,0,0,.54-.23.55.55,0,0,0-.55-.85Z" fill="#003f2b"/></g><g id="change2_131"><path d="M186.57,208.22a.51.51,0,0,0-.53.22.55.55,0,0,0,.13.77.89.89,0,0,0,1-.14.55.55,0,0,0-.56-.85Z" fill="#003f2b"/></g><g id="change2_132"><path d="M185.8,210a.58.58,0,0,0-.42-.09.56.56,0,0,0-.54.23.55.55,0,0,0,.14.76.52.52,0,0,0,.36.09h0l.64-.34A.54.54,0,0,0,185.8,210Z" fill="#003f2b"/></g><g id="change2_133"><path d="M125.38,132.44a.87.87,0,0,0,.07-.17l-.94.2a.32.32,0,0,0,.1.1A.55.55,0,0,0,125.38,132.44Z" fill="#003f2b"/></g><g id="change2_134"><path d="M124.18,134.15a.55.55,0,0,0-.13-.77.56.56,0,0,0-.77.14.55.55,0,0,0,.14.76A.54.54,0,0,0,124.18,134.15Z" fill="#003f2b"/></g><g id="change2_135"><path d="M123,135.85a.55.55,0,0,0-.9-.63.57.57,0,0,0,.13.77A.56.56,0,0,0,123,135.85Z" fill="#003f2b"/></g><g id="change2_136"><path d="M121.8,137.56a.55.55,0,0,0-.14-.76.54.54,0,0,0-.76.13.55.55,0,0,0,.13.77A.56.56,0,0,0,121.8,137.56Z" fill="#003f2b"/></g><g id="change2_137"><path d="M120.6,139.27a.55.55,0,0,0-.13-.77.55.55,0,0,0-.63.91A.55.55,0,0,0,120.6,139.27Z" fill="#003f2b"/></g><g id="change2_138"><path d="M119.41,141a.55.55,0,1,0-.9-.63.55.55,0,0,0,.14.76A.54.54,0,0,0,119.41,141Z" fill="#003f2b"/></g><g id="change2_139"><path d="M118.22,142.69a.56.56,0,0,0-.14-.77.55.55,0,0,0-.76.14.54.54,0,0,0,.13.76A.57.57,0,0,0,118.22,142.69Z" fill="#003f2b"/></g><g id="change2_140"><path d="M114.33,142.88a.55.55,0,0,0,.14-.76.56.56,0,0,0-.77-.14.55.55,0,1,0,.63.9Z" fill="#003f2b"/></g><g id="change2_141"><path d="M113.15,141.17a.56.56,0,0,0,.14-.77.55.55,0,0,0-.91.62A.56.56,0,0,0,113.15,141.17Z" fill="#003f2b"/></g><g id="change2_142"><path d="M112,139.45a.56.56,0,0,0,.14-.77.55.55,0,1,0-.14.77Z" fill="#003f2b"/></g><g id="change2_143"><path d="M110.79,137.73a.55.55,0,1,0-.62-.91.56.56,0,0,0-.14.77A.55.55,0,0,0,110.79,137.73Z" fill="#003f2b"/></g><g id="change2_144"><path d="M142,131.45a.55.55,0,0,0-.55.55.55.55,0,1,0,1.1,0A.55.55,0,0,0,142,131.45Z" fill="#003f2b"/></g><g id="change2_145"><circle cx="140.79" cy="130.52" fill="#003f2b" r=".55"/></g><g id="change2_146"><path d="M143.11,131.07a.55.55,0,1,0,0-1.1.55.55,0,1,0,0,1.1Z" fill="#003f2b"/></g><g id="change2_147"><path d="M151.19,129.22s0,0,.05-.05l-.7,0A.54.54,0,0,0,151.19,129.22Z" fill="#003f2b"/></g><g id="change2_148"><path d="M151.33,132.44a.56.56,0,0,0-.14-.77.55.55,0,0,0-.76.14.54.54,0,0,0,.13.76A.55.55,0,0,0,151.33,132.44Z" fill="#003f2b"/></g><g id="change2_149"><path d="M150.14,134.15a.55.55,0,0,0-.91-.63.55.55,0,0,0,.91.63Z" fill="#003f2b"/></g><g id="change2_150"><path d="M148.94,135.85a.54.54,0,0,0-.13-.76.55.55,0,1,0-.63.9A.55.55,0,0,0,148.94,135.85Z" fill="#003f2b"/></g><g id="change2_151"><path d="M147.75,137.56a.55.55,0,0,0-.14-.76.54.54,0,0,0-.76.13.55.55,0,1,0,.9.63Z" fill="#003f2b"/></g><g id="change2_152"><path d="M146.56,139.27a.55.55,0,1,0-.77.14A.56.56,0,0,0,146.56,139.27Z" fill="#003f2b"/></g><g id="change2_153"><path d="M145.36,141a.55.55,0,0,0-.13-.77.56.56,0,0,0-.77.14.55.55,0,0,0,.14.76A.54.54,0,0,0,145.36,141Z" fill="#003f2b"/></g><g id="change2_154"><path d="M143.27,142.06a.55.55,0,0,0,.13.76.57.57,0,0,0,.77-.13.56.56,0,0,0-.14-.77A.55.55,0,0,0,143.27,142.06Z" fill="#003f2b"/></g><g id="change2_155"><path d="M140.28,142.88a.55.55,0,0,0-.62-.9.54.54,0,0,0-.15.76A.55.55,0,0,0,140.28,142.88Z" fill="#003f2b"/></g><g id="change2_156"><path d="M139.1,141.17a.56.56,0,0,0,.14-.77.55.55,0,0,0-.76-.14.54.54,0,0,0-.14.76A.55.55,0,0,0,139.1,141.17Z" fill="#003f2b"/></g><g id="change2_157"><path d="M137.92,139.45a.55.55,0,0,0-.62-.91.56.56,0,0,0-.14.77A.55.55,0,0,0,137.92,139.45Z" fill="#003f2b"/></g><g id="change2_158"><path d="M136.74,137.73a.55.55,0,1,0-.62-.91.56.56,0,0,0-.14.77A.55.55,0,0,0,136.74,137.73Z" fill="#003f2b"/></g><g id="change2_159"><path d="M135.57,136a.55.55,0,0,0,.14-.76.55.55,0,1,0-.14.76Z" fill="#003f2b"/></g><g id="change2_160"><path d="M134.39,134.29a.55.55,0,0,0,.14-.76.54.54,0,0,0-.76-.14.55.55,0,0,0-.15.76A.56.56,0,0,0,134.39,134.29Z" fill="#003f2b"/></g><g id="change2_161"><path d="M133.21,132.57a.54.54,0,0,0,.14-.76.55.55,0,0,0-.76-.14.55.55,0,1,0,.62.9Z" fill="#003f2b"/></g><g id="change2_162"><path d="M167.93,131.45a.55.55,0,0,0-.55.55.55.55,0,0,0,.55.55.54.54,0,0,0,.55-.55A.55.55,0,0,0,167.93,131.45Z" fill="#003f2b"/></g><g id="change2_163"><circle cx="166.75" cy="130.52" fill="#003f2b" r=".55"/></g><g id="change2_164"><circle cx="169.06" cy="130.52" fill="#003f2b" r=".55"/></g><g id="change2_165"><path d="M159.26,129.12h-.83a.38.38,0,0,0,.11.11A.53.53,0,0,0,159.26,129.12Z" fill="#003f2b"/></g><g id="change2_166"><path d="M177.28,132.44a.56.56,0,0,0-.14-.77.55.55,0,1,0,.14.77Z" fill="#003f2b"/></g><g id="change2_167"><path d="M176.09,134.15a.56.56,0,0,0-.14-.77.55.55,0,0,0-.76.14.54.54,0,0,0,.13.76A.55.55,0,0,0,176.09,134.15Z" fill="#003f2b"/></g><g id="change2_168"><path d="M174.89,135.85a.54.54,0,0,0-.13-.76.55.55,0,1,0-.63.9A.55.55,0,0,0,174.89,135.85Z" fill="#003f2b"/></g><g id="change2_169"><path d="M173.7,137.56a.55.55,0,0,0-.9-.63.56.56,0,0,0,.14.77A.55.55,0,0,0,173.7,137.56Z" fill="#003f2b"/></g><g id="change2_170"><path d="M172.51,139.27a.56.56,0,0,0-.14-.77.55.55,0,0,0-.63.91A.56.56,0,0,0,172.51,139.27Z" fill="#003f2b"/></g><g id="change2_171"><path d="M171.32,141a.55.55,0,0,0-.91-.63.55.55,0,0,0,.91.63Z" fill="#003f2b"/></g><g id="change2_172"><path d="M169.22,142.06a.55.55,0,1,0,.77-.14A.56.56,0,0,0,169.22,142.06Z" fill="#003f2b"/></g><g id="change2_173"><path d="M166.23,142.88a.55.55,0,1,0-.77-.14A.55.55,0,0,0,166.23,142.88Z" fill="#003f2b"/></g><g id="change2_174"><path d="M165.05,141.17a.55.55,0,0,0-.62-.91.54.54,0,0,0-.14.76A.55.55,0,0,0,165.05,141.17Z" fill="#003f2b"/></g><g id="change2_175"><path d="M163.87,139.45a.55.55,0,1,0-.76-.14A.55.55,0,0,0,163.87,139.45Z" fill="#003f2b"/></g><g id="change2_176"><path d="M162.7,137.73a.55.55,0,0,0-.63-.91.55.55,0,1,0,.63.91Z" fill="#003f2b"/></g><g id="change2_177"><path d="M161.52,136a.55.55,0,0,0-.62-.91.55.55,0,1,0,.62.91Z" fill="#003f2b"/></g><g id="change2_178"><path d="M160.34,134.29a.55.55,0,0,0,.14-.76.55.55,0,0,0-.9.62A.55.55,0,0,0,160.34,134.29Z" fill="#003f2b"/></g><g id="change2_179"><path d="M159.16,132.57a.55.55,0,0,0,.15-.76.56.56,0,0,0-.77-.14.55.55,0,0,0-.14.76A.54.54,0,0,0,159.16,132.57Z" fill="#003f2b"/></g><g id="change2_180"><path d="M102.31,152.71a.55.55,0,0,0-.55.55.55.55,0,0,0,.55.55.54.54,0,0,0,.55-.55A.55.55,0,0,0,102.31,152.71Z" fill="#003f2b"/></g><g id="change2_181"><path d="M102.31,155.92a.55.55,0,0,0-.55.55.55.55,0,0,0,.55.55.55.55,0,0,0,.55-.55A.54.54,0,0,0,102.31,155.92Z" fill="#003f2b"/></g><g id="change2_182"><path d="M101.13,154.43a.55.55,0,0,0-.55.55.54.54,0,0,0,.55.55.55.55,0,0,0,.55-.55A.55.55,0,0,0,101.13,154.43Z" fill="#003f2b"/></g><g id="change2_183"><circle cx="103.44" cy="154.98" fill="#003f2b" r=".55"/></g><g id="change2_184"><path d="M93.55,152.78a.54.54,0,0,0-.52-.05c.07.34.14.68.21,1a.55.55,0,0,0,.44-.23A.54.54,0,0,0,93.55,152.78Z" fill="#003f2b"/></g><g id="change2_185"><path d="M94,151.2a.55.55,0,0,0,.91.63.55.55,0,0,0-.14-.76A.56.56,0,0,0,94,151.2Z" fill="#003f2b"/></g><g id="change2_186"><path d="M95.17,149.5a.54.54,0,0,0,.13.76.55.55,0,0,0,.77-.13.56.56,0,0,0-.14-.77A.55.55,0,0,0,95.17,149.5Z" fill="#003f2b"/></g><g id="change2_187"><path d="M96.36,147.79a.55.55,0,0,0,.14.76.54.54,0,0,0,.76-.13.55.55,0,1,0-.9-.63Z" fill="#003f2b"/></g><g id="change2_188"><path d="M97.55,146.08a.56.56,0,0,0,.14.77.55.55,0,0,0,.76-.14.54.54,0,0,0-.13-.76A.55.55,0,0,0,97.55,146.08Z" fill="#003f2b"/></g><g id="change2_189"><path d="M98.75,144.37a.55.55,0,0,0,.13.77.56.56,0,0,0,.77-.14.55.55,0,0,0-.14-.76A.54.54,0,0,0,98.75,144.37Z" fill="#003f2b"/></g><g id="change2_190"><path d="M100.84,143.3a.56.56,0,0,0-.14-.77.55.55,0,0,0-.76.14.55.55,0,0,0,.9.63Z" fill="#003f2b"/></g><g id="change2_191"><path d="M103.83,142.47a.55.55,0,0,0-.14.76.54.54,0,0,0,.76.14.55.55,0,1,0-.62-.9Z" fill="#003f2b"/></g><g id="change2_192"><path d="M105,144.18a.56.56,0,0,0-.14.77.55.55,0,0,0,.76.14.54.54,0,0,0,.14-.76A.55.55,0,0,0,105,144.18Z" fill="#003f2b"/></g><g id="change2_193"><path d="M106.81,146.81a.55.55,0,0,0-.62-.91.55.55,0,1,0,.62.91Z" fill="#003f2b"/></g><g id="change2_194"><path d="M108,148.53a.56.56,0,0,0,.14-.77.55.55,0,0,0-.76-.14.55.55,0,1,0,.62.91Z" fill="#003f2b"/></g><g id="change2_195"><path d="M109.16,150.25a.55.55,0,0,0,.15-.77.56.56,0,0,0-.77-.14.55.55,0,0,0,.62.91Z" fill="#003f2b"/></g><g id="change2_196"><path d="M110.34,152a.55.55,0,1,0-.62-.91.55.55,0,0,0,.62.91Z" fill="#003f2b"/></g><g id="change2_197"><path d="M111.52,153.68a.55.55,0,0,0,.14-.76.55.55,0,1,0-.14.76Z" fill="#003f2b"/></g><g id="change2_198"><path d="M110.89,157a.56.56,0,0,0,.77-.14.55.55,0,0,0-.14-.76.54.54,0,0,0-.76.13A.56.56,0,0,0,110.89,157Z" fill="#003f2b"/></g><g id="change2_199"><path d="M110.47,158.61a.56.56,0,0,0-.14-.77.55.55,0,0,0-.63.91A.56.56,0,0,0,110.47,158.61Z" fill="#003f2b"/></g><g id="change2_200"><path d="M109.27,160.32a.55.55,0,0,0-.13-.77.56.56,0,0,0-.77.14.55.55,0,0,0,.14.76A.54.54,0,0,0,109.27,160.32Z" fill="#003f2b"/></g><g id="change2_201"><path d="M108.08,162a.55.55,0,1,0-.9-.63.55.55,0,0,0,.14.76A.54.54,0,0,0,108.08,162Z" fill="#003f2b"/></g><g id="change2_202"><path d="M106.89,163.73a.55.55,0,1,0-.77.14A.56.56,0,0,0,106.89,163.73Z" fill="#003f2b"/></g><g id="change2_203"><path d="M104.79,164.81a.55.55,0,0,0,.91.63.55.55,0,0,0-.91-.63Z" fill="#003f2b"/></g><g id="change2_204"><path d="M103.6,166.52a.56.56,0,0,0,.14.77.55.55,0,0,0,.63-.91A.56.56,0,0,0,103.6,166.52Z" fill="#003f2b"/></g><g id="change2_205"><path d="M100,166.44a.55.55,0,1,0,.76.14A.55.55,0,0,0,100,166.44Z" fill="#003f2b"/></g><g id="change2_206"><path d="M98.81,164.72a.56.56,0,0,0-.14.77.55.55,0,0,0,.76.14.54.54,0,0,0,.14-.76A.55.55,0,0,0,98.81,164.72Z" fill="#003f2b"/></g><g id="change2_207"><path d="M97.63,163a.56.56,0,0,0-.14.77.55.55,0,0,0,.91-.62A.56.56,0,0,0,97.63,163Z" fill="#003f2b"/></g><g id="change2_208"><path d="M96.45,161.29a.55.55,0,1,0,.77.14A.56.56,0,0,0,96.45,161.29Z" fill="#003f2b"/></g><g id="change2_209"><path d="M95.28,159.57a.55.55,0,0,0-.15.76.55.55,0,1,0,.91-.62A.55.55,0,0,0,95.28,159.57Z" fill="#003f2b"/></g><g id="change2_210"><path d="M94.86,158a.54.54,0,0,0-.7-.16c.08.33.16.67.25,1a.6.6,0,0,0,.31-.08A.56.56,0,0,0,94.86,158Z" fill="#003f2b"/></g><g id="change2_211"><path d="M128.26,152.71a.55.55,0,0,0-.55.55.55.55,0,0,0,.55.55.54.54,0,0,0,.55-.55A.55.55,0,0,0,128.26,152.71Z" fill="#003f2b"/></g><g id="change2_212"><path d="M128.26,155.92a.55.55,0,0,0-.55.55.55.55,0,0,0,.55.55.55.55,0,0,0,.55-.55A.54.54,0,0,0,128.26,155.92Z" fill="#003f2b"/></g><g id="change2_213"><circle cx="127.08" cy="154.98" fill="#003f2b" r=".55"/></g><g id="change2_214"><path d="M129.39,155.53a.55.55,0,0,0,.55-.55.55.55,0,1,0-1.1,0A.55.55,0,0,0,129.39,155.53Z" fill="#003f2b"/></g><g id="change2_215"><path d="M119.63,153.54a.54.54,0,0,0-.13-.76.55.55,0,0,0-.77.13.56.56,0,0,0,.14.77A.55.55,0,0,0,119.63,153.54Z" fill="#003f2b"/></g><g id="change2_216"><path d="M120.83,151.83a.55.55,0,1,0-.77.14A.56.56,0,0,0,120.83,151.83Z" fill="#003f2b"/></g><g id="change2_217"><path d="M122,150.13a.56.56,0,0,0-.14-.77.55.55,0,1,0,.14.77Z" fill="#003f2b"/></g><g id="change2_218"><path d="M123.21,148.42a.55.55,0,0,0-.13-.77.56.56,0,0,0-.77.14.55.55,0,0,0,.14.76A.54.54,0,0,0,123.21,148.42Z" fill="#003f2b"/></g><g id="change2_219"><path d="M123.5,146.08a.55.55,0,0,0,.91.63.55.55,0,0,0-.91-.63Z" fill="#003f2b"/></g><g id="change2_220"><path d="M124.7,144.37a.55.55,0,0,0,.13.77.56.56,0,0,0,.77-.14.55.55,0,0,0-.14-.76A.54.54,0,0,0,124.7,144.37Z" fill="#003f2b"/></g><g id="change2_221"><path d="M126.79,143.3a.55.55,0,0,0-.13-.77.56.56,0,0,0-.77.14.55.55,0,0,0,.9.63Z" fill="#003f2b"/></g><g id="change2_222"><path d="M129.78,142.47a.55.55,0,1,0,.77.14A.55.55,0,0,0,129.78,142.47Z" fill="#003f2b"/></g><g id="change2_223"><path d="M131,144.18a.56.56,0,0,0-.14.77.55.55,0,0,0,.91-.62A.56.56,0,0,0,131,144.18Z" fill="#003f2b"/></g><g id="change2_224"><path d="M132.76,146.81a.54.54,0,0,0,.14-.76.55.55,0,0,0-.76-.15.56.56,0,0,0-.14.77A.55.55,0,0,0,132.76,146.81Z" fill="#003f2b"/></g><g id="change2_225"><path d="M133.94,148.53a.56.56,0,0,0,.14-.77.55.55,0,0,0-.76-.14.55.55,0,1,0,.62.91Z" fill="#003f2b"/></g><g id="change2_226"><path d="M135.12,150.25a.55.55,0,0,0-.63-.91.55.55,0,0,0-.14.76A.56.56,0,0,0,135.12,150.25Z" fill="#003f2b"/></g><g id="change2_227"><path d="M136.29,152a.55.55,0,1,0-.62-.91.55.55,0,0,0,.62.91Z" fill="#003f2b"/></g><g id="change2_228"><path d="M137.47,153.68a.55.55,0,0,0-.62-.9.55.55,0,0,0-.14.76A.54.54,0,0,0,137.47,153.68Z" fill="#003f2b"/></g><g id="change2_229"><path d="M137.61,156.9a.54.54,0,0,0-.13-.76.55.55,0,0,0-.77.13.56.56,0,0,0,.14.77A.55.55,0,0,0,137.61,156.9Z" fill="#003f2b"/></g><g id="change2_230"><path d="M136.42,158.61a.56.56,0,0,0-.14-.77.55.55,0,0,0-.63.91A.56.56,0,0,0,136.42,158.61Z" fill="#003f2b"/></g><g id="change2_231"><path d="M135.23,160.32a.55.55,0,0,0-.91-.63.55.55,0,0,0,.91.63Z" fill="#003f2b"/></g><g id="change2_232"><path d="M134,162a.55.55,0,0,0-.13-.77.56.56,0,0,0-.77.14.55.55,0,0,0,.14.76A.54.54,0,0,0,134,162Z" fill="#003f2b"/></g><g id="change2_233"><path d="M132.84,163.73a.55.55,0,0,0-.9-.63.55.55,0,1,0,.9.63Z" fill="#003f2b"/></g><g id="change2_234"><path d="M131.65,165.44a.55.55,0,0,0-.14-.76.54.54,0,0,0-.76.13.55.55,0,0,0,.13.77A.56.56,0,0,0,131.65,165.44Z" fill="#003f2b"/></g><g id="change2_235"><path d="M129.69,167.29a.55.55,0,0,0,.63-.91.55.55,0,0,0-.63.91Z" fill="#003f2b"/></g><g id="change2_236"><path d="M126.56,167.35a.56.56,0,0,0,.14-.77.55.55,0,1,0-.14.77Z" fill="#003f2b"/></g><g id="change2_237"><path d="M125.38,165.63a.55.55,0,0,0,.15-.76.55.55,0,1,0-.91.62A.55.55,0,0,0,125.38,165.63Z" fill="#003f2b"/></g><g id="change2_238"><path d="M124.35,163.15a.55.55,0,1,0-.14.76A.55.55,0,0,0,124.35,163.15Z" fill="#003f2b"/></g><g id="change2_239"><path d="M123.17,161.43a.55.55,0,1,0-.14.76A.55.55,0,0,0,123.17,161.43Z" fill="#003f2b"/></g><g id="change2_240"><path d="M122,159.71a.55.55,0,0,0-.76-.14.54.54,0,0,0-.14.76.55.55,0,0,0,.76.15A.56.56,0,0,0,122,159.71Z" fill="#003f2b"/></g><g id="change2_241"><path d="M120.81,158a.55.55,0,1,0-.9.62.54.54,0,0,0,.76.15A.55.55,0,0,0,120.81,158Z" fill="#003f2b"/></g><g id="change2_242"><path d="M119.64,156.27a.55.55,0,1,0-.91.63.55.55,0,0,0,.76.14A.56.56,0,0,0,119.64,156.27Z" fill="#003f2b"/></g><g id="change2_243"><path d="M154.22,152.71a.55.55,0,0,0-.55.55.55.55,0,1,0,.55-.55Z" fill="#003f2b"/></g><g id="change2_244"><path d="M154.22,155.92a.54.54,0,0,0-.55.55.55.55,0,1,0,1.09,0A.54.54,0,0,0,154.22,155.92Z" fill="#003f2b"/></g><g id="change2_245"><circle cx="153.03" cy="154.98" fill="#003f2b" r=".55"/></g><g id="change2_246"><path d="M155.34,155.53a.54.54,0,0,0,.55-.55.55.55,0,0,0-.55-.55.55.55,0,0,0-.55.55A.55.55,0,0,0,155.34,155.53Z" fill="#003f2b"/></g><g id="change2_247"><path d="M145.59,153.54a.55.55,0,0,0-.91-.63.55.55,0,1,0,.91.63Z" fill="#003f2b"/></g><g id="change2_248"><path d="M146.78,151.83a.55.55,0,1,0-.77.14A.56.56,0,0,0,146.78,151.83Z" fill="#003f2b"/></g><g id="change2_249"><path d="M148,150.13a.55.55,0,0,0-.13-.77.56.56,0,0,0-.77.14.55.55,0,0,0,.14.76A.54.54,0,0,0,148,150.13Z" fill="#003f2b"/></g><g id="change2_250"><path d="M149.17,148.42a.55.55,0,0,0-.91-.63.55.55,0,0,0,.91.63Z" fill="#003f2b"/></g><g id="change2_251"><path d="M150.36,146.71a.55.55,0,0,0-.14-.76.54.54,0,0,0-.76.13.55.55,0,0,0,.13.77A.56.56,0,0,0,150.36,146.71Z" fill="#003f2b"/></g><g id="change2_252"><path d="M150.65,144.37a.56.56,0,0,0,.14.77.55.55,0,0,0,.62-.9A.54.54,0,0,0,150.65,144.37Z" fill="#003f2b"/></g><g id="change2_253"><path d="M152.74,143.3a.55.55,0,0,0-.13-.77.56.56,0,0,0-.77.14.55.55,0,0,0,.9.63Z" fill="#003f2b"/></g><g id="change2_254"><path d="M155.74,142.47a.55.55,0,1,0,.76.14A.54.54,0,0,0,155.74,142.47Z" fill="#003f2b"/></g><g id="change2_255"><path d="M156.91,144.18a.55.55,0,1,0,.63.91.55.55,0,0,0,.14-.76A.56.56,0,0,0,156.91,144.18Z" fill="#003f2b"/></g><g id="change2_256"><path d="M158.71,146.81a.55.55,0,0,0,.15-.76.55.55,0,1,0-.91.62A.55.55,0,0,0,158.71,146.81Z" fill="#003f2b"/></g><g id="change2_257"><path d="M159.89,148.53a.56.56,0,0,0,.14-.77.55.55,0,1,0-.14.77Z" fill="#003f2b"/></g><g id="change2_258"><path d="M161.07,150.25a.56.56,0,0,0,.14-.77.55.55,0,0,0-.91.62A.56.56,0,0,0,161.07,150.25Z" fill="#003f2b"/></g><g id="change2_259"><path d="M162.25,152a.55.55,0,0,0-.63-.91.55.55,0,0,0-.14.76A.56.56,0,0,0,162.25,152Z" fill="#003f2b"/></g><g id="change2_260"><path d="M163.42,153.68a.55.55,0,1,0-.76-.14A.54.54,0,0,0,163.42,153.68Z" fill="#003f2b"/></g><g id="change2_261"><path d="M163.56,156.9a.54.54,0,0,0-.13-.76.55.55,0,0,0-.77.13.56.56,0,0,0,.14.77A.55.55,0,0,0,163.56,156.9Z" fill="#003f2b"/></g><g id="change2_262"><path d="M162.37,158.61a.56.56,0,0,0-.14-.77.55.55,0,0,0-.76.14.57.57,0,0,0,.13.77A.56.56,0,0,0,162.37,158.61Z" fill="#003f2b"/></g><g id="change2_263"><path d="M161.18,160.32a.56.56,0,0,0-.14-.77.55.55,0,0,0-.76.14.54.54,0,0,0,.13.76A.55.55,0,0,0,161.18,160.32Z" fill="#003f2b"/></g><g id="change2_264"><path d="M160,162a.55.55,0,0,0-.13-.77.56.56,0,0,0-.77.14.55.55,0,0,0,.14.76A.54.54,0,0,0,160,162Z" fill="#003f2b"/></g><g id="change2_265"><path d="M158.79,163.73a.55.55,0,0,0-.13-.76.55.55,0,1,0-.63.9A.55.55,0,0,0,158.79,163.73Z" fill="#003f2b"/></g><g id="change2_266"><path d="M157.6,165.44a.55.55,0,0,0-.14-.76.54.54,0,0,0-.76.13.55.55,0,0,0,.13.77A.56.56,0,0,0,157.6,165.44Z" fill="#003f2b"/></g><g id="change2_267"><path d="M155.64,167.29a.55.55,0,1,0-.14-.77A.56.56,0,0,0,155.64,167.29Z" fill="#003f2b"/></g><g id="change2_268"><path d="M152.51,167.35a.55.55,0,1,0-.76-.14A.55.55,0,0,0,152.51,167.35Z" fill="#003f2b"/></g><g id="change2_269"><path d="M151.48,164.87a.55.55,0,1,0-.91.62.55.55,0,0,0,.76.14A.54.54,0,0,0,151.48,164.87Z" fill="#003f2b"/></g><g id="change2_270"><path d="M150.3,163.15a.55.55,0,1,0-.91.62.56.56,0,0,0,.77.14A.55.55,0,0,0,150.3,163.15Z" fill="#003f2b"/></g><g id="change2_271"><path d="M149.12,161.43a.55.55,0,1,0-.14.76A.55.55,0,0,0,149.12,161.43Z" fill="#003f2b"/></g><g id="change2_272"><path d="M147.94,159.71a.55.55,0,1,0-.14.77A.55.55,0,0,0,147.94,159.71Z" fill="#003f2b"/></g><g id="change2_273"><path d="M146.77,158a.56.56,0,0,0-.77-.14.55.55,0,0,0-.14.76.54.54,0,0,0,.76.15A.56.56,0,0,0,146.77,158Z" fill="#003f2b"/></g><g id="change2_274"><path d="M145.59,156.27a.55.55,0,1,0-.14.77A.56.56,0,0,0,145.59,156.27Z" fill="#003f2b"/></g><g id="change2_275"><path d="M179,154.43a.55.55,0,0,0-.55.55.55.55,0,1,0,1.1,0A.55.55,0,0,0,179,154.43Z" fill="#003f2b"/></g><g id="change2_276"><path d="M171.54,153.54a.55.55,0,0,0-.14-.76.54.54,0,0,0-.76.13.55.55,0,0,0,.13.77A.56.56,0,0,0,171.54,153.54Z" fill="#003f2b"/></g><g id="change2_277"><path d="M172.73,151.83a.55.55,0,1,0-.76.14A.55.55,0,0,0,172.73,151.83Z" fill="#003f2b"/></g><g id="change2_278"><path d="M173.92,150.13a.55.55,0,0,0-.13-.77.56.56,0,0,0-.77.14.55.55,0,0,0,.14.76A.54.54,0,0,0,173.92,150.13Z" fill="#003f2b"/></g><g id="change2_279"><path d="M175.12,148.42a.56.56,0,0,0-.14-.77.55.55,0,0,0-.76.14.54.54,0,0,0,.13.76A.55.55,0,0,0,175.12,148.42Z" fill="#003f2b"/></g><g id="change2_280"><path d="M176.31,146.71a.55.55,0,0,0-.14-.76.54.54,0,0,0-.76.13.55.55,0,1,0,.9.63Z" fill="#003f2b"/></g><g id="change2_281"><path d="M176.6,144.37a.56.56,0,0,0,.14.77.55.55,0,0,0,.76-.14.54.54,0,0,0-.13-.76A.55.55,0,0,0,176.6,144.37Z" fill="#003f2b"/></g><g id="change2_282"><path d="M178.7,143.3a.55.55,0,1,0-.91-.63.55.55,0,0,0,.14.76A.56.56,0,0,0,178.7,143.3Z" fill="#003f2b"/></g><g id="change2_283"><path d="M178.46,167.35a.55.55,0,1,0-.76-.14A.55.55,0,0,0,178.46,167.35Z" fill="#003f2b"/></g><g id="change2_284"><path d="M177.43,164.87a.55.55,0,1,0-.14.76A.55.55,0,0,0,177.43,164.87Z" fill="#003f2b"/></g><g id="change2_285"><path d="M176.25,163.15a.55.55,0,0,0-.76-.15.55.55,0,1,0,.62.91A.55.55,0,0,0,176.25,163.15Z" fill="#003f2b"/></g><g id="change2_286"><path d="M175.07,161.43a.55.55,0,0,0-.76-.14.55.55,0,1,0,.76.14Z" fill="#003f2b"/></g><g id="change2_287"><path d="M173.9,159.71a.56.56,0,0,0-.77-.14.55.55,0,0,0,.62.91A.56.56,0,0,0,173.9,159.71Z" fill="#003f2b"/></g><g id="change2_288"><path d="M172.72,158a.56.56,0,0,0-.77-.14.55.55,0,0,0,.63.91A.56.56,0,0,0,172.72,158Z" fill="#003f2b"/></g><g id="change2_289"><path d="M171.54,156.27a.55.55,0,0,0-.76-.14.55.55,0,1,0,.76.14Z" fill="#003f2b"/></g><g id="change2_290"><path d="M116,177a.55.55,0,0,0-.55.55.54.54,0,0,0,.55.55.55.55,0,0,0,.55-.55A.55.55,0,0,0,116,177Z" fill="#003f2b"/></g><g id="change2_291"><path d="M116,180.2a.55.55,0,0,0-.55.55.54.54,0,0,0,.55.55.55.55,0,0,0,.55-.55A.55.55,0,0,0,116,180.2Z" fill="#003f2b"/></g><g id="change2_292"><path d="M114.84,178.72a.55.55,0,0,0-.55.55.55.55,0,0,0,.55.55.54.54,0,0,0,.55-.55A.55.55,0,0,0,114.84,178.72Z" fill="#003f2b"/></g><g id="change2_293"><path d="M117.71,179.27a.55.55,0,0,0-.55-.55.55.55,0,0,0-.55.55.54.54,0,0,0,.55.55A.55.55,0,0,0,117.71,179.27Z" fill="#003f2b"/></g><g id="change2_294"><path d="M106.5,177.2a.55.55,0,0,0,.13.77.55.55,0,0,0,.63-.91A.55.55,0,0,0,106.5,177.2Z" fill="#003f2b"/></g><g id="change2_295"><path d="M107.69,175.49a.56.56,0,0,0,.14.77.55.55,0,0,0,.76-.14.54.54,0,0,0-.13-.76A.55.55,0,0,0,107.69,175.49Z" fill="#003f2b"/></g><g id="change2_296"><path d="M108.88,173.78a.56.56,0,0,0,.14.77.55.55,0,0,0,.76-.14.54.54,0,0,0-.13-.76A.56.56,0,0,0,108.88,173.78Z" fill="#003f2b"/></g><g id="change2_297"><path d="M110.08,172.08a.54.54,0,0,0,.13.76.55.55,0,0,0,.77-.13.56.56,0,0,0-.14-.77A.55.55,0,0,0,110.08,172.08Z" fill="#003f2b"/></g><g id="change2_298"><path d="M111.27,170.37a.55.55,0,0,0,.14.76.54.54,0,0,0,.76-.13.57.57,0,0,0-.13-.77A.56.56,0,0,0,111.27,170.37Z" fill="#003f2b"/></g><g id="change2_299"><path d="M112.46,168.66a.56.56,0,0,0,.14.77.55.55,0,0,0,.76-.14.54.54,0,0,0-.13-.76A.55.55,0,0,0,112.46,168.66Z" fill="#003f2b"/></g><g id="change2_300"><path d="M113.66,167a.55.55,0,0,0,.13.77.56.56,0,0,0,.77-.14.55.55,0,0,0-.14-.76A.54.54,0,0,0,113.66,167Z" fill="#003f2b"/></g><g id="change2_301"><path d="M117.55,166.75a.55.55,0,1,0,.76.15A.55.55,0,0,0,117.55,166.75Z" fill="#003f2b"/></g><g id="change2_302"><path d="M118.73,168.47a.55.55,0,1,0,.62.91.55.55,0,0,0,.14-.76A.54.54,0,0,0,118.73,168.47Z" fill="#003f2b"/></g><g id="change2_303"><path d="M120.67,170.33a.55.55,0,1,0-.14.77A.56.56,0,0,0,120.67,170.33Z" fill="#003f2b"/></g><g id="change2_304"><path d="M121.85,172.05a.56.56,0,0,0-.77-.14.55.55,0,0,0,.62.91A.56.56,0,0,0,121.85,172.05Z" fill="#003f2b"/></g><g id="change2_305"><path d="M123,173.77a.55.55,0,1,0-.9.62.55.55,0,0,0,.9-.62Z" fill="#003f2b"/></g><g id="change2_306"><path d="M124.2,175.49a.54.54,0,0,0-.76-.14.55.55,0,0,0-.15.76.56.56,0,0,0,.77.14A.55.55,0,0,0,124.2,175.49Z" fill="#003f2b"/></g><g id="change2_307"><path d="M124.47,177.83a.56.56,0,0,0,.77.14.55.55,0,0,0-.62-.91A.55.55,0,0,0,124.47,177.83Z" fill="#003f2b"/></g><g id="change2_308"><path d="M124.48,180.56a.55.55,0,0,0,.13.77.56.56,0,0,0,.77-.14.55.55,0,0,0-.14-.76A.54.54,0,0,0,124.48,180.56Z" fill="#003f2b"/></g><g id="change2_309"><path d="M123.28,182.27a.55.55,0,0,0,.14.76.54.54,0,0,0,.76-.13.55.55,0,0,0-.13-.77A.56.56,0,0,0,123.28,182.27Z" fill="#003f2b"/></g><g id="change2_310"><path d="M122.09,184a.55.55,0,0,0,.13.76.55.55,0,0,0,.77-.13.56.56,0,0,0-.14-.77A.55.55,0,0,0,122.09,184Z" fill="#003f2b"/></g><g id="change2_311"><path d="M120.9,185.68a.55.55,0,0,0,.13.77.56.56,0,0,0,.77-.14.55.55,0,0,0-.9-.63Z" fill="#003f2b"/></g><g id="change2_312"><path d="M119.7,187.39a.56.56,0,0,0,.14.77.55.55,0,0,0,.76-.14.54.54,0,0,0-.13-.76A.55.55,0,0,0,119.7,187.39Z" fill="#003f2b"/></g><g id="change2_313"><path d="M119.41,189.73a.55.55,0,1,0-.76.14A.55.55,0,0,0,119.41,189.73Z" fill="#003f2b"/></g><g id="change2_314"><path d="M117.32,190.81a.54.54,0,0,0,.13.76.55.55,0,0,0,.77-.13.56.56,0,0,0-.14-.77A.55.55,0,0,0,117.32,190.81Z" fill="#003f2b"/></g><g id="change2_315"><path d="M113.7,190.73a.55.55,0,0,0-.14.76.55.55,0,1,0,.14-.76Z" fill="#003f2b"/></g><g id="change2_316"><path d="M112.53,189a.55.55,0,1,0,.76.14A.55.55,0,0,0,112.53,189Z" fill="#003f2b"/></g><g id="change2_317"><path d="M111.35,187.29a.55.55,0,1,0,.76.15A.54.54,0,0,0,111.35,187.29Z" fill="#003f2b"/></g><g id="change2_318"><path d="M110.17,185.57a.56.56,0,0,0-.14.77.55.55,0,0,0,.91-.62A.56.56,0,0,0,110.17,185.57Z" fill="#003f2b"/></g><g id="change2_319"><path d="M109,183.86a.55.55,0,0,0-.14.76.55.55,0,0,0,.91-.62A.55.55,0,0,0,109,183.86Z" fill="#003f2b"/></g><g id="change2_320"><path d="M107.81,182.14a.55.55,0,0,0-.14.76.55.55,0,1,0,.14-.76Z" fill="#003f2b"/></g><g id="change2_321"><path d="M106.64,180.42a.55.55,0,0,0-.15.76.55.55,0,1,0,.91-.62A.55.55,0,0,0,106.64,180.42Z" fill="#003f2b"/></g><g id="change2_322"><path d="M142,177a.55.55,0,0,0-.55.55.55.55,0,0,0,1.1,0A.55.55,0,0,0,142,177Z" fill="#003f2b"/></g><g id="change2_323"><path d="M142,180.2a.55.55,0,0,0-.55.55.55.55,0,1,0,1.1,0A.55.55,0,0,0,142,180.2Z" fill="#003f2b"/></g><g id="change2_324"><path d="M140.79,178.72a.55.55,0,0,0-.55.55.55.55,0,0,0,.55.55.54.54,0,0,0,.55-.55A.55.55,0,0,0,140.79,178.72Z" fill="#003f2b"/></g><g id="change2_325"><path d="M143.66,179.27a.55.55,0,0,0-.55-.55.55.55,0,0,0-.55.55.54.54,0,0,0,.55.55A.55.55,0,0,0,143.66,179.27Z" fill="#003f2b"/></g><g id="change2_326"><path d="M133.21,177.06a.55.55,0,0,0-.76.14.57.57,0,0,0,.13.77.55.55,0,0,0,.63-.91Z" fill="#003f2b"/></g><g id="change2_327"><path d="M134.41,175.36a.55.55,0,0,0-.77.13.56.56,0,0,0,.14.77.55.55,0,0,0,.76-.14A.54.54,0,0,0,134.41,175.36Z" fill="#003f2b"/></g><g id="change2_328"><path d="M135.6,173.65a.55.55,0,0,0-.63.9.56.56,0,0,0,.77-.14A.55.55,0,0,0,135.6,173.65Z" fill="#003f2b"/></g><g id="change2_329"><path d="M136,172.08a.55.55,0,0,0,.9.63.56.56,0,0,0-.14-.77A.55.55,0,0,0,136,172.08Z" fill="#003f2b"/></g><g id="change2_330"><path d="M137.22,170.37a.55.55,0,0,0,.14.76.54.54,0,0,0,.76-.13.55.55,0,0,0-.13-.77A.56.56,0,0,0,137.22,170.37Z" fill="#003f2b"/></g><g id="change2_331"><path d="M138.41,168.66a.55.55,0,1,0,.91.63.55.55,0,0,0-.91-.63Z" fill="#003f2b"/></g><g id="change2_332"><path d="M139.61,167a.55.55,0,0,0,.13.77.56.56,0,0,0,.77-.14.55.55,0,0,0-.14-.76A.54.54,0,0,0,139.61,167Z" fill="#003f2b"/></g><g id="change2_333"><path d="M143.5,166.75a.56.56,0,0,0-.14.77.55.55,0,0,0,.76.14.54.54,0,0,0,.14-.76A.55.55,0,0,0,143.5,166.75Z" fill="#003f2b"/></g><g id="change2_334"><path d="M144.68,168.47a.55.55,0,1,0,.76.15A.54.54,0,0,0,144.68,168.47Z" fill="#003f2b"/></g><g id="change2_335"><path d="M146.62,170.33a.55.55,0,0,0-.76-.14.55.55,0,1,0,.76.14Z" fill="#003f2b"/></g><g id="change2_336"><path d="M147.8,172.05a.56.56,0,0,0-.77-.14.55.55,0,0,0-.14.76.55.55,0,1,0,.91-.62Z" fill="#003f2b"/></g><g id="change2_337"><path d="M149,173.77a.56.56,0,0,0-.77-.14.55.55,0,0,0-.14.76.54.54,0,0,0,.76.14A.55.55,0,0,0,149,173.77Z" fill="#003f2b"/></g><g id="change2_338"><path d="M150.15,175.49a.55.55,0,0,0-.9.62.55.55,0,0,0,.9-.62Z" fill="#003f2b"/></g><g id="change2_339"><path d="M150.42,177.83a.56.56,0,0,0,.77.14.55.55,0,0,0-.62-.91A.56.56,0,0,0,150.42,177.83Z" fill="#003f2b"/></g><g id="change2_340"><path d="M151.33,181.19a.55.55,0,0,0-.14-.76.54.54,0,0,0-.76.13.55.55,0,0,0,.13.77A.56.56,0,0,0,151.33,181.19Z" fill="#003f2b"/></g><g id="change2_341"><path d="M149.23,182.27a.55.55,0,0,0,.91.63.55.55,0,0,0-.91-.63Z" fill="#003f2b"/></g><g id="change2_342"><path d="M148,184a.55.55,0,0,0,.14.76.54.54,0,0,0,.76-.13.55.55,0,0,0-.13-.77A.56.56,0,0,0,148,184Z" fill="#003f2b"/></g><g id="change2_343"><path d="M146.85,185.68a.55.55,0,1,0,.9.63.55.55,0,0,0-.9-.63Z" fill="#003f2b"/></g><g id="change2_344"><path d="M145.65,187.39a.55.55,0,0,0,.91.63.55.55,0,0,0-.91-.63Z" fill="#003f2b"/></g><g id="change2_345"><path d="M145.36,189.73a.55.55,0,0,0-.13-.77.55.55,0,1,0-.63.91A.55.55,0,0,0,145.36,189.73Z" fill="#003f2b"/></g><g id="change2_346"><path d="M143.27,190.81a.55.55,0,0,0,.13.76.55.55,0,0,0,.77-.13.56.56,0,0,0-.14-.77A.55.55,0,0,0,143.27,190.81Z" fill="#003f2b"/></g><g id="change2_347"><path d="M139.66,190.73a.54.54,0,0,0-.15.76.55.55,0,1,0,.91-.62A.55.55,0,0,0,139.66,190.73Z" fill="#003f2b"/></g><g id="change2_348"><path d="M138.48,189a.55.55,0,0,0,.62.91.56.56,0,0,0,.14-.77A.55.55,0,0,0,138.48,189Z" fill="#003f2b"/></g><g id="change2_349"><path d="M137.3,187.29a.56.56,0,0,0-.14.77.55.55,0,0,0,.76.14.55.55,0,0,0-.62-.91Z" fill="#003f2b"/></g><g id="change2_350"><path d="M136.89,185.72a.55.55,0,1,0-.91.62.55.55,0,0,0,.91-.62Z" fill="#003f2b"/></g><g id="change2_351"><path d="M134.94,183.86a.55.55,0,1,0,.77.14A.55.55,0,0,0,134.94,183.86Z" fill="#003f2b"/></g><g id="change2_352"><path d="M133.77,182.14a.55.55,0,0,0-.15.76.55.55,0,1,0,.91-.62A.55.55,0,0,0,133.77,182.14Z" fill="#003f2b"/></g><g id="change2_353"><path d="M132.59,180.42a.54.54,0,0,0-.14.76.55.55,0,1,0,.14-.76Z" fill="#003f2b"/></g><g id="change2_354"><path d="M167.93,177a.55.55,0,0,0-.55.55.55.55,0,0,0,.55.55.54.54,0,0,0,.55-.55A.55.55,0,0,0,167.93,177Z" fill="#003f2b"/></g><g id="change2_355"><path d="M167.93,180.2a.55.55,0,0,0-.55.55.55.55,0,0,0,.55.55.54.54,0,0,0,.55-.55A.55.55,0,0,0,167.93,180.2Z" fill="#003f2b"/></g><g id="change2_356"><path d="M166.75,178.72a.55.55,0,0,0-.55.55.55.55,0,1,0,.55-.55Z" fill="#003f2b"/></g><g id="change2_357"><path d="M169.61,179.27a.55.55,0,0,0-1.1,0,.55.55,0,0,0,1.1,0Z" fill="#003f2b"/></g><g id="change2_358"><path d="M159.17,177.06a.55.55,0,1,0-.63.91.55.55,0,0,0,.63-.91Z" fill="#003f2b"/></g><g id="change2_359"><path d="M160.36,175.36a.55.55,0,0,0-.77.13.55.55,0,1,0,.91.63A.55.55,0,0,0,160.36,175.36Z" fill="#003f2b"/></g><g id="change2_360"><path d="M161.55,173.65a.55.55,0,0,0-.63.9.56.56,0,0,0,.77-.14A.55.55,0,0,0,161.55,173.65Z" fill="#003f2b"/></g><g id="change2_361"><path d="M162,172.08a.55.55,0,0,0,.14.76.54.54,0,0,0,.76-.13.55.55,0,1,0-.9-.63Z" fill="#003f2b"/></g><g id="change2_362"><path d="M163.17,170.37a.55.55,0,0,0,.14.76.54.54,0,0,0,.76-.13.55.55,0,0,0-.13-.77A.56.56,0,0,0,163.17,170.37Z" fill="#003f2b"/></g><g id="change2_363"><path d="M164.37,168.66a.55.55,0,0,0,.13.77.56.56,0,0,0,.77-.14.55.55,0,0,0-.14-.76A.54.54,0,0,0,164.37,168.66Z" fill="#003f2b"/></g><g id="change2_364"><path d="M165.56,167a.55.55,0,1,0,.9.63.55.55,0,0,0-.14-.76A.54.54,0,0,0,165.56,167Z" fill="#003f2b"/></g><g id="change2_365"><path d="M169.45,166.75a.56.56,0,0,0-.14.77.55.55,0,0,0,.91-.62A.56.56,0,0,0,169.45,166.75Z" fill="#003f2b"/></g><g id="change2_366"><path d="M170.63,168.47a.56.56,0,0,0-.14.77.55.55,0,0,0,.76.14.55.55,0,0,0-.62-.91Z" fill="#003f2b"/></g><g id="change2_367"><path d="M172.57,170.33a.55.55,0,0,0-.76-.14.55.55,0,1,0,.76.14Z" fill="#003f2b"/></g><g id="change2_368"><path d="M173.75,172.05a.55.55,0,0,0-.91.62.55.55,0,1,0,.91-.62Z" fill="#003f2b"/></g><g id="change2_369"><path d="M174.93,173.77a.56.56,0,0,0-.77-.14.55.55,0,0,0-.14.76.55.55,0,0,0,.91-.62Z" fill="#003f2b"/></g><g id="change2_370"><path d="M176.11,175.49a.55.55,0,1,0-.15.76A.55.55,0,0,0,176.11,175.49Z" fill="#003f2b"/></g><g id="change2_371"><path d="M176.38,177.83a.55.55,0,1,0,.14-.77A.55.55,0,0,0,176.38,177.83Z" fill="#003f2b"/></g><g id="change2_372"><path d="M177.28,181.19a.55.55,0,0,0-.14-.76.54.54,0,0,0-.76.13.55.55,0,1,0,.9.63Z" fill="#003f2b"/></g><g id="change2_373"><path d="M175.19,182.27a.54.54,0,0,0,.13.76.55.55,0,0,0,.77-.13.56.56,0,0,0-.14-.77A.55.55,0,0,0,175.19,182.27Z" fill="#003f2b"/></g><g id="change2_374"><path d="M174,184a.55.55,0,0,0,.14.76.54.54,0,0,0,.76-.13.55.55,0,0,0-.13-.77A.56.56,0,0,0,174,184Z" fill="#003f2b"/></g><g id="change2_375"><path d="M172.8,185.68a.56.56,0,0,0,.14.77.55.55,0,0,0,.63-.9A.56.56,0,0,0,172.8,185.68Z" fill="#003f2b"/></g><g id="change2_376"><path d="M171.61,187.39a.55.55,0,0,0,.13.77.56.56,0,0,0,.77-.14.55.55,0,0,0-.14-.76A.54.54,0,0,0,171.61,187.39Z" fill="#003f2b"/></g><g id="change2_377"><path d="M171.32,189.73a.55.55,0,1,0-.77.14A.56.56,0,0,0,171.32,189.73Z" fill="#003f2b"/></g><g id="change2_378"><path d="M169.22,190.81a.55.55,0,0,0,.14.76.54.54,0,0,0,.76-.13.55.55,0,0,0-.13-.77A.56.56,0,0,0,169.22,190.81Z" fill="#003f2b"/></g><g id="change2_379"><path d="M165.61,190.73a.55.55,0,0,0-.15.76.55.55,0,1,0,.91-.62A.55.55,0,0,0,165.61,190.73Z" fill="#003f2b"/></g><g id="change2_380"><path d="M164.43,189a.55.55,0,1,0,.76.14A.55.55,0,0,0,164.43,189Z" fill="#003f2b"/></g><g id="change2_381"><path d="M163.25,187.29a.56.56,0,0,0-.14.77.55.55,0,0,0,.91-.62A.55.55,0,0,0,163.25,187.29Z" fill="#003f2b"/></g><g id="change2_382"><path d="M162.84,185.72a.55.55,0,1,0-.14.76A.55.55,0,0,0,162.84,185.72Z" fill="#003f2b"/></g><g id="change2_383"><path d="M160.9,183.86a.55.55,0,1,0,.76.14A.54.54,0,0,0,160.9,183.86Z" fill="#003f2b"/></g><g id="change2_384"><path d="M159.72,182.14a.54.54,0,0,0-.14.76.55.55,0,0,0,.76.15.56.56,0,0,0,.14-.77A.55.55,0,0,0,159.72,182.14Z" fill="#003f2b"/></g><g id="change2_385"><path d="M158.54,180.42a.55.55,0,0,0,.62.91.55.55,0,1,0-.62-.91Z" fill="#003f2b"/></g><g id="change2_386"><path d="M128.26,201.47a.55.55,0,0,0-.55.55.55.55,0,0,0,.55.55.55.55,0,0,0,.55-.55A.54.54,0,0,0,128.26,201.47Z" fill="#003f2b"/></g><g id="change2_387"><path d="M128.26,204.67a.55.55,0,1,0,0,1.1.55.55,0,0,0,0-1.1Z" fill="#003f2b"/></g><g id="change2_388"><path d="M127.08,203.19a.54.54,0,0,0-.55.55.55.55,0,0,0,.55.55.55.55,0,0,0,.55-.55A.55.55,0,0,0,127.08,203.19Z" fill="#003f2b"/></g><g id="change2_389"><path d="M129.39,203.19a.55.55,0,0,0-.55.55.55.55,0,1,0,1.1,0A.55.55,0,0,0,129.39,203.19Z" fill="#003f2b"/></g><g id="change2_390"><path d="M118.73,201.66a.56.56,0,0,0,.14.77.55.55,0,0,0,.76-.14.54.54,0,0,0-.13-.76A.56.56,0,0,0,118.73,201.66Z" fill="#003f2b"/></g><g id="change2_391"><path d="M119.93,200a.54.54,0,0,0,.13.76.55.55,0,0,0,.77-.13.56.56,0,0,0-.14-.77A.55.55,0,0,0,119.93,200Z" fill="#003f2b"/></g><g id="change2_392"><path d="M121.12,198.25a.55.55,0,0,0,.9.63.56.56,0,0,0-.14-.77A.55.55,0,0,0,121.12,198.25Z" fill="#003f2b"/></g><g id="change2_393"><path d="M122.31,196.54a.56.56,0,0,0,.14.77.55.55,0,0,0,.76-.14.54.54,0,0,0-.13-.76A.55.55,0,0,0,122.31,196.54Z" fill="#003f2b"/></g><g id="change2_394"><path d="M123.5,194.83a.55.55,0,1,0,.91.63.55.55,0,0,0-.91-.63Z" fill="#003f2b"/></g><g id="change2_395"><path d="M124.7,193.13a.54.54,0,0,0,.13.76.55.55,0,1,0,.63-.9A.55.55,0,0,0,124.7,193.13Z" fill="#003f2b"/></g><g id="change2_396"><path d="M126.66,191.28a.56.56,0,0,0-.77.14.55.55,0,0,0,.14.76.54.54,0,0,0,.76-.13A.55.55,0,0,0,126.66,191.28Z" fill="#003f2b"/></g><g id="change2_397"><path d="M129.78,191.22a.55.55,0,0,0-.14.76.55.55,0,1,0,.14-.76Z" fill="#003f2b"/></g><g id="change2_398"><path d="M131,192.94a.55.55,0,0,0-.14.76.54.54,0,0,0,.76.14.55.55,0,0,0,.15-.76A.56.56,0,0,0,131,192.94Z" fill="#003f2b"/></g><g id="change2_399"><path d="M132.14,194.66a.55.55,0,1,0,.62.9.55.55,0,1,0-.62-.9Z" fill="#003f2b"/></g><g id="change2_400"><path d="M133.32,196.37a.55.55,0,1,0,.62.91.55.55,0,0,0-.62-.91Z" fill="#003f2b"/></g><g id="change2_401"><path d="M134.49,198.09a.55.55,0,1,0,.77.14A.56.56,0,0,0,134.49,198.09Z" fill="#003f2b"/></g><g id="change2_402"><path d="M135.67,199.81a.55.55,0,0,0,.62.91.55.55,0,1,0-.62-.91Z" fill="#003f2b"/></g><g id="change2_403"><path d="M137.47,202.44a.55.55,0,1,0-.76-.15A.55.55,0,0,0,137.47,202.44Z" fill="#003f2b"/></g><g id="change2_404"><path d="M136.71,205a.55.55,0,1,0,.77-.14A.56.56,0,0,0,136.71,205Z" fill="#003f2b"/></g><g id="change2_405"><path d="M135.52,206.73a.55.55,0,0,0,.13.77.56.56,0,0,0,.77-.14.55.55,0,0,0-.14-.76A.54.54,0,0,0,135.52,206.73Z" fill="#003f2b"/></g><g id="change2_406"><path d="M134.32,208.44a.55.55,0,1,0,.77-.14A.56.56,0,0,0,134.32,208.44Z" fill="#003f2b"/></g><g id="change2_407"><path d="M133.13,210.15a.55.55,0,0,0,.14.76.54.54,0,0,0,.76-.13.55.55,0,0,0-.13-.77A.56.56,0,0,0,133.13,210.15Z" fill="#003f2b"/></g><g id="change2_408"><path d="M131.94,211.86a.54.54,0,0,0,.13.76.55.55,0,1,0,.63-.9A.55.55,0,0,0,131.94,211.86Z" fill="#003f2b"/></g><g id="change2_409"><path d="M154.22,201.47a.54.54,0,0,0-.55.55.55.55,0,1,0,1.09,0A.54.54,0,0,0,154.22,201.47Z" fill="#003f2b"/></g><g id="change2_410"><path d="M154.22,204.67a.55.55,0,1,0,.54.55A.55.55,0,0,0,154.22,204.67Z" fill="#003f2b"/></g><g id="change2_411"><path d="M153,203.19a.55.55,0,0,0-.55.55.55.55,0,0,0,1.1,0A.55.55,0,0,0,153,203.19Z" fill="#003f2b"/></g><g id="change2_412"><path d="M155.89,203.74a.54.54,0,0,0-.55-.55.55.55,0,0,0-.55.55.55.55,0,0,0,.55.55A.55.55,0,0,0,155.89,203.74Z" fill="#003f2b"/></g><g id="change2_413"><path d="M144.68,201.66a.55.55,0,1,0,.91.63.55.55,0,0,0-.14-.76A.56.56,0,0,0,144.68,201.66Z" fill="#003f2b"/></g><g id="change2_414"><path d="M145.88,200a.54.54,0,0,0,.13.76.55.55,0,0,0,.77-.13.56.56,0,0,0-.14-.77A.55.55,0,0,0,145.88,200Z" fill="#003f2b"/></g><g id="change2_415"><path d="M147.07,198.25a.55.55,0,0,0,.14.76.54.54,0,0,0,.76-.13.55.55,0,0,0-.13-.77A.56.56,0,0,0,147.07,198.25Z" fill="#003f2b"/></g><g id="change2_416"><path d="M148.26,196.54a.55.55,0,1,0,.91.63.55.55,0,0,0-.91-.63Z" fill="#003f2b"/></g><g id="change2_417"><path d="M149.46,194.83a.55.55,0,0,0,.13.77.56.56,0,0,0,.77-.14.55.55,0,0,0-.14-.76A.54.54,0,0,0,149.46,194.83Z" fill="#003f2b"/></g><g id="change2_418"><path d="M150.65,193.13a.55.55,0,0,0,.9.63.56.56,0,0,0-.14-.77A.55.55,0,0,0,150.65,193.13Z" fill="#003f2b"/></g><g id="change2_419"><path d="M151.84,191.42a.55.55,0,0,0,.14.76.54.54,0,0,0,.76-.13.55.55,0,0,0-.13-.77A.56.56,0,0,0,151.84,191.42Z" fill="#003f2b"/></g><g id="change2_420"><path d="M155.74,191.22a.55.55,0,0,0-.15.76.55.55,0,1,0,.91-.62A.55.55,0,0,0,155.74,191.22Z" fill="#003f2b"/></g><g id="change2_421"><path d="M156.91,192.94a.55.55,0,1,0,.77.14A.56.56,0,0,0,156.91,192.94Z" fill="#003f2b"/></g><g id="change2_422"><path d="M158.09,194.66a.55.55,0,1,0,.77.14A.55.55,0,0,0,158.09,194.66Z" fill="#003f2b"/></g><g id="change2_423"><path d="M159.27,196.37a.55.55,0,1,0,.76.15A.55.55,0,0,0,159.27,196.37Z" fill="#003f2b"/></g><g id="change2_424"><path d="M160.45,198.09a.55.55,0,1,0,.76.14A.55.55,0,0,0,160.45,198.09Z" fill="#003f2b"/></g><g id="change2_425"><path d="M161.62,199.81a.55.55,0,0,0-.14.76.55.55,0,1,0,.14-.76Z" fill="#003f2b"/></g><g id="change2_426"><path d="M163.42,202.44a.55.55,0,1,0-.62-.91.55.55,0,0,0,.62.91Z" fill="#003f2b"/></g><g id="change2_427"><path d="M162.66,205a.55.55,0,1,0,.77-.14A.56.56,0,0,0,162.66,205Z" fill="#003f2b"/></g><g id="change2_428"><path d="M161.47,206.73a.57.57,0,0,0,.13.77.56.56,0,0,0,.77-.14.55.55,0,0,0-.14-.76A.54.54,0,0,0,161.47,206.73Z" fill="#003f2b"/></g><g id="change2_429"><path d="M160.28,208.44a.55.55,0,0,0,.13.77.55.55,0,0,0,.63-.91A.55.55,0,0,0,160.28,208.44Z" fill="#003f2b"/></g><g id="change2_430"><path d="M159.08,210.15a.55.55,0,0,0,.14.76.54.54,0,0,0,.76-.13.55.55,0,0,0-.13-.77A.56.56,0,0,0,159.08,210.15Z" fill="#003f2b"/></g><g id="change2_431"><path d="M157.89,211.86a.55.55,0,0,0,.9.63.55.55,0,1,0-.9-.63Z" fill="#003f2b"/></g><g id="change2_432"><path d="M156.7,213.56a.55.55,0,0,0,.13.77.56.56,0,0,0,.77-.14.55.55,0,0,0-.9-.63Z" fill="#003f2b"/></g><g id="change2_433"><path d="M155.5,215.27a.55.55,0,1,0,.91.63.55.55,0,0,0-.91-.63Z" fill="#003f2b"/></g><g id="change2_434"><path d="M151.89,215.19a.56.56,0,0,0-.14.77.55.55,0,0,0,.91-.62A.56.56,0,0,0,151.89,215.19Z" fill="#003f2b"/></g><g id="change2_435"><path d="M150.71,213.48a.55.55,0,0,0,.62.9.54.54,0,0,0,.15-.76A.55.55,0,0,0,150.71,213.48Z" fill="#003f2b"/></g><g id="change2_436"><path d="M149.54,211.76a.54.54,0,0,0-.15.76.55.55,0,1,0,.15-.76Z" fill="#003f2b"/></g><g id="change2_437"><path d="M148.36,210a.55.55,0,0,0-.15.76.55.55,0,1,0,.91-.62A.55.55,0,0,0,148.36,210Z" fill="#003f2b"/></g><g id="change2_438"><path d="M147.18,208.32a.56.56,0,0,0-.14.77.55.55,0,1,0,.14-.77Z" fill="#003f2b"/></g><g id="change2_439"><path d="M146,206.6a.56.56,0,0,0-.14.77.55.55,0,0,0,.76.14.55.55,0,1,0-.62-.91Z" fill="#003f2b"/></g><g id="change2_440"><path d="M144.82,204.88a.55.55,0,1,0,.63.91.55.55,0,0,0,.14-.76A.56.56,0,0,0,144.82,204.88Z" fill="#003f2b"/></g><g id="change2_441"><path d="M179,203.19a.55.55,0,0,0-.55.55.55.55,0,1,0,1.1,0A.55.55,0,0,0,179,203.19Z" fill="#003f2b"/></g><g id="change2_442"><path d="M170.64,201.66a.55.55,0,0,0,.13.77.56.56,0,0,0,.77-.14.55.55,0,0,0-.9-.63Z" fill="#003f2b"/></g><g id="change2_443"><path d="M171.83,200a.55.55,0,0,0,.14.76.54.54,0,0,0,.76-.13.57.57,0,0,0-.13-.77A.56.56,0,0,0,171.83,200Z" fill="#003f2b"/></g><g id="change2_444"><path d="M173,198.25a.55.55,0,0,0,.14.76.54.54,0,0,0,.76-.13.55.55,0,0,0-.13-.77A.56.56,0,0,0,173,198.25Z" fill="#003f2b"/></g><g id="change2_445"><path d="M174.22,196.54a.55.55,0,0,0,.13.77.56.56,0,0,0,.77-.14.55.55,0,0,0-.14-.76A.54.54,0,0,0,174.22,196.54Z" fill="#003f2b"/></g><g id="change2_446"><path d="M175.41,194.83a.55.55,0,1,0,.9.63.55.55,0,0,0-.14-.76A.54.54,0,0,0,175.41,194.83Z" fill="#003f2b"/></g><g id="change2_447"><path d="M176.6,193.13a.55.55,0,1,0,.77-.14A.56.56,0,0,0,176.6,193.13Z" fill="#003f2b"/></g><g id="change2_448"><path d="M178.56,191.28a.56.56,0,0,0-.77.14.55.55,0,0,0,.91.63A.56.56,0,0,0,178.56,191.28Z" fill="#003f2b"/></g><g id="change2_449"><path d="M176.66,213.48a.55.55,0,0,0-.14.76.56.56,0,0,0,.77.14.55.55,0,1,0-.63-.9Z" fill="#003f2b"/></g><g id="change2_450"><path d="M175.49,211.76a.55.55,0,1,0,.76.14A.55.55,0,0,0,175.49,211.76Z" fill="#003f2b"/></g><g id="change2_451"><path d="M174.31,210a.54.54,0,0,0-.14.76.55.55,0,1,0,.14-.76Z" fill="#003f2b"/></g><g id="change2_452"><path d="M173.13,208.32a.56.56,0,0,0-.14.77.55.55,0,0,0,.76.14.55.55,0,1,0-.62-.91Z" fill="#003f2b"/></g><g id="change2_453"><path d="M172,206.6a.55.55,0,1,0,.77.14A.56.56,0,0,0,172,206.6Z" fill="#003f2b"/></g><g id="change2_454"><path d="M170.78,204.88a.55.55,0,1,0,.62.91.55.55,0,0,0-.62-.91Z" fill="#003f2b"/></g><g id="change1_5"><path d="M77.87,148.18a.74.74,0,0,1-.74-.7c-1-17.09-6.28-21.36-6.34-21.4a.75.75,0,0,1-.14-1,.75.75,0,0,1,1-.14c.23.18,5.87,4.57,6.92,22.5a.75.75,0,0,1-.7.78Z" fill="#2d1c22"/></g><g id="change1_6"><path d="M69.76,137.21a.57.57,0,0,1-.22,0,.74.74,0,0,1-.49-.92c.58-1.87,1.54-3,2.85-3.49a5.34,5.34,0,0,1,4.31.81.74.74,0,0,1-.85,1.22,3.85,3.85,0,0,0-3-.62,3.48,3.48,0,0,0-1.91,2.51A.75.75,0,0,1,69.76,137.21Z" fill="#2d1c22"/></g><g id="change1_7"><path d="M235.76,148.18h0a.74.74,0,0,1-.7-.78c1-17.93,6.68-22.32,6.92-22.5a.74.74,0,1,1,.89,1.18c-.08.06-5.34,4.35-6.33,21.4A.74.74,0,0,1,235.76,148.18Z" fill="#2d1c22"/></g><g id="change1_8"><path d="M243.87,137.21a.75.75,0,0,1-.71-.53,3.45,3.45,0,0,0-1.92-2.51,3.89,3.89,0,0,0-3,.62.75.75,0,0,1-.86-1.22,5.39,5.39,0,0,1,4.31-.81c1.32.45,2.28,1.62,2.86,3.49a.74.74,0,0,1-.49.92A.6.6,0,0,1,243.87,137.21Z" fill="#2d1c22"/></g></g><g data-name="Layer 2"><g id="change1_10"><path d="M110,100.75a16.82,16.82,0,0,1,5.95-7.1,20.52,20.52,0,0,1,8.76-3.5,19.82,19.82,0,0,1,9.44.72,18.64,18.64,0,0,1,4.23,1.93,12.44,12.44,0,0,1,1.86,1.38,19.15,19.15,0,0,1,1.67,1.58,1.11,1.11,0,0,1-.07,1.56,1.08,1.08,0,0,1-.68.28H141c-1.52.09-2.85-.09-4.18-.11s-2.58-.16-3.83-.06a42.07,42.07,0,0,0-7.08.52,45.56,45.56,0,0,0-7,1.59c-2.38.69-4.83,1.63-7.5,2.55l-.15.05a1,1,0,0,1-1.33-.65A1,1,0,0,1,110,100.75Zm96,2.75a1,1,0,0,0,.75,0,1,1,0,0,0,.55-1.37,16.69,16.69,0,0,0-6-7.1,20.48,20.48,0,0,0-8.76-3.51,20.08,20.08,0,0,0-9.44.72,18.87,18.87,0,0,0-4.23,1.94A11.12,11.12,0,0,0,177,95.53a17.83,17.83,0,0,0-1.68,1.57,1.11,1.11,0,0,0,.76,1.85h.13c1.53.09,2.86-.09,4.19-.12s2.58-.15,3.82,0a43.07,43.07,0,0,1,7.08.51,46.61,46.61,0,0,1,7,1.59c2.38.7,4.83,1.63,7.49,2.55Zm-69.55,11.08c-6.64-2.58-13.5-2.41-18.3,2.27l-4.85,0,5.44,3.25a18,18,0,0,1,5.61-3.15h0a19.18,19.18,0,0,1,7-.89c8.52.45,11.87,4.89,11.87,4.89S140.83,116.3,136.42,114.58Z" fill="#2d1c22"/></g><g id="change3_5"><path d="M177.47,117.41s12.07-11.31,24,1.89C201.47,119.3,191.15,129.1,177.47,117.41Z" fill="#bd7450"/></g><g clip-path="url(#a)" id="change1_9"><path d="M197.5,118.4A7,7,0,1,1,190,112,7,7,0,0,1,197.5,118.4Z" fill="#2d1c22"/></g><g id="change1_11"><path d="M201.47,120.3a1,1,0,0,1-.65-.24c-.25-.22-.56-.51-.91-.84-3.37-3.18-10.39-9.81-21.83-1a1,1,0,1,1-1.22-1.58c12.8-9.83,21.25-1.86,24.43,1.15.32.3.6.57.83.77a1,1,0,0,1,.11,1.41A1,1,0,0,1,201.47,120.3Z" fill="#2d1c22"/></g><g id="change1_12"><path d="M198.08,117.54l9.66-1.47a.4.4,0,0,1,.26.74l-6.73,3.72Z" fill="#2d1c22"/></g></g></svg>