<?xml version="1.0" encoding="UTF-8"?><svg xmlns="http://www.w3.org/2000/svg" xmlns:xlink="http://www.w3.org/1999/xlink" height="486.9" preserveAspectRatio="xMidYMid meet" version="1.0" viewBox="-0.3 -2.5 307.4 486.9" width="307.4" zoomAndPan="magnify"><g id="change1_1"><path d="M305.21,195.61c-0.92-1.69-2.18-3.17-3.1-4.87c-0.9-1.66-1.68-3.39-2.59-5.05 c-3.78-6.89-10.62-10.69-17.51-13.89c-0.04-2.14-0.01-4.66-1.32-6.28c-1.78-2.17-5.16-1.95-7.65-1.55c-2.5,0.39-4.91,1.41-7.11,2.64 c-2.24,1.26-4.21,2.99-6.46,4.23c-4.89,2.71-10.32,4.52-14.97,7.67c-2.14,1.45-3.28,3.46-3.96,5.92c-0.77,2.78-1.43,5.59-2.06,8.41 c-1.4,6.25-2.51,12.56-3.36,18.91c-16.56,18.49-32.86,37.21-50.77,54.44c-0.45,0.44-0.91,0.87-1.36,1.29 c-0.27,0.25-0.54,0.5-0.8,0.75l-0.14-0.44c-1.06-3.21-2.72-6.26-4.34-9.11l-0.73-1.27c-2.36-4.13-4.81-8.4-5.77-13.18l-0.17-0.85 l0.82-0.29c0.54-0.19,0.57-0.52,0.57-0.57l0.01-1.01h0.51c3.56-5.58,3.85-13.19,0.7-19.02c-0.17-0.31-0.35-0.62-0.52-0.93 l-0.05-0.09c-0.46-0.81-0.9-1.58-1.21-2.45l-0.3-0.84l0.46-0.23c-0.06-0.13-0.17-0.28-0.33-0.46l-0.23-0.26l-0.02-0.34 c-0.12-2.17,0.67-4.35,1.45-6.48c0.74-2.07,1.51-4.21,1.45-6.35c-0.14-4.36-3.62-7.56-5.68-9.09c-0.35-0.26-0.71-0.5-1.07-0.74 c1.57-6.12,3.47-12.15,5.72-18.06l0.01,0c5.63,2.11,11.07,3.13,16.62,3.13c1.68,0,3.45-0.1,5.28-0.3c4.57-0.52,9.25-2.03,13.82-4.43 c13.97-6.93,23.88-19.19,29.83-28.51c0.36-0.56,0.71-1.13,1.06-1.71c1.75-2.92,2.93-5.44,3.7-7.91c0.31-1.01,0.56-2.04,0.77-3.06 c3.52-1.29,6.55-3.84,8.56-7.22c4.43-7.45,2.66-16.72-3.95-20.67c-0.54-0.32-1.14-0.6-1.82-0.87c0.26-2.16,0.56-4.32,0.94-6.45 c0.1-0.55,0.21-1.09,0.32-1.63c0.67-0.61,1.32-1.23,1.94-1.87c6.45-6.7,10.15-16.52,10.15-26.95c0-0.78-0.02-1.57-0.06-2.35 c-0.51-9.75-4-19.8-10.39-29.85c-1.25-1.97-2.97-4.52-5.13-6.75l-1-1.03l1.31-0.58c1.48-0.66,2.93-1.47,4.3-2.43 c0.88-0.61,1.27-1.2,1.17-1.75c-0.13-0.68-1.03-1.04-1.46-1.21c-4.9-1.96-10.04-3.27-15.02-4.55c-6.39-1.64-13.01-3.34-19.04-6.33 C201.84,4.23,188.85,1,175.5,1c-6.56,0-13.29,0.81-20,2.42c-2.66,0.64-5.68,0.73-8.29,0.73c-0.81,0-1.63-0.01-2.44-0.02 c-0.81-0.01-1.63-0.02-2.45-0.02c-1.54,0-3.56,0.03-5.44,0.25c-13.7,1.64-28.7,11.14-38.2,24.21c-0.22,0.3-1.03,1.86-1.75,3.23 c-0.91,1.76-1.44,2.74-1.75,3.29l0.23,0.23l0.01,0.07c1.24-0.2,2.46-0.56,3.62-1.08l1.2,1.52c-1.8,2.35-4.11,5.49-5.98,8.96 c-4.38,8.17-6.26,18.07-5.44,28.65c0.69,8.87,3.23,18.17,7.76,28.43c3.59,8.11,7.27,14.09,11.6,18.82c1.27,1.4,2.81,2.85,4.7,3.1 c0.51-1.01,0.83-2.15,0.9-3.31l0.2-2.98l1.63,2.5c1.89,2.88,4.24,5.48,6.97,7.74c-0.15,0.32-0.29,0.63-0.44,0.95 c-2.41,4.98-5.65,9.54-9.54,13.46c-0.46-0.21-0.9-0.38-1.33-0.5c-0.71-0.19-1.45-0.29-2.18-0.29c-3.45,0-6.76,2.14-9.98,4.21 l-0.26,0.17c-1.5,0.96-3.06,1.95-4.62,2.71l-0.55,0.27l-0.49-0.37c-1.52-1.14-3.04-1.72-4.52-1.72c-0.36,0-0.72,0.03-1.07,0.1 c-1.96,0.37-3.55,1.73-5.11,3.04l-0.61,0.51c-4.03,3.35-8.8,5.94-13.77,7.48c-1.13,0.36-2.31,0.67-3.45,0.97l-0.58,0.15 c-4.77,1.25-9.69,2.54-12.77,6.26c-1.64,2-2.53,4.57-2.83,5.42c-1.52,4.36-2.22,9.11-2.02,13.74c0.01,0.33,0.04,0.62,0.07,0.91 l0.05,0.48l-0.35,0.34c-0.6,0.58-1.14,1.49-1.61,2.29c-0.22,0.38-0.43,0.73-0.64,1.05c-0.97,1.47-1.94,2.94-2.89,4.42 c-1.93,2.98-3.82,5.96-5.6,8.87c-3.9,6.37-7.25,12.25-10.26,17.95c-7,13.32-12.14,25.76-15.72,38.04 c-3.59,12.33-5.85,25.8-7.35,43.67c-1.25,14.97-1.5,30.5-0.73,46.17c1.4,28.38,6.07,58.23,14.29,91.24c1.02,4.1,1.99,7.83,2.95,11.4 c0.09,0.34,0.18,0.68,0.26,1.02c0.53,2.08,1.03,4.05,2.31,5.66c2.87,3.62,7.31,5.98,11.25,7.91c8.01,3.91,17.47,7.23,28.91,10.15 c14.48,3.68,29.05,5.55,43.32,5.55c10.9,0,21.57-1.11,31.7-3.29c12.69-2.73,24.32-7.17,34.57-13.2c6.64-3.91,11.26-7.43,14.98-11.41 c2.3-2.47,4.21-5,5.67-7.53c0.78-1.36,1.44-2.66,2-3.96l0.15-0.34c0.2-0.44,0.37-0.83,0.31-1.12c-0.09-0.4-0.26-0.84-0.45-1.3 c-0.2-0.49-0.4-0.99-0.53-1.53c-0.63-2.68-1.09-5.44-1.53-8.11c-0.2-1.17-0.39-2.35-0.6-3.51l-0.04-0.2 c-0.7-3.87-1.4-7.75-2.1-11.62c-0.5-2.79-0.99-5.58-1.47-8.39l-0.23-1.36l1.37,0.21c0.21,0.03,0.43,0.07,0.63,0.11 c1.96,0.38,4.01,1,6.43,1.97c0.08,0.03,0.17,0.05,0.27,0.05c0.25,0,0.41-0.1,0.43-0.12c0-0.01-0.01-0.06-0.05-0.15 c-5.59-10.44-9.84-21.62-12.64-33.21c-1.42-5.86-2.45-11.79-3.07-17.62c-0.27-2.49-0.39-5.1-0.38-7.95c0.33-0.22,0.67-0.44,1-0.66 c1-0.68,2-1.37,2.99-2.07c6.37-4.53,12.39-9.53,18.06-14.91c11.85-11.25,21.81-24.13,31.13-37.5 c10.13-14.54,19.47-29.64,27.89-45.23c0.96-1.78,1.91-3.56,2.85-5.36c5.09-2.04,9.8-5.22,14.35-8.24 c4.99-3.32,10.04-6.72,14.67-10.54c5.38-4.44,9.96-10.15,12.19-16.82C306.45,202.95,307.07,199.05,305.21,195.61z M253.8,120.64 c-0.38,1.74-1.03,3.38-1.92,4.87c-1.62,2.72-3.92,4.84-6.63,6.15l-0.61,0.3c0.06-0.39,0.12-0.78,0.18-1.16 c0.17-1.16,0.29-2.29,0.39-3.35c0.33-3.32,0.58-6.69,0.82-9.96c0.06-0.78,0.11-1.56,0.18-2.34c0.03-0.42,0.07-0.83,0.1-1.25 l0.57,0.5c2.08,1.84,3.97,3.45,5.75,4.91c0.11,0.09,0.23,0.12,0.31,0.13l1.12,0.11L253.8,120.64z M247.39,106.04 c0.33,0.15,0.65,0.31,0.97,0.5c3.52,2.1,5.69,6.05,5.79,10.57l0.05,2.21l-1.69-1.42c-2.2-1.85-4.2-3.56-6.1-5.23 c0.03-0.42,0.06-0.83,0.1-1.24c0.15-1.84,0.33-3.69,0.54-5.54L247.39,106.04z" fill="#F9E8D8"/></g><g id="change2_1"><path d="M174.52,222.01c-0.18-0.33-0.37-0.66-0.56-0.99c-0.45-0.79-0.88-1.54-1.17-2.34 c-0.05-0.13-0.09-0.27-0.13-0.41c-0.14-0.48-0.21-0.96-0.23-1.44c-0.11-1.96,0.62-3.97,1.38-6.06c0.78-2.17,1.59-4.41,1.52-6.75 c-0.15-4.78-3.88-8.23-6.09-9.86c-0.46-0.34-0.94-0.67-1.42-0.98c-1.24-0.8-2.52-1.53-3.77-2.23c-1.5-0.85-3.06-1.72-4.48-2.71 c-4.9-3.42-8.57-8.41-12.12-13.25c-0.68-0.93-1.36-1.86-2.05-2.78c-2.82-3.74-5.81-7.34-8.97-10.78c-6-6.54-12.6-12.52-19.72-17.86 c-1.63-1.22-3.25-2.36-5.18-2.89c-4.7-1.28-8.9,1.42-12.96,4.04c-1.57,1-3.18,2.04-4.78,2.82c-2.12-1.6-4.26-2.2-6.38-1.81 c-2.21,0.42-3.91,1.86-5.56,3.26l-0.61,0.51c-3.92,3.26-8.56,5.79-13.43,7.3c-1.29,0.41-2.66,0.76-3.98,1.11 c-4.92,1.29-10.01,2.63-13.29,6.59c-1.55,1.89-2.46,4.17-3,5.72c-1.56,4.48-2.28,9.36-2.08,14.1c0.01,0.35,0.04,0.67,0.07,0.98 c0.42,3.74,2.25,4.86,3.84,5.09c0.92,0.63,2.04,1.17,3.42,1.66c6.69,2.38,13.84,2.44,21.18,2.28l2.4-0.05 c3-0.07,6.03-0.14,9.05-0.13c9.86,0.03,19.68,0.88,28.45,5.3c9.51,4.8,14.42,13.13,19.61,21.94c2.6,4.39,5.28,8.94,8.58,13.03 l5.68,7.01c1.27,1.56,2.58,3.18,4.13,4.54c0.19,0.37,0.39,0.73,0.58,1.09c4.31,7.98,8.62,15.96,12.93,23.94 c-0.3,0.16-0.6,0.32-0.9,0.48c0.36,0.35,0.72,0.7,1.1,1.03c1.12,1.02,2.28,1.97,3.47,2.9c-0.12-1.17-0.28-2.34-0.45-3.51 c-1.21-7.91-3.49-15.58-5.48-23.32c1.05-0.39,2.05-0.9,3.01-1.42c2.53-1.38,4.98-2.94,7.29-4.64c0-0.01,0.01-0.01,0.01-0.01 l0.18-0.19C177.52,236.42,177.89,228.26,174.52,222.01z M197.11,406.14c-5.56-10.39-9.78-21.5-12.55-32.97 c-1.39-5.76-2.42-11.6-3.05-17.49c-0.31-2.85-0.41-5.67-0.38-8.5c-1.09,0.74-2.18,1.46-3.28,2.17c-1.19,0.76-2.38,1.51-3.59,2.24 c-1.68,1.02-3.37,2.14-5.25,2.77c-1.85,0.62-3.81,0.53-5.69,0.07c-1.9-0.47-3.71-1.26-5.64-1.61c-1.92-0.36-3.73-0.99-5.55-1.71 c-3.65-1.46-7.08-3.39-10.36-5.55c-6.46-4.26-12.24-9.46-17.85-14.78c0.98,3.67,2.16,7.29,2.98,11.01 c4.69,21.14,3.12,43.14,2.82,64.61c-0.15,10.67-0.56,21.83,4.4,31.61c1.99,3.93,5.08,8.1,9.03,10.26c0.98,0.54,2.39,0.3,3.47,0.23 c1.4-0.09,2.79-0.26,4.17-0.51c2.47-0.46,4.88-1.21,7.19-2.19c9.05-3.85,15.97-11.82,18.67-21.26c0.65-2.26,1.03-4.58,1.2-6.92 c0.17-2.37,0.16-4.81,0.89-7.1c0.18-0.56,0.4-1.07,0.67-1.52c0.3-0.54,0.66-1,1.06-1.38c1.95-1.93,4.93-2.33,7.89-1.88 c0.2,0.03,0.4,0.06,0.6,0.1c2.15,0.41,4.23,1.11,6.25,1.92C196.29,408.19,197.79,407.42,197.11,406.14z M138.57,64.79 c-0.13-0.12-0.26-0.25-0.39-0.38c-0.39-0.39-1.13,0.15-0.7,0.62c1.54,1.67,3.08,3.34,4.63,5C141.01,68.24,139.84,66.5,138.57,64.79z M249.5,104.62c-3.47-2.06-7.62-2.48-11.7-1.18c-4,1.28-7.46,4.09-9.73,7.89c-0.34,0.58-0.64,1.17-0.91,1.77 c-3.94-2.49-8.91-3.3-13.03-1.62c-0.33-3.6-1.86-7.05-4.49-9.96c-3.36-3.72-8.12-6.1-13.39-6.71c-7.1-0.81-13.71,1.81-17.8,6.4 c-5.02-4.21-9.92-8.58-14.73-13.03c-5.37-4.97-10.83-9.83-16.19-14.81c-0.33-0.3-0.66-0.6-0.99-0.91c-2.7-2.52-5.35-5.07-7.97-7.67 c1.27,1.71,2.44,3.45,3.54,5.24c1.26,1.36,2.52,2.71,3.79,4.05c7.35,7.8,14.86,15.42,22.79,22.62c2.6,2.37,5.24,4.67,7.95,6.91 c-1.21,1.97-2.02,4.18-2.29,6.56c-0.17,1.46-0.13,2.91,0.1,4.31v0.01c1.26,7.93,8.43,14.55,17.74,15.62 c0.88,0.1,1.75,0.15,2.61,0.15c4.35,0,8.52-1.26,11.95-3.64c1.28-0.88,2.41-1.89,3.38-3c2.21-2.52,3.58-5.57,3.96-8.87 c0.02-0.17,0.02-0.33,0.03-0.5c4.04-1.07,8.26-0.48,11.89,2.15c-0.65,2.67-0.67,5.39-0.08,7.89c0.86,3.77,3.06,7.06,6.44,9.08 c2.18,1.3,4.6,1.91,7.03,1.91c1.71,0,3.43-0.3,5.09-0.88c3.68-1.29,7.06-3.96,9.31-7.74C258.52,118.73,256.59,108.85,249.5,104.62z M210.88,114.38c-0.4,3.43-2.15,6.53-4.99,8.85c-0.31,0.25-0.64,0.49-0.98,0.73c-3.47,2.41-7.86,3.46-12.35,2.94 c-6.88-0.8-12.38-5.12-14.32-10.58c-0.66-1.83-0.91-3.78-0.68-5.78c0.26-2.19,1.07-4.2,2.29-5.95c0.47-0.66,0.99-1.28,1.57-1.85 c2.98-3,7.4-4.84,12.25-4.84c0.73,0,1.47,0.04,2.22,0.13c4.48,0.51,8.52,2.52,11.36,5.66C210.03,106.77,211.32,110.56,210.88,114.38 z M251.99,120.09c0.25,0.2,0.54,0.31,0.83,0.34c-0.34,1.55-0.92,3.1-1.8,4.57c-1.57,2.63-3.79,4.61-6.24,5.78 c-3.5,1.69-7.48,1.76-10.75-0.19c-2.27-1.36-3.85-3.48-4.66-5.95c-0.92-2.75-0.88-5.93,0.22-8.97c0.32-0.91,0.74-1.81,1.26-2.68 c0.36-0.6,0.76-1.18,1.19-1.72c1.79-2.25,4.13-3.91,6.75-4.75c1.22-0.39,2.46-0.59,3.66-0.59c1.92,0,3.76,0.5,5.39,1.47 c3.38,2.01,5.21,5.71,5.3,9.73c-2.24-1.88-4.46-3.78-6.65-5.71c-0.11,1.25-0.2,2.49-0.29,3.73 C248.1,116.83,250.02,118.48,251.99,120.09z" fill="#DE917F"/></g><g id="change3_1"><path d="M178.24,116.32c8.83,3.94,18.43,5.92,27.65,6.91c-0.31,0.25-0.64,0.49-0.98,0.73 c-3.47,2.41-7.86,3.46-12.35,2.94C185.68,126.1,180.18,121.78,178.24,116.32z M244.42,130.59c-2.26-0.45-4.31-1.55-6.47-2.72 c-1.61-0.86-3.28-1.76-5.06-2.38c-1.15-0.39-2.33-0.66-3.52-0.85c0.81,2.47,2.39,4.59,4.66,5.95c3.27,1.95,7.25,1.88,10.75,0.19 C244.69,130.69,244.56,130.62,244.42,130.59z M122.16,107.62c-0.12-0.23-0.39-0.27-0.61-0.18c0.24,0.13,0.48,0.27,0.72,0.4 C122.23,107.77,122.2,107.69,122.16,107.62z M137.45,64.47c-0.02-0.02-0.04-0.04-0.06-0.06c-0.12,0.1-0.17,0.25-0.09,0.44l0.24,0.57 C137.73,65.12,137.69,64.73,137.45,64.47z M218.09,166.76c-0.33-0.24-0.8-0.17-0.97,0.22c-0.39,0.88,0,2.14,0.17,3.07 c0.02,0.1,0.04,0.21,0.06,0.31c0.68-0.51,1.35-1.05,2.01-1.62C219.05,167.99,218.7,167.21,218.09,166.76z M231.1,154.37 c-0.78-0.3-1.64,0.62-0.76,1.11c0.55,0.31,1.09,0.64,1.62,0.99c0.4-0.45,0.8-0.91,1.19-1.37 C232.46,154.88,231.78,154.64,231.1,154.37z M239.4,135.28c-2.43,0-4.85-0.61-7.03-1.91c-3.38-2.02-5.58-5.31-6.44-9.08 c-1.21-0.06-2.43-0.09-3.63-0.11l-0.48-0.01c-3.72-0.08-7.65-0.23-11.69-0.55c-0.97,1.11-2.1,2.12-3.38,3 c-3.43,2.38-7.6,3.64-11.95,3.64c-0.86,0-1.73-0.05-2.61-0.15c-9.31-1.07-16.48-7.69-17.74-15.62v-0.01 c-3.18-1.66-6.23-3.62-9.1-5.92c-5.25-6.41-9.71-13.34-13.64-20.62c-2.12-3.92-4.11-7.9-6.17-11.84c-0.26-0.5-0.53-1-0.79-1.49 c-0.85-1.56-1.72-3.09-2.64-4.58c-1.1-1.79-2.27-3.53-3.54-5.24c-0.08-0.1-0.15-0.21-0.23-0.31c-0.2-0.26-0.71-0.27-0.95-0.07 c0.02,0.02,0.04,0.04,0.06,0.06c0.24,0.26,0.28,0.65,0.09,0.95c1.52,3.53,3.04,7.06,4.6,10.57c1.99,4.5,4.04,8.97,6.2,13.39 c3.42,7.01,7.72,13.6,12.58,19.71c-4.11,1.68-8.14,4.16-11.95,7.34c-2.12,1.76-4.16,3.74-6.12,5.92c-3.23,3.59-5.43,6.88-6.82,10.17 c-0.02-0.03-0.04-0.05-0.05-0.07c-1.71-2.48-3.36-5.01-4.89-7.6c-1.37-2.3-2.7-4.64-3.98-7.01c-1.1-2-2.46-5.2-3.54-7.42 c-0.09-0.2-0.19-0.39-0.28-0.57c-0.34-0.67-0.69-1.34-1.02-2.01c-0.24-0.13-0.48-0.27-0.72-0.4c-0.22,0.08-0.38,0.27-0.33,0.52 c0.82,3.48,2.23,8.21,3.56,11.46c0.15,0.39,0.31,0.79,0.49,1.18c0.79,1.88,1.69,3.74,2.66,5.58c1.4,2.65,2.91,5.25,4.57,7.75 c0.69,1.04,1.41,2.06,2.14,3.08c-0.46,2.41-0.46,4.83-0.02,7.06c0.4,2.02,1.15,3.89,2.25,5.49c0.29,0.42,0.58,0.84,0.87,1.24 c5.39,7.58,11.35,13.38,17.72,17.27c3.91,2.38,8.05,4.71,11.09,6.23c2.16,1.09,4.28,2.02,6.38,2.8c5.74,2.15,11.31,3.2,16.99,3.2 c1.78,0,3.58-0.11,5.39-0.31c7.37-0.84,15.05-4.21,22.04-9.63c-0.02-0.1-0.04-0.21-0.06-0.31c-0.17-0.93-0.56-2.19-0.17-3.07 c0.17-0.39,0.64-0.46,0.97-0.22c0.61,0.45,0.96,1.23,1.27,1.98c0.69-0.57,1.36-1.17,2.03-1.79c3.69-3.42,7.29-6.84,10.57-10.48 c-0.53-0.35-1.07-0.68-1.62-0.99c-0.88-0.49-0.02-1.41,0.76-1.11c0.68,0.27,1.36,0.51,2.05,0.73c1.44-1.67,2.81-3.39,4.07-5.19 c3.62-5.12,6.05-10.32,7.27-15.51C242.83,134.98,241.11,135.28,239.4,135.28z" fill="#88A3CE"/></g><g id="change4_1"><path d="M178.57,258.19c-2.55-4.49-5.36-9.05-6.39-14.16c0.68-0.24,1.19-0.75,1.24-1.51 c-2.31,1.7-4.76,3.26-7.29,4.64c-0.96,0.52-1.96,1.03-3.01,1.42c1.99,7.74,4.27,15.41,5.48,23.32c0.17,1.17,0.33,2.34,0.45,3.51 c0.97,0.77,1.95,1.51,2.93,2.24c3.69-3.37,7.39-6.72,11.01-10.17C181.92,264.23,180.25,261.15,178.57,258.19z M195.07,440.36 c-0.2-0.94-0.75-1.89-0.98-2.85c-0.89-3.8-1.43-7.72-2.12-11.57c-0.71-3.94-1.42-7.88-2.14-11.82c-0.5-2.79-0.99-5.58-1.47-8.38 c-2.96-0.45-5.94-0.05-7.89,1.88c-0.03,0.2-0.06,0.4-0.09,0.6c-0.08,0.47-0.5,0.72-0.97,0.78c-0.27,0.45-0.49,0.96-0.67,1.52 c-0.73,2.29-0.72,4.73-0.89,7.1c-0.17,2.34-0.55,4.66-1.2,6.92c-2.7,9.44-9.62,17.41-18.67,21.26c-2.31,0.98-4.72,1.73-7.19,2.19 c-1.38,0.25-2.77,0.42-4.17,0.51c-1.08,0.07-2.49,0.31-3.47-0.23c-3.95-2.16-7.04-6.33-9.03-10.26c-4.96-9.78-4.55-20.94-4.4-31.61 c0.3-21.47,1.87-43.47-2.82-64.61c-0.82-3.72-2-7.34-2.98-11.01c-0.31-0.29-0.62-0.58-0.93-0.87c-2.69-2.55-5.33-5.14-7.93-7.78 c10.79-21.39,28.25-39.38,49.41-50.65h0.01c0.3-0.16,0.6-0.32,0.9-0.48c-4.31-7.98-8.62-15.96-12.93-23.94 c-0.19-0.36-0.39-0.72-0.58-1.09c-1.55-1.36-2.86-2.98-4.13-4.54l-5.68-7.01c-3.3-4.09-5.98-8.64-8.58-13.03 c-5.19-8.81-10.1-17.14-19.61-21.94c-8.77-4.42-18.59-5.27-28.45-5.3c-3.02-0.01-6.05,0.06-9.05,0.13l-2.4,0.05 c-7.34,0.16-14.49,0.1-21.18-2.28c-1.38-0.49-2.5-1.03-3.42-1.66c-1.59-0.23-3.42-1.35-3.84-5.09c-0.99,0.96-1.71,2.48-2.39,3.51 c-0.97,1.47-1.94,2.95-2.89,4.43c-1.91,2.94-3.78,5.9-5.61,8.89c-3.61,5.9-7.07,11.89-10.29,18.01 c-6.43,12.23-11.93,24.96-15.79,38.23c-4.15,14.27-6.15,29.08-7.39,43.87c-1.29,15.39-1.49,30.87-0.73,46.3 c1.52,30.87,6.86,61.47,14.32,91.43c0.95,3.81,1.93,7.62,2.95,11.41c0.66,2.49,1.12,4.99,2.76,7.05c2.94,3.71,7.41,6.14,11.59,8.19 c9.19,4.49,19.21,7.7,29.1,10.22c24.49,6.23,50.68,7.61,75.47,2.27c12.19-2.62,24.1-6.98,34.87-13.32 c5.51-3.24,10.83-6.9,15.2-11.59c2.2-2.36,4.19-4.92,5.8-7.71c0.76-1.32,1.45-2.67,2.05-4.07 C194.83,441.76,195.22,441.1,195.07,440.36z M177.53,387.22c-2.15-7.16-4.08-14.44-7.02-21.33c-0.37-0.86-1.85-0.61-1.67,0.39 c1.33,7.1,3.68,13.97,5.81,20.86c2.07,6.73,4.28,13.66,3.19,20.78c-0.12,0.78,0.8,1.17,1.57,1.08c0.3-0.54,0.66-1,1.06-1.38 C181.44,400.65,179.51,393.86,177.53,387.22z M172.43,216.83c-0.34-0.37-0.73-0.7-1.01-0.99c-1-1.02-1.99-2.07-3-3.09 c-2.1-2.12-4.51-3.8-7.11-5.26c-2.5-1.4-4.71-3.02-6.73-5.06c-0.97-0.97-1.87-2-2.76-3.05c-1.21-1.41-2.23-2.58-4.21-2.72 c-0.79-0.06-1.79,0.5-2.02,1.3c-0.46,1.64,0.61,2.8,1.64,3.94c1.01,1.12,2.04,2.22,3.14,3.27c2.18,2.07,4.59,3.83,7.25,5.24 c2.61,1.38,5.35,2.5,7.96,3.88c1.36,0.71,2.65,1.43,3.84,2.4c0.89,0.74,1.87,2.1,3.11,2.06c0.08,0,0.18-0.03,0.26-0.07 c0.1-0.05,0.19-0.13,0.22-0.24C173.18,217.85,172.85,217.31,172.43,216.83z M91.45,162.46c-1.56-1.78-3.22-3.38-5.2-4.67 c-0.42-0.27-1.33,0.13-1.08,0.7c0.79,1.8,1.87,3.23,3.08,4.77c0.26,0.33,1.41,1.37,1.14,1.89c-0.16,0.29-0.92,0.31-1.18,0.33 c-3.56,0.21-7.42-1.08-10.69-2.33c-3.48-1.34-7.03-2.34-10.78-2.44c-3.86-0.09-7.66,0.54-11.4,1.41c-0.37,0.09-0.29,0.6,0.09,0.58 c4.58-0.21,9.27-0.8,13.8,0.12c4.3,0.88,8.1,3.32,12.34,4.45c2.03,0.54,4.23,0.98,6.34,0.98c1.44,0,3.15-0.34,4.1-1.52 C93.14,165.33,92.52,163.68,91.45,162.46z M133.25,172.99c-1.5-1.2-3.32-1.97-4.96-2.96c-1.52-0.91-3-1.9-4.48-2.88 c-3.4-2.27-6.81-4.53-10.22-6.8c-3.3-2.2-6.68-4.55-10.28-6.24c-3.43-1.62-6.84-3.72-9.46-6.49c-0.32-0.34-1.12,0.07-0.78,0.51 c2.2,2.88,5.22,4.76,7.79,7.24c2.99,2.9,6.35,5.41,9.72,7.85c3.34,2.43,6.69,4.86,10.03,7.28c1.52,1.11,3.04,2.21,4.61,3.24 c1.73,1.15,3.53,2.38,5.59,2.81C132.77,176.96,135.35,174.68,133.25,172.99z M282.68,172.32c-0.02-1.44-0.17-3.16-0.95-4.41 c-0.19-0.3-0.87-0.22-0.84,0.2c0.04,0.71,0.24,1.38,0.32,2.08c0.09,0.71,0.12,1.42,0.09,2.13c-0.03,0.72-0.2,1.4-0.42,2.08 c-0.22,0.69-0.56,1.38-0.63,2.12c-0.04,0.39,0.37,0.71,0.71,0.79c0.38,0.09,0.87-0.04,1.09-0.38c0.45-0.67,0.55-1.54,0.61-2.33 C282.71,173.85,282.69,173.08,282.68,172.32z M265.1,165.99c-0.67,0.47-1.14,1.21-1.64,1.85c-0.49,0.62-0.98,1.25-1.46,1.89 c-1.01,1.35-1.98,2.73-2.95,4.11c-1.9,2.74-3.65,5.54-5.38,8.39c-0.25,0.41,0.42,0.66,0.67,0.33c2.08-2.65,4.12-5.32,6.16-8 c1-1.31,2.03-2.61,3.06-3.89c0.5-0.63,1-1.25,1.51-1.87c0.55-0.66,1.18-1.28,1.54-2.06C267.01,165.85,265.59,165.63,265.1,165.99z M239.56,112.28c-0.31-0.18-0.62-0.35-0.95-0.49c-0.3-0.13-0.57-0.28-0.85-0.43c-0.85-0.44-1.83-0.6-2.77-0.57 c-0.88,0.03-1.8,0.13-2.65,0.39c-0.09,0.03-0.19,0.06-0.3,0.09c-0.43,0.54-0.83,1.12-1.19,1.72c-0.52,0.87-0.94,1.77-1.26,2.68 c0.66,0.55,1.58,0.73,2.43,0.54c0.52-0.11,0.98-0.3,1.41-0.63c0.13-0.1,0.25-0.21,0.38-0.31c0.08-0.06,0.17-0.13,0.26-0.18 c0.02-0.02,0.04-0.03,0.06-0.04c0.04-0.02,0.07-0.04,0.1-0.06c0.28-0.16,0.58-0.32,0.87-0.46c0.15-0.07,0.3-0.14,0.45-0.2 c0.04-0.02,0.09-0.04,0.13-0.05c0.13-0.02,0.29-0.1,0.41-0.13c0.28-0.08,0.54-0.17,0.81-0.29c0.13-0.06,0.27-0.11,0.4-0.17 c0.01-0.01,0.03-0.01,0.04-0.01c0.01-0.01,0.01-0.01,0.03-0.01c0.01-0.01,0.01-0.01,0.01-0.01c0.01,0,0.01,0,0.02,0l0.01-0.01 c0.1-0.03,0.2-0.07,0.3-0.11c0.06-0.02,0.19-0.06,0.28-0.1c0.07-0.01,0.15-0.01,0.22-0.02c0.33-0.02,0.66-0.02,0.99,0 C239.89,113.45,240.15,112.63,239.56,112.28z M237.38,113.66c0,0,0,0-0.01,0.01c0.01-0.01,0.02-0.01,0.03-0.01 C237.39,113.66,237.39,113.66,237.38,113.66z M200.49,109.44c-5.1-4.66-12.17-7.17-19.07-6.7c-0.58,0.57-1.1,1.19-1.57,1.85 c6.54,0.26,12.71,2.92,17.32,7.68C198.97,114.13,202.69,111.46,200.49,109.44z M244.58,92.82c-0.03-0.07-0.09-0.15-0.14-0.24 c0,0,0,0-0.01-0.01c0-0.01,0-0.01-0.01-0.02c-0.06-0.08-0.1-0.16-0.11-0.23c0-0.01-0.01-0.02-0.01-0.03 c-0.04-0.07-0.08-0.17-0.14-0.28c-0.12-0.19-0.44-0.51-0.51-0.58c-0.19-0.18-0.39-0.34-0.57-0.51c-0.34-0.32-0.65-0.63-0.96-0.96 c0.09,0.07,0.12,0.07-0.16-0.17c-0.16-0.18-0.32-0.38-0.48-0.57c-1.22-1.46-2.35-3.01-3.47-4.54c-0.91-1.25-2.39-2.68-4.09-2.21 c-1.06,0.29-1.91,1.14-1.89,2.3c0.01,0.71,0.23,1.52,0.6,2.13c0.47,0.8,1.08,1.56,1.64,2.31c0.69,0.94,1.48,1.8,2.3,2.63 c0.73,0.74,1.5,1.44,2.31,2.08c0.62,0.49,1.25,1.01,1.99,1.27c0.74,0.27,1.78,0.54,2.53,0.29c0.53-0.18,1.28-0.53,1.39-1.19 C244.88,93.74,244.85,93.33,244.58,92.82z M203.97,76.09c-1.26,0.31-2.49,0.9-3.72,1.31c-2.62,0.87-5.33,1.51-8.08,1.85 c-2.58,0.32-5.16,0.23-7.75,0.28c-1.3,0.03-2.6-0.01-3.9-0.1c-1.43-0.1-2.83-0.01-4.26-0.16c-0.82-0.08-1.17,1-0.44,1.39 c1.09,0.56,2.19,1.25,3.32,1.7c1.15,0.46,2.37,0.77,3.57,1.07c2.64,0.66,5.34,0.84,8.06,0.81c2.68-0.03,5.37-0.3,8-0.77 c2.57-0.47,5.67-1.01,7.92-2.37c0.86-0.52,1.66-1.3,1.62-2.39C208.21,76.53,205.87,75.62,203.97,76.09z M129.63,72.4 c-0.93-2.46-3.23-5.12-6.12-4.68c-2.4,0.37-5.64,2.47-6.29,4.95c-0.07,0.25,0.32,0.43,0.49,0.24c1.09-1.2,1.91-2.45,3.38-3.26 c1.61-0.89,3.5-1.16,4.88,0.27c1.05,1.1,1.9,2.7,1.86,4.26c-0.05,1.59-1.17,2.4-2.48,3.03c-2.46,1.19-5.19,2.5-5.41,5.6 c-0.15,2.05,1.4,3.82,3.29,4.24c-0.03,1.77-0.29,3.85-1.9,4.58c-1.7,0.76-2.97-1.93-3.66-3.06c-0.45-0.72-2.17-0.54-2.04,0.47 c0.37,3.07,2.93,5.95,6.26,5.23c4.08-0.88,4.72-5.19,4.6-8.68c-0.03-0.95-1.18-1.66-2.07-1.34c-1.44,0.51-1.4-1.63-0.97-2.44 c0.73-1.36,2.24-1.85,3.48-2.6C129.44,77.71,130.71,75.26,129.63,72.4z M166.55,174.3c-3.04-1.52-7.18-3.85-11.09-6.23 c-6.37-3.89-12.33-9.69-17.72-17.27c-0.29-0.4-0.58-0.82-0.87-1.24c-1.1-1.6-1.85-3.47-2.25-5.49c-4.46-7.04-7.69-14.9-9.51-23.05 c-0.03,0.09-0.06,0.19-0.09,0.28c-0.62,2.05-1.37,4.05-2.24,5.99c2.3,11.96,7.1,23.54,13.65,34.14c3.16,3.44,6.15,7.04,8.97,10.78 c0.69,0.92,1.37,1.85,2.05,2.78c3.55,4.84,7.22,9.83,12.12,13.25c1.42,0.99,2.98,1.86,4.48,2.71c1.25,0.7,2.53,1.43,3.77,2.23 c1.44-5.43,3.15-10.81,5.11-16.08C170.83,176.32,168.71,175.39,166.55,174.3z M197.52,167.47c-0.43,0.14-0.73-0.42-0.33-0.66 c4.16-2.46,8.39-4.8,12.3-7.65c1.94-1.42,3.83-2.9,5.64-4.47c1.7-1.48,3.35-3.52,5.39-4.53c0.44-0.22,1.35,0.09,1.1,0.72 c-0.86,2.15-3.27,3.89-4.99,5.35c-1.89,1.6-3.85,3.12-5.9,4.5C206.62,163.51,202.28,165.97,197.52,167.47L197.52,167.47z M198.67,159.22c-0.42,0.26-1.04-0.29-0.61-0.67c1.14-1,2.3-1.97,3.52-2.86c0.63-0.46,1.25-0.92,1.88-1.37 c0.32-0.23,0.63-0.45,0.97-0.66c0.33-0.2,0.65-0.47,1.05-0.43c0.24,0.02,0.55,0.16,0.54,0.46c-0.02,0.42-0.37,0.63-0.66,0.89 c-0.3,0.27-0.61,0.5-0.94,0.74c-0.61,0.44-1.22,0.89-1.82,1.33C201.34,157.57,200.02,158.41,198.67,159.22L198.67,159.22z" fill="#3B365F"/></g><g id="change5_1"><path d="M124.06,330.91c-1.22-0.01-2.3,0.41-3.49,0.56c-0.99,0.12-2.04,0.11-3.03-0.01 c-0.95-0.11-1.88-0.34-2.79-0.63c-0.17-0.51-0.31-1.02-0.33-1.57c-0.03-0.62-0.02-1.24,0.05-1.86c0.12-1.32,0.56-2.54,1.11-3.73 c0.98-2.14,2.66-4.35,2.41-6.81c-0.03-0.34-0.53-0.45-0.72-0.17c-1.42,2.13-2.65,4.54-3.7,6.88c-0.88,1.97-1.3,4.06-1.47,6.19 c-0.37-0.18-0.73-0.36-1.09-0.56c-4.03-2.27-7.34-5.74-10.44-9.12c-6.47-7.07-11.92-14.99-17.16-22.98 c-2.98-4.56-5.99-9.11-8.87-13.74c-0.32-0.51-1.53-0.21-1.22,0.44c2.14,4.63,4.36,9.2,6.78,13.66c-0.27-0.11-0.53-0.21-0.78-0.32 c-1.25-0.55-2.5-1.1-3.74-1.65c-2.59-1.15-5.09-2.34-7.81-3.14c-0.47-0.13-1.11,0.5-0.59,0.86c1.16,0.81,2.32,1.54,3.6,2.15 c1.26,0.61,2.54,1.22,3.81,1.82c1.27,0.6,2.54,1.2,3.82,1.79c1.08,0.5,2.14,1.07,3.28,1.35c1.99,3.49,4.11,6.91,6.44,10.23 c2.93,4.17,6.07,8.2,9.47,12c3.38,3.77,6.94,7.46,11.37,10c2.38,1.36,5.06,2.34,7.79,2.7c2.7,0.35,6.57,0.53,8.73-1.4 C126.83,332.66,125.61,330.91,124.06,330.91z M228.62,190.91c-0.25-1.11-0.87-2.16-1.32-3.19c-0.47-1.06-0.93-2.12-1.4-3.18 c-0.87-1.99-1.7-3.99-2.5-6c-0.8-2.02-1.59-4.05-2.45-6.04c-0.43-1-0.82-2.02-1.27-3.01c-0.11-0.24-0.21-0.49-0.32-0.75 c-0.31-0.75-0.66-1.53-1.27-1.98c-0.33-0.24-0.8-0.17-0.97,0.22c-0.39,0.88,0,2.14,0.17,3.07c0.02,0.1,0.04,0.21,0.06,0.31 c0.19,0.95,0.43,1.89,0.65,2.83c0.51,2.17,1.2,4.3,1.93,6.4c0.74,2.1,1.51,4.2,2.32,6.27c0.81,2.05,1.56,4.52,2.86,6.31 C226.18,193.64,229.07,192.92,228.62,190.91z M239.23,172.67c-1.88-1.21-3.76-2.39-5.53-3.77c-1.79-1.4-3.52-2.92-5.2-4.47 c-0.63-0.58-2.15,0.13-1.49,0.98c1.48,1.89,3.12,3.55,4.96,5.08c1.84,1.54,3.8,3,5.92,4.12c0.58,0.3,1.43,0.15,1.81-0.4 C240.11,173.6,239.75,173.02,239.23,172.67z M253.3,163.84c-0.89-0.72-2.01-1.12-3.05-1.6c-0.92-0.43-1.85-0.86-2.78-1.29 c-1.68-0.78-3.37-1.54-5.06-2.29c-1.64-0.73-3.26-1.48-4.94-2.12c-1.42-0.54-2.88-0.96-4.32-1.44c-0.69-0.22-1.37-0.46-2.05-0.73 c-0.78-0.3-1.64,0.62-0.76,1.11c0.55,0.31,1.09,0.64,1.62,0.99c1.23,0.8,2.44,1.65,3.71,2.39c1.58,0.92,3.22,1.72,4.85,2.55 c1.59,0.8,3.19,1.6,4.79,2.38c0.91,0.45,1.82,0.89,2.73,1.33c1.09,0.53,2.19,1.21,3.38,1.48 C252.95,166.95,254.91,165.13,253.3,163.84z M123.45,108.44c-0.4-0.19-0.79-0.39-1.18-0.6c0.33,0.67,0.68,1.34,1.02,2.01 c0.09,0.18,0.19,0.37,0.28,0.57C123.52,109.76,123.48,109.1,123.45,108.44z M137.54,65.42c0,0.01,0,0.02-0.01,0.03 c-4.9,7.58-7.75,16.55-8.17,25.55c1.51-5.16,5.17-9.92,10.4-13.51c0.78-0.53,1.57-1.03,2.38-1.5 C140.58,72.48,139.06,68.95,137.54,65.42z M261.46,65.31c-0.52-9.94-4.07-20.14-10.54-30.33c-1.31-2.06-3.05-4.63-5.26-6.91 c1.56-0.69,3.06-1.54,4.47-2.52c1.24-0.86,1.76-1.79,1.58-2.76c-0.24-1.22-1.52-1.73-2.07-1.95c-4.91-1.96-10.11-3.3-15.14-4.59 c-6.35-1.63-12.92-3.32-18.84-6.26C195.56,0,175.8-2.46,155.26,2.45c-3.16,0.76-6.88,0.72-10.48,0.68c-2.7-0.03-5.48-0.06-8.02,0.24 c-13.97,1.67-29.23,11.33-38.89,24.61c-0.25,0.34-0.86,1.5-1.83,3.36c-0.74,1.43-1.87,3.59-2.11,3.89l0.51,0.53l0.06,0.75 c1.71-0.15,3.38-0.59,4.94-1.29c-2.21,2.88-4.33,5.87-6.07,9.1c-4.47,8.34-6.39,18.44-5.56,29.2c0.7,9,3.27,18.41,7.84,28.76 c3.63,8.2,7.37,14.27,11.77,19.09c1.43,1.58,3.21,3.22,5.51,3.44l0.5,0.04l0.23-0.43c0.64-1.19,1.01-2.52,1.1-3.87 c2.01,3.07,4.52,5.82,7.37,8.14c1.16-2.38,2.13-4.85,2.89-7.39c0.03-0.09,0.06-0.18,0.09-0.27v-0.01c-0.12-0.53-0.23-1.07-0.33-1.6 c-1.33-3.25-2.74-7.98-3.56-11.46c-0.05-0.25,0.11-0.44,0.33-0.52c-6.95-4.05-12.08-11.18-13.61-19.14 c-1.61-8.34,0.86-17.51,6.44-23.92c3.31-3.81,7.24-5.96,11.06-6.07c5.11-0.14,9.32,3.22,11.95,6.1c0.24-0.2,0.75-0.19,0.95,0.07 c0.08,0.1,0.15,0.21,0.23,0.31c2.62,2.6,5.27,5.15,7.97,7.67c0.33,0.31,0.66,0.61,0.99,0.91c3.01-1.24,6.02-2.16,8.8-2.93 c6.12-1.7,12.44-3,18.55-4.26c5.17-1.06,10.52-2.16,15.71-3.5c15.7-4.04,26.71-9.62,34.66-17.57c0.3-0.3,0.79-0.31,1.11-0.03 c0.32,0.28,0.37,0.76,0.11,1.1l-14.03,18.41c-0.36,0.48-0.77,1.02-0.86,1.56c-0.05,0.36,0.13,0.78,0.36,0.83 c0.16,0.04,0.45-0.04,0.65-0.1c11.22-3.12,21.35-10.5,27.79-20.24c0.16-0.25,0.44-0.39,0.75-0.36c0.3,0.03,0.55,0.22,0.67,0.49 c0.8,1.94,1.66,3.91,2.5,5.81c3.83,8.74,7.8,17.77,7.31,27.38c-0.2,3.81-1.1,7.55-1.98,11.16c-0.32,1.34-0.65,2.68-0.93,4.03 c-0.22,1-0.41,2-0.59,3.01c1.03-0.88,2.03-1.82,2.98-2.81c6.69-6.95,10.43-16.92,10.43-27.64C261.52,66.91,261.5,66.11,261.46,65.31 z M144.75,74.61c0.38-0.19,0.76-0.37,1.15-0.53c-1.27-1.34-2.53-2.69-3.79-4.05C143.03,71.52,143.9,73.05,144.75,74.61z M123.45,108.44c-0.4-0.19-0.79-0.39-1.18-0.6c0.33,0.67,0.68,1.34,1.02,2.01c0.09,0.18,0.19,0.37,0.28,0.57 C123.52,109.76,123.48,109.1,123.45,108.44z" fill="#FFF"/></g></svg>