<?xml version="1.0" encoding="UTF-8"?><svg xmlns="http://www.w3.org/2000/svg" xmlns:xlink="http://www.w3.org/1999/xlink" height="471.7" preserveAspectRatio="xMidYMid meet" version="1.0" viewBox="36.0 16.0 426.9 471.7" width="426.9" zoomAndPan="magnify"><g id="change1_1"><path d="M273.9,280c0-2.4,0-4.4,0-6.7c-2.5,0.7-4.7,1.2-7,1.9c-10.5,2.9-21,5.8-31.6,8.7c-1,0.3-2.1,0.4-3.1,0.1 c-4.2-1.1-8.1,0.2-11.8,1.9c-10,4.5-20.4,8.1-31,10.6c-3.1,0.8-5.9,0.9-7.6-2.7c-1.7,0.6-3.4,1.3-5,1.9c-1.5-2.4-3-4.6-4.2-6.9 c-1.7-3.3-3.3-6.7-3.7-10.6c-0.4-3.8-1-7.6-1.5-11.4c-0.3-2.2-0.5-4.5-0.7-6.9c-1.8,0.7-2.6-0.2-3.3-1.8c-1.6-3.4-2.4-7-2.5-10.7 c-0.2-7.7-0.6-15.4-0.8-23c-0.2-6.8-0.4-13.7-0.4-20.5c0-3.1,1-6.1,1-9.1c0-2.2-1-4.3-1.2-6.5c-0.3-2.2-0.5-4.4-0.3-6.6 c0.3-4,0.8-7.9,1.3-11.9c0.3-1.9,0.6-3.9,1.3-5.7c0.3-0.7,1.4-1.2,2.2-1.7c0.3-0.2,1-0.1,1.1-0.4c1.1-1.7,2.4-1.6,3.9-0.6 c1.1-3.3,2.8-4.1,7-3.2c3.4,0.7,6.9,0.5,10.4,0.1c4.5-0.4,9-0.7,13.5-0.5c1.5,0.1,2.9,1.8,4.5,3c21-12.4,39.7-28.1,57.7-45.6 c1.4,17.3,5.4,33.7,13.1,49.2c0.1-0.3,0.2-0.5,0.2-0.7c0.3-3.8,0.4-3.9,4.2-4.8c1.9-0.5,3.9-1.4,5.6,0.5c0.7,0.8,1.8,1.6,2,2.5 c2.2,9.6,5.1,18.9,9.6,27.7c3.3,6.5,5.2,13.5,6,20.8c0.3,2.5-0.7,5.2-1.3,7.8c-3,14.2-6.1,28.4-9.2,42.5c-0.3,1.4-0.5,2.9-0.9,4.3 c-0.2,0.7-0.9,1.4-1.6,1.8c-1.2,0.8-2.5,1.3-3.7,1.9c-3.2,1.6-4.6,4.3-5.3,7.6c-0.1,0.7-0.6,1.6-1.1,1.8 C278.1,278.8,276.2,279.3,273.9,280z M422.9,312.2c0.1,2,0.6,4.1,0.3,6c-0.4,3.3,1.6,5.6,2.7,8.3c0.2,0.4,1,0.7,1.4,0.6 c1.4-0.4,2.9-0.7,4-1.5c1.7-1.2,3.3-2.8,4.7-4.3c1.7-1.8,3.6-3.5,4.8-5.6c2.2-4.1,4-8.4,6-12.6c2.4-5.1,3-10.6,0.4-15.6 c-3.3-6.4-2.4-12.2,0.6-18.2c1.8-3.7,3.1-7.6,5-11.3c2.6-5.3-1.3-14.1-7.3-14.8c-1.4-0.2-2.3-1.1-2.2-2.8c0.1-1.5,0-3.1-0.1-4.7 c-0.3-5-2.9-8.8-6.8-11.7c-1.4-1-3.2-1.4-4.9-1.9c-5.6-1.5-11.1-2.4-17-1.2c-8.8,1.9-15.7,6.8-22.1,12.7c-4.4,4-8.6,8.2-13.1,12.1 c-7.8,6.9-14.7,14.6-20.8,23.1c-0.7,0.9-1.8,1.5-2.7,2.3c-1.1,1.1-2.6,2.2-2.9,3.6c-0.6,2.4-1.3,4.6-3.1,6.5 c-1.5,1.7-2.2,3.6-0.8,6.1c1.1-0.6,2.2-1.2,3.2-1.8c0.2,1.9,0.3,3.6,0.6,5.4c1.3,6.9,4.2,13.1,7.5,19.2c1.8,3.2,3.7,6.5,4.8,9.9 c2.1,6.8,3.6,13.7,6.7,20.2c2.1,4.4,3.1,5.5,8.1,5.4c1.3,0,2.6-0.3,3.9-0.6c5.9-1.6,11-4.5,15.9-8.3c4.5-3.5,8.3-7.5,11.8-11.9 c3.4-4.3,7.1-8.5,10.6-12.8C422.5,312,422.7,312.1,422.9,312.2z M335.5,219c-0.5,1.4-0.8,3-1.1,4.4c-1.6,7.8-3.4,15.6-3.2,23.6 c0,1.3-0.2,2.5-0.3,3.8c-0.2,2.4-0.3,4.8-0.5,7.7c1.3-1,2.3-1.6,3.1-2.3c1.8-1.5,5.4-0.6,5.5,1.5c0,2.1,1.5,1.7,2.6,2.1 c1.2,0.4,2.4,0.9,3.7,1.3c0,0,0.1-0.1,0.2-0.1c1.8-1.3,3.3-1,4.8,0.6c0.6,0.6,1.4,1,2.2,1.1c1.1,0.1,2.4,0.9,3.2-0.9 c0.4-0.9,1.3-1.7,2-2.4c0.9-0.8,2.1-1.4,3-2.3c7.7-8.4,8.2-18.5,6.5-29c-0.2-1.3-0.6-3.4-2.7-3.6c-1.2-0.1-2.5,0.1-3.8,0.2 c-0.5-1.7-0.6-3.6-1.5-5.1c-1.1-1.7-3.1-0.4-4.7-0.4c1.7-4.3,3.4-8.6,5.1-13c2.9-7.5,4-15.2,1.9-23c-0.2-0.7-1.2-1.8-1.8-1.7 c-2.4,0.3-4.8,1-6.3,3.2c-1,1.4-2.1,2.6-3.1,4c-1.4,1.8-2.8,3.7-4.2,5.5c0.6,0.2,1.1,0.4,1.9,0.7c-1.1,0.6-1.9,1-2.9,1.6 c0.8,1,1.5,1.9,2.2,2.9c0.6,0.9,1.4,1.9,1.6,3c0.7,4.1-0.5,7.9-2.9,11.3c-2.4,3.5-5.3,4-8.8,1C336.7,216.3,336,217.6,335.5,219z M275.6,396c-1.5,1.3-2.8,2.8-4.1,4.2c-0.8,0.9-1.2,2.3-2.8,2.2c-0.3,0-0.9,0.9-1,1.4c-0.7,3.2-1.5,6.5-2,9.8c-0.4,2.3-1,4.7-0.7,7 c0.5,3.7,2,7.3,4.2,10.4c1.3,1.8,2.4,2.5,4.4,1.6c2-0.9,4-2,6-3c1.3-0.7,2.6-1.5,3.8-2.4c1.1-0.9,2.1-2,3.1-3 c1.5-1.5,3.1-2.9,4.5-4.5c3.1-3.6,6-7.4,9.3-10.9c3.9-4.2,8.1-8.1,12.1-12.2c1.5-1.5,2.7-3.2,4-4.9c0.3-0.5,0.5-1.3,0.3-1.9 c-0.6-1.6-1.3-3.2-2.1-4.7c-0.3-0.5-0.9-1-1.4-1.3c-2.4-1.3-4.9-2.5-7.3-3.8c-2.4-1.3-4.1-1.3-6.1,0.5c-3,2.6-6,5.4-8.9,8.1 c-2.7,2.5-5.4,5-8.2,7.5C280.2,394.3,277.8,394.2,275.6,396z" fill="#F2C1C0"/></g><g id="change2_1"><path d="M117.9,415.2c-4.7,0.8-8.8,1.6-12.9,2.1c-2.6,0.3-5.3,0.6-7.9,0.1c-3.7-0.6-5.1-4-6.3-7 c-2-5.2-2.4-10.8-2.1-16.3c0.2-4.8,1.1-9.6,1.7-14.3c0.2-1.4,0.2-2.6-1.4-3.3c-4.1-1.8-8.2-3.8-12.4-5.5 c-5.6-2.4-11.3-4.8-17.4-5.7c-3.5-0.5-5.3-2.7-6.2-6.1c-0.8-2.8-0.9-5.3,1.2-7c2.1-1.7,4.2-3.6,6.6-4.8c8.3-4.3,16.8-8.3,25.1-12.4 c0.2-0.1,0.5-0.1,0.6-0.2c2.9-4.8,8.3-5.2,12.8-6.9c4.7-1.8,9.7-2.9,14.5-4.4c2.6-0.8,5.2-2,7.8-3c1.7-0.7,3.1-1.1,4.9,0.1 c1,0.7,3.1,0.1,4.6-0.4c7.5-2.7,14.9-5.5,22.3-8.3c10.9-4,21.7-8.3,32.7-12.1c16.3-5.7,32.7-11.4,49.2-16.7 c20.8-6.7,41.6-13.3,62.9-18.3c7-1.6,13.8-4,20.8-5.7c3.8-1,7.3-2.8,11-3.9c1.8-0.5,2.1-1.5,1.7-3.4c-0.3-1.4,0-3.1,0.6-4.5 c0.5-1.2,1.8-1.1,2.5,0.1c0.8,1.3,1.4,2.7,2,4.1c0.8,1.8,1.4,3.6,2.1,5.4c0.2,0.5,0.1,1.2,0.2,1.8c0.4,2.4,0.2,5,1.2,7.1 c2.9,5.6,4,11.5,5.5,17.5c0.8,3.1,2.4,6,3.3,9c2.2,7,4.2,14,6.4,20.9c1.8,5.6,4,11,6,16.5c2,5.5-0.6,9.8-3.9,13.8 c-1.3,1.5-3,2.7-4.3,4.3c-2.8,3.3-6.6,4.5-10.5,5.9c-5.6,2.1-11.1,4.4-16.6,6.6c-5.4,2.2-10.9,4.2-16.4,6.4c-1.1,0.4-2,1.3-3.1,2 c-2.5,1.6-4.8,3.4-7.4,4.6c-16.4,7.5-32.7,15.1-49.3,22.3c-10.9,4.8-22,9.1-33.1,13.5c-2.2,0.9-4.7,1.1-7.1,1.6 c-0.6,0.1-1.2,0.3-1.7,0.6c-16.3,9.4-32.8,18.5-48.9,28.2c-15.5,9.4-30.6,19.4-45.8,29.1c-0.7,0.4-1.4,0.9-2.2,1.2 c-3.5,1.5-6,4.2-8.7,6.7c-0.7,0.7-1.6,1.4-2.6,1.8c-2.1,0.9-3.2,0.2-4.4-1.7c-3.3-5.3-3.9-11.1-2.7-16.9c0.6-3.1,2.7-6,4.3-8.8 c6.6-11.5,13.2-23,19.9-34.5C117.4,416.3,117.5,416.1,117.9,415.2z M371.1,358.3c-0.9-1-1.6-2.5-2.7-2.9c-2.3-0.9-4.8-1.3-7.3-1.7 c-0.6-0.1-1.5,0.3-2.1,0.8c-2.5,1.7-5.1,3.4-7.5,5.3c-4.6,3.5-9.3,7-13.8,10.7c-7.2,6-14.5,11.9-21.3,18.2 c-4.8,4.5-8.9,9.7-13.4,14.5c-5.9,6.3-11.6,12.8-16.5,19.9c-9.5,13.9-17.9,28.4-23,44.6c-1.9,6.1-2.4,12,0.6,17.9 c0.7,1.4,1.8,2.1,3.2,1.3c2.1-1.2,4.3-2.4,6-4.1c4.2-3.9,7.3-8.6,9.8-13.7c3.4-6.7,7.3-12.9,13.2-17.8c2.2-1.8,4.2-3.9,6.3-5.9 c3.4-3.2,7-6.3,11.7-7.3c3.2-0.7,6.4-1.2,9.6-1.8c3.9-0.7,7.3,0.7,10.4,2.8c0.7,0.4,1.5,1.3,1.5,1.9c0.1,2.6,2.1,4.2,3.4,6.1 c2.4,3.5,4.9,6.9,7.6,10.3c1.2,1.6,3.1,1.7,4.7,0.6c3.2-2.1,6.2-4.6,7.8-8.3c2.2-5,4.2-10.1,6.2-15.2c4-10.2,8.4-20.4,11.6-30.8 c5.8-19,10.9-38.2,16.3-57.3c0.5-1.7-1.3-4.9-3-5.4c-1.7-0.5-3.5-0.8-5.2-1.3c-2.3-0.8-3.2-0.7-5,2.3c-0.5,0.8-0.8,1.6-1.2,2.4 c-2.3,4.8-4.6,9.7-7,14.7C371.6,358.7,371.3,358.5,371.1,358.3z M258.8,464.7c0.2-0.5,0.5-1,0.5-1.5c0.6-4.1,1.5-8.3,1.6-12.4 c0.2-5,0.1-10-0.4-15c-0.6-5.9-1.4-11.9-2.5-17.7c-0.9-4.7-2.7-9.2-5.5-13.2c-0.5-0.8-1.4-1.9-2.1-1.8c-2,0.1-3.9,0.6-5.8,1.2 c-2.5,0.7-5,1.6-7.5,2.5c-4.9,1.8-10,3.1-14.6,5.4c-6.9,3.5-13.5,7.7-20.1,11.7c-0.8,0.5-1.1,2.1-1.4,3.2c-0.2,0.8,0.2,1.8,0.3,2.7 c0.2,3.1,0.3,6.2,0.5,9.3c0.5,5.6,1.1,11.2,1.6,16.8c0.4,4.3,0.4,8.6,4,11.7c1.3,1.1,2.9,2.3,4.4,2.4c0.8,0.1,1.8-2.1,2.5-3.4 c1.1-1.9,1.7-4,3-5.7c2.4-3,5.3-5.5,7.7-8.4c5.3-6.2,11.3-11.2,19.7-12.2c2.6-0.3,5.1-0.8,7.7-1.1c0.8,9.1,2,17.7,5.4,25.7 C258.2,464.7,258.5,464.7,258.8,464.7z" fill="#F2EDDB"/></g><g id="change3_1"><path d="M281,296c1.3,3,2.5,5.7,3.7,8.5c9.4-5.9,18.6-11.7,27.9-17.6c-1-2.2-2-4.5-3.1-6.9 c-0.2,0.3-0.4,0.7-0.7,1.2c-1.3-2.5-0.7-5-0.6-7.5c0-0.3,1.6-1,1.9-0.8c1.3,0.9,2.7,2,3.6,3.3c1.8,2.5,3.3,5.2,4.8,7.7 c4.6-1.8,9.1-3.6,13.6-5.3c0.9-0.3,2.1-0.1,3.2-0.1c0.1,0.3,0.2,0.5,0.3,0.8c-0.7,0.6-1.4,1.4-2.2,1.9c-3.9,2.1-7.8,4.1-11.9,6.3 c1.5,2.1,2.9,4,4.2,6c4.3,6.3,8.9,12.6,11.3,20.1c0.1,0.5,1,0.8,1.5,1c0.5,0.2,1.1,0.1,1.6,0.4c0.4,0.2,0.7,0.8,0.7,1.2 c0,0.3-0.7,0.8-1,0.8c-1.9-0.2-1.9,0.7-1.7,2.3c0.3,2.1,0.2,4.2,0,6.3c-0.1,0.9-0.8,1.7-1.2,2.5c-0.8-0.4-1.7-0.7-2.3-1.3 c-1.2-1.3-2.3-2.8-3.5-4.3c-2.9,2.3-5.6,4.6-8.4,6.8c-7.5,5.7-15,11.4-22.7,17c-1.5,1.1-2.1,1.9-1.5,3.7c1.7,4.8,3,9.7,4.9,14.4 c1.3,3.3-0.7,8.9-4.5,10.8c-2,1-4.8,0.2-5.5-1.9c-1.6-4.9-3-9.8-4.4-14.8c-0.5-1.7-0.7-3.4-1-5.1c-6.9,2.7-13.7,5.3-20.7,8 c1.6,6,3.5,12,2.8,18.3c-0.6,4.5-1.8,9-3,13.4c-0.4,1.4-1.8,1.5-2.5,0.3c-3.4-5.6-5.8-11.6-7-18.1c-0.6-3-0.9-6.1-1.3-9.1 c-0.2-1.6-1-1.5-2.2-1.1c-6.9,2.5-13.7,5-20.6,7.4c-7.4,2.6-14.7,5.1-22.1,7.7c-0.3,0.1-0.6,0.3-0.6,0.3c1.4,5.2,2.8,10.3,3.9,15.5 c0.8,3.8,1.3,7.7,1.8,11.5c0,0.3-0.3,1-0.5,1c-0.6,0-1.4-0.1-1.7-0.4c-1.5-1.9-3.1-3.8-4.2-6c-3.2-5.9-6.1-11.9-9.3-18.2 c-12.1,4.9-24.4,9.9-36.7,14.9c0.8,5.8,2,11.4-0.1,17.5c-2.4-5.1-4.6-9.8-6.8-14.6c-11.7,5.1-23.2,10.1-34.4,15 c1.9,5.4,4,10.6,5.5,16c1.5,5.3,2.5,10.7,2.1,16.2c-0.3,0.1-0.7,0.1-1,0.2c-2.6-4.8-5.2-9.5-7.7-14.3c-2.5-4.8-4.8-9.7-7.2-14.6 c-16.5,7-33.1,13.9-50,20.3c7.1-5.8,15.2-9.9,23.2-14.2c8-4.3,16-8.4,24.1-12.6c-5.1-10.8-7.3-22.4-10.3-34 c-2.8,1.2-5.5,2.4-8.1,3.6c-12.6,5.6-25.1,11.4-37.7,16.9c-5.6,2.5-11.4,4.6-17.1,6.8c-0.8,0.3-1.7,0-2.6-0.1 c0.4-1,0.5-2.3,1.2-2.9c3.5-2.5,7.1-4.8,10.7-7.1c15.4-9.9,31.8-18,48.3-25.9c0.6-0.3,1.1-0.6,1.7-0.9c-2.2-5.4-4.3-10.7-6.6-16.2 c-3,1.2-6.2,2.6-9.5,3.9c-6.4,2.7-12.6,5.7-19.5,6.8c-0.6,0.1-1.2-0.2-1.8-0.3c0.5-0.6,0.8-1.5,1.4-1.8c2.5-1,5.1-1.5,7.5-2.6 c6.9-3,13.6-6.1,20.5-9.2c2.1-1,0.8-2.9,1.1-4.3c0.1-0.4-0.3-0.9-0.3-1.4c0-0.7,0.3-1.3,0.5-1.9c0.6,0.3,1.6,0.4,1.8,0.9 c0.7,1.4,1.1,3,1.6,4.7c10.8-4.2,21.6-8.3,32.5-12.5c-2.6-5.5-6.6-10.3-5.9-16.8c2-0.6,2.8,0.4,3.7,1.9c2.4,4.2,4.9,8.3,7.1,12 c11.7-4.5,22.8-8.9,34.1-12.9c9.5-3.4,19.2-5.9,29.2-7c12.9-1.4,25.2-5.1,37.6-8.8c0.4-0.1,0.7-0.3,1.3-0.6 c-2.2-3.8-4.5-7.5-6.6-11.2c-1.2-2.1-2.5-4.2-1.7-7.6c1,0.7,2,1.1,2.5,1.8c3.4,4.8,6.7,9.7,10.2,14.5c0.3,0.4,1.6,0.5,2.2,0.2 c7.7-2.7,15.4-5.5,23.1-8.1c2.4-0.8,4.9-1.5,7.5-1.9c1.5-0.3,1.6-0.9,1.2-2.1c-1.5-4.3-2.3-8.8-1.9-13.4c2-0.3,2.6,0.1,3.2,2.2 c1.2,3.6,2.5,7.2,3.8,10.8c0.3,0.9,0.8,1,1.9,0.9c5.4-0.5,10.9-2.1,16.7,0.7C291.2,292.6,286.2,294.3,281,296z M178.1,338.5 c-2.1-3-4.2-5.8-6-8.7c-0.6-0.9-0.5-2.2-0.7-3.3c0.9,0.2,1.9,0.3,2.8,0.5c0.3,0.1,0.7,0.3,0.9,0.6c2.4,2.8,4.9,5.5,7.2,8.4 c0.8,1,1.4,1.4,2.8,1c4.8-1.4,9.6-2.8,14.5-3.8c8.4-1.9,16.9-3.6,25.4-5.2c6.4-1.2,12.9-2,19.7-3c-2.2-4.4-4.1-8.3-6.1-12.2 c-0.2-0.4-1.3-0.7-1.9-0.5c-3.6,0.9-7.1,2.1-10.6,3c-9.1,2.4-18.3,4.5-27.7,5.3c-5.7,0.5-11.4,1.1-17,2.2 c-15.8,3.2-30.9,8.6-45.6,15c2.4,4.3,4.8,8.5,7.4,12.7c0.2,0.4,1.3,0.5,1.8,0.3c4.4-1.6,8.7-3.4,13.1-5.1 C164.5,343.3,171,341,178.1,338.5z M250.3,335.3c-7.3,1.5-14.2,2.9-21,4.2c-5.1,0.9-10.4,1.4-15.5,2.5c-7.6,1.6-15.1,3.5-22.6,5.3 c5.3,8.4,10.5,16.6,15.8,25.1c15.7-5.4,31.6-10.9,47.7-16.5C253.1,349,252.9,341.8,250.3,335.3z M106.8,377.1 c3.8,11.6,6.5,22.9,12.2,33c11.7-5.6,23.2-11.1,34.9-16.7c-3.1-10.2-8.4-19.7-12.7-29.7C129.5,368.2,118.2,372.6,106.8,377.1z M148.7,361.1c4.5,9.7,9,19.3,13.5,29c11.7-4.8,23.7-9.7,35.8-14.6c-0.5-1.1-0.9-2.3-1.5-3.4c-3.9-7.2-7.9-14.5-11.9-21.7 c-0.3-0.5-1.2-1-1.7-0.9C171.2,352.5,159.9,356.7,148.7,361.1z M315.4,290.9c-9.6,7-18.6,13.4-27.5,19.9c-0.4,0.3-0.6,1.2-0.4,1.8 c2.9,9.7,5.9,19.4,9,29.6c11.2-7.5,22.2-14.8,33.4-22.4C325,310,320.3,300.7,315.4,290.9z M286.9,346.4c-2.1-10.2-4.1-20-6.1-30 c-7.9,5.9-14.6,12.9-23.5,16.2c2.7,7,5.3,13.8,8,20.8C272.4,351.2,279.6,348.8,286.9,346.4z M95,352.7c2.6,5.2,5.1,10.3,7.5,15.1 c11.5-4.8,22.8-9.5,34.2-14.2c-2-3.9-4-7.9-6.1-11.8c-0.5-0.9-0.8-1.7-2.4-1.2C117.4,344.7,106.4,348.6,95,352.7z M243.4,309.7 c2.2,4.1,4.4,7.9,6.3,11.8c0.7,1.3,1.6,1.4,2.7,1.1c2.2-0.6,4.4-1.1,6.6-1.9c7.1-2.6,12.8-7.6,19.1-11.6c0.4-0.3,0.8-1,0.7-1.4 c-0.9-3.2-2-6.3-3-9.5C264.8,302.1,254.2,305.9,243.4,309.7z M352.7,422.5c2.3,5.1,4.6,10.1,6.8,15c2.2-3.5,4.7-7.4,7.2-11.3 c0.8-1.2,1.5-2.2,3.4-1.4c-0.2,0.7-0.4,1.4-0.7,2.1c-2.2,4.4-4.3,8.7-6.6,13.1c-0.9,1.7-1.1,3.2,0,4.9c1.2,2,2.1,4.1,3,6.2 c1.1,2.8,0.5,5.1-2.1,7.3c-2.8-2.7-2.7-6.7-4.6-10c-0.8,0.9-1.4,1.7-2.2,2.5c-0.5,0.4-1.2,0.7-1.7,1c-0.4-0.7-0.9-1.3-1-2 c-0.3-2.2,0.3-4.3,1.6-6.1c0.9-1.3,1.1-2.2,0.1-3.7c-2.6-3.8-4.8-7.8-7.4-12c-3.7,3.4-6,8.8-11.4,10.4c-0.2-0.2-0.3-0.3-0.5-0.5 c0.7-0.8,1.4-1.6,2-2.5c2.3-3.7,4.5-7.4,6.7-11.2c0.3-0.5,0.1-1.5-0.2-2c-3-4.4-7.4-7.1-11.9-9.7c-0.9-0.5-1.9-0.9-3.2-1.5 c-5.3,7.9-10.4,15.8-15.8,23.5c-2,2.9-4.7,5.3-7.2,7.9c-0.4,0.5-1.5,0.8-1.9,0.6c-0.5-0.3-0.9-1.3-0.9-1.9c0-4.1,1.2-8,3.5-11.2 c5.2-7.2,10.5-14.4,16.3-21.2c8.7-10.3,17-20.9,23.4-32.8c1.3-2.3,3.5-3,6-4.3c-0.5,1.2-0.8,2-1.2,3c5.9,1.5,10.3,5,14.1,10.1 c1.8-4.2,3.7-8.2,5.2-12.2c1.6-4.4,2.9-9,4.4-13.5c0.3-0.8,0.9-1.6,1.6-2c1.9-1.4,4-2.6,5.5-3.6c0.9,1.1,1.5,2.3,2.5,3.1 c3.2,2.6,6,5.6,7.7,9.4c1.7,3.8,1.2,7.8,0,11.7c-0.1,0.4-0.5,0.8-0.9,1.3c-4.2-5.2-5-12.3-10.2-16.9c-1.4,4.7-2.6,9.3-4.3,13.8 c-1.8,4.8-3.9,9.6-6,14.3c-0.4,1-0.5,1.7,0,2.6c2.4,4.6,4.8,9.3,7.1,14c0.2,0.4,0.2,0.8,0,1.5c-4-3.5-6.5-8.1-9.7-12 C363.6,405.1,358,414,352.7,422.5z M348.5,418.1c5.3-10,10.4-19.7,15.5-29.4c-2.8-4.4-6-8.4-11-10.6c-1.7-0.8-2.5-0.8-3.5,1.1 c-2.8,5.6-5.7,11-8.8,16.4c-2.5,4.3-5.3,8.3-8.1,12.6C338.6,410.2,343.8,413.4,348.5,418.1z M226.4,411.2c-1.6,1-3.5,1.7-4.5,3.1 c-1.5,2.2-2.4,4.9-3.4,7.4c-3,7.5-4.8,15.3-5.9,23.2c-0.3,2.2,0.5,5.7,1.5,6.6c0.6-11.2,5.8-21,10.1-31c1.9,16.5,2.8,25,5.8,27.2 c-1.8-12.5-0.6-24.9-1.1-37.6C227.9,410.5,227.1,410.7,226.4,411.2z" fill="#9EDDE1"/></g><g id="change4_1"><path d="M414.3,333.8c0,1,0,1.6,0,2.3c0.1,10.6-1.6,20.9-4.4,31.1c-5.7,20.7-12.6,41.1-21,60.9 c-5.8,13.7-12.3,27.1-18.9,40.4c-2.1,4.2-5.5,7.9-8.7,11.5c-3.2,3.6-7.1,3.2-9.8-1c-4.1-6.6-7.9-13.4-11.9-20.1 c-2.8-4.7-5.8-9.2-10-12.9c-4.4-3.9-9-3.5-14-1.5c-8.3,3.4-14.5,9.5-20.3,16.1c-1.3,1.5-2.6,3-3.8,4.5c-0.3-0.1-0.5-0.2-0.8-0.2 c0.1-0.8-0.2-1.9,0.2-2.5c5.5-8.2,11.8-15.7,20.4-20.8c3.4-2,7.3-3.3,11.1-4c3.9-0.7,7.7,0.9,10.9,3.4c6.9,5.4,11.7,12.5,16.2,19.8 c2.2,3.6,4.7,7.1,7.5,11.2c2-3.2,3.9-5.7,5.3-8.5c12.4-24.1,22.9-49.1,31.4-74.8c3.5-10.7,6.6-21.7,9.5-32.6 c1.3-4.9,1.6-10.1,2.4-15.1c-0.2-0.2-0.5-0.3-0.7-0.5c-1.4,1.1-2.9,2.1-4.3,3.3c-3.7,3.3-7.5,6.4-10.9,10 c-3.1,3.3-7.2,4.6-10.9,6.6c-10.2,5.4-20.5,10.5-30.9,15.6c-4.1,2-8.5,3.4-12.6,5.3c-1.6,0.7-3.2,1.9-4.4,3.2 c-5.9,6.6-11.5,13.4-17.4,19.8c-7.7,8.4-15.5,16.7-23.5,24.7c-4.1,4.1-8.7,7.6-13.1,11.3c-2,1.7-4.1,3.5-6.2,5 c-2.4,1.7-4.3,1.1-6.1-1.2c-2.7-3.2-3.1-7.2-4.1-11.1c-1.4-5.5-3-11-4.4-16.5c-0.5-1.8-0.9-3.6-1.4-5.7c-4.2,1.4-8.1,2.8-12.1,4 c-7,2.2-14,4-20.9,6.4c-3.6,1.2-6.8,3.4-10.2,5.2c-2.7,1.4-5.3,2.9-7.9,4.4c-0.6,0.4-1.3,1.2-1.3,1.9c-0.2,12.2,1.1,24.2,4.4,36 c0.2,0.7,0.5,1.4,1,2.7c2.1-2.5,4-4.7,5.8-7c5.3-6.8,10.6-13.5,17.2-19.1c4.9-4.1,10.2-7.2,17-6.3c2.5,0.3,4.8,1,6.6,2.8 c2,2,3.9,4,5.4,6.3c1,1.7-0.5,4.5-2.5,5.9c-1.8,1.2-3.5,0.6-5-0.6c-1.3-1.1-2.6-2.2-3.7-3.4c-1.5-1.5-3.2-1.6-5-1 c-7,2-11.8,6.8-16.4,12c-4.6,5.1-8.9,10.5-13.3,15.8c-0.9,1-1.8,2-2.9,2.8c-3.4,2.5-6.6,2.1-8.6-1.8c-1.7-3.3-2.7-7-3.6-10.6 c-2.3-9.6-3.4-19.3-3-29.2c0-0.7-0.1-1.4-0.1-2.4c-33,17.1-65.8,34-99,51.1c0.5-0.8,0.7-1.5,1.2-1.9c5.9-5.1,11.5-10.5,17.7-15.1 c10.5-7.7,21.2-15.3,32.3-22.2c13.5-8.4,27.4-16.5,41.4-24.1c12.6-6.8,25.5-12.8,38.4-19c8.9-4.3,17.9-8.1,26.9-12.2 c1.2-0.5,2.3-1,2.5,1c2.9-1.5,5.5-2.9,8.2-4.3c15.9-7.9,32.4-14.6,49.2-20.3c14.7-5,29.2-10.7,43.8-16.1c4.2-1.6,8.4-3.1,12.7-4.6 c1.6-0.5,1.7-0.9,0.8-2.4c-3.7-6.2-7.3-12.4-10.5-18.8c-5.2-10.3-10.1-20.9-13.1-32.1c-1.8-6.8-2.9-13.8-4.3-20.7 c-0.8-3.7-1.8-7.3-2.6-11c-0.5-2.2-0.8-4.4-1.3-6.6c-0.1-0.4-0.3-0.7-0.5-1.3c-1.9,1.6-3.6,3-5.3,4.4c-6.6,5.8-14.4,9.3-22.8,11.7 c-7.9,2.2-15.7,4.7-23.6,6.9c-3.6,1-7.3,1.5-10.9,2.3c-1.6,0.4-3.3,0.8-4.9,1.3c-6.8,2.2-13.5,4.5-20.4,6.6 c-8.9,2.8-17.9,5.6-26.9,8.1c-11.8,3.4-23.8,6.3-35.6,9.8c-13.9,4.2-27.7,8.6-41.4,13.4c-13.9,5-27.5,11.1-41.5,15.9 c-18.5,6.4-37.3,12-56.1,17.8c-2.3,0.7-4.8,1-7.3,1.2c-0.8,0.1-1.7-0.7-2.5-1.1c0.6-0.5,1.2-1,1.9-1.4c6.4-3.5,12.8-7.1,19.3-10.4 c13.5-6.9,26.8-14,40.5-20.4c21.1-9.9,43.2-17.2,65.5-23.9c0.5-0.2,1.1-0.3,1.7-0.4c-1.3-4.2-2.9-8.3-3.8-12.5 c-2.1-9.2-4.2-18.3-5.8-27.6c-1.3-7.6-2.2-15.3-2.5-22.9c-0.5-11.3-0.5-22.7-0.4-34.1c0-6,0.6-12.1,1.2-18.1 c0.7-6.7,1.6-13.4,2.4-20.2c0.1-0.7,0-1.4,0-2.3c-4.6-1.3-9.2-2.7-13.8-4c-0.1,0.1-0.2,0.3-0.3,0.4c2.4,1.7,4.9,3.4,7.4,5.1 c0.9,0.6,2.2,1.3,1.5,2.5c-0.4,0.7-1.9,1.3-2.8,1.1c-7.3-1.6-14.9-2.2-21.8-5.4c-8.6-4-16.5-9.1-21.2-17.8 c-4.8-8.9-4.4-15.3,2-24.4c6.7-9.4,15.7-15.9,26.7-19.6c6.5-2.2,13.1-4.1,19.6-6.4c7.6-2.7,14.4-7,19.7-13.1 c4.2-4.8,7.5-10.5,11.1-15.8c4.2-6.2,8-12.7,12.5-18.6c8.6-11.4,19.9-19.2,33.7-22.8c6-1.6,12.1-2.7,18.3-3.4 c8.5-0.9,16.5,1.8,24.1,5.2c2.7,1.2,5.6,2.3,8.2,3.8c1.3,0.7,2,2.3,3.3,3c1.2,0.8,2.7,1.3,4.1,1.4c2.7,0.2,5.5,0.2,8.3,0 c10.4-0.6,20.3,1.7,29.9,5.5c15.8,6.4,30.5,14.7,44.3,24.5c6.9,4.9,11.3,12,14.9,19.6c4.5,9.5,6.8,19.7,8.4,30.1 c1.5,9.1,2,18.2,1.6,27.3c-0.2,6-1,12-1.6,18c-0.4,4.4-0.8,8.8-1.3,13.2c-0.5,4.8-1.1,9.6-1.8,14.3c-0.7,5-1.6,10-2.5,15.1 c-1.2,6.6-2.4,13.1-3.6,19.7c-0.1,0.8-0.3,1.6-0.4,2.6c3.3-2.2,6.5-4.5,9.7-6.5c3.8-2.4,7.6-4.8,11.5-7.1c3.3-1.9,6.9-2.6,10.7-2.7 c6.2-0.1,12.4,0,18.2,2.4c0.9,0.4,1.7,1,2.6,1.4c4.6,2.3,9.2,4.6,13.8,6.9c3.3,1.7,5.7,4.3,5.8,8c0.1,4.2-0.5,8.5-1.1,12.8 c-0.5,3.2-1.7,6.3-2.4,9.5c-0.1,0.5-0.1,1.4,0.2,1.7c5.2,5.7,4.4,12.2,2.8,18.9c-0.4,1.5-0.8,3-1.4,4.4c-0.3,0.8-1.1,1.5-1.8,2.4 c0.4,1.7,1,3.8,1.3,6c0.5,4.2-1,8-2.7,11.8c-1,2.3-2.3,4.5-3.6,6.7c-0.6,1.1-0.9,2.2-0.4,3.5c1.2,3.6,0.2,7-1.4,10.2 c-4,8.2-8.8,15.9-15.6,22.2C428.7,338.4,422.1,337.9,414.3,333.8z M346.5,256.4c2.4-0.3,3.8-1.9,5.4-3.5c3.3-3.4,6.9-6.5,10.2-9.9 c0.8-0.8,1.3-2.1,1.4-3.3c0.3-3.3,0.4-6.6,0.5-9.9c0.1-2.7,0-5.5,0-7.9c-2.2,3.6-4.5,7.5-6.9,11.3c-0.7,1.2-1.9,2.1-3.2,3.5 c0-1.1-0.1-1.6,0-2c3.4-10,6.8-20.1,10.4-30c2.7-7.5,6-14.9,4.4-23.2c-0.3-1.8-0.4-3.9-1.4-5.4c-1.7-2.4-4.1-3-7.7-0.3 c-4.6,3.4-7.5,8.1-9.6,13.3c-1.5,3.6-1.7,7.2-0.2,11c1.2,3,1,6.2-0.3,9.2c-1.5,3.4-2.9,6.8-7.2,7.8c-1.8,0.4-3.2,0-4.4-1.2 c-1.3-1.4-0.1-2.5,0.7-3.6c0.1-0.1,0.1-0.2,0.1-0.2c0.2,0.6,0.3,1.9,0.6,1.9c0.8,0.1,1.9-0.1,2.6-0.5c3.7-2.4,4.9-7.9,2.5-11.6 c-2.4-3.7-3-7.8-2.3-11.9c1-6.3,3.7-11.9,7.4-17c5.2-7.3,12-9.6,19.6-6.5c0.1,0,0.2-0.1,0.4-0.2c-0.3-2.3-1.8-3.5-3.9-3.6 c-2.1-0.1-4.3-0.2-6.3,0.5c-5.9,2-11.8,4.3-14.1,11c-0.3,0.8-0.8,1.5-1.2,2.2c-5.6,9.2-8.2,19.5-10.9,29.7c-1.1,4-1.9,8.1-4.5,11.5 c-3.1,4.1-6.9,4.3-10.2,0.5c-2.7-3.2-4.4-7-5.3-11.1c-1.9-8.8-2.3-17.8-2.5-26.8c-0.1-5.7-0.1-11.5,0-17.2c0-1.3-0.3-2.1-1.6-2.8 c-11.2-6-19.5-15-26.1-25.7c-1.8-3-3.7-5.9-5.7-8.9c-0.4,0.4-0.7,0.6-1,0.9c-8.1,8.6-17.8,14.9-28.6,19.5 c-13.9,5.9-27.9,11.4-42.8,14.2c-3.8,0.7-7.5,2-11.2,2.2c-9.4,0.5-18.7,0-27.8-2.3c-1.6-0.4-2.1,0.2-2.2,1.6 c-0.3,3.8-0.6,7.5-0.8,11.3c-0.3,5.7-0.9,11.4-0.8,17.1c0.1,12.1,0.3,24.3,0.9,36.4c0.3,6.4,1.2,12.8,2.1,19.2 c1.5,11.3,4,22.4,7.3,33.2c1.6,5.2,3.5,10.2,5.3,15.3c8.3-1.9,16.2-3.6,24.1-5.4c8.5-1.9,16.9-3.7,25.4-5.7 c7.4-1.7,14.9-3.2,22.2-5.3c6.7-1.9,13.3-4.5,19.9-6.9c8.1-2.9,16.2-5.9,24.3-8.9c10-3.7,19.8-7.9,29.9-11.2 c6.2-2,12.8-2.6,19.3-3.8c1.7-0.3,2.1,0.3,1.5,1.9c-0.1,0.4-0.3,1-0.2,1.3C344.5,252.6,345.5,254.5,346.5,256.4z M445.7,291.3 c1.4-2.8,2.8-5.4,3.8-8c0.9-2.3,1.9-5.1-0.1-7.2c-4.2-4.6-8.3-9.2-14.1-12c-7.5-3.6-15-7.4-22.5-11.2c-1.4-0.7-2.6-1.5-1.7-3.7 c7.1,0.8,13.5,3.9,20.1,6.2c6.7,2.3,13.3,4.8,18.8,10c0.6-2.5,1.2-4.6,1.6-6.8c0.5-2.5,1.1-5.1-1-7.2c-2.2-2.2-4.4-4.4-7-6.1 c-6.7-4.5-14.1-7.6-21.7-10.2c-1.3-0.4-2.3-1-1.9-2.4c0.4-1.5,1.6-1,2.6-0.6c0.2,0.1,0.4,0.1,0.6,0.1c7.9,1.5,15.5,3.9,22.7,7.3 c3,1.4,5.9,3.2,8.8,4.9c0.1-0.2,0.3-0.4,0.2-0.6c-1-5.6-1.9-11.3-3-16.9c-0.1-0.7-1.1-1.4-1.8-1.8c-3.6-1.8-7.4-3.4-11-5.3 c-2.5-1.4-4.6-3.7-7.2-4.6c-5.6-2.1-11.4-3.7-17.6-2.6c-6.6,1.1-12.1,4.4-16.3,9.1c-5.2,5.9-9.2,12.9-14.1,19.2 c-5.4,7-11,13.9-16.9,20.5c-4.1,4.6-8.9,8.7-13.3,13.1c-0.6,0.6-1,1.8-0.8,2.5c2.2,8.7,5.3,17.2,9.7,25.1 c6.8,12.2,13.8,24.3,20.8,36.4c0.2,0.3,1,0.6,1.3,0.5c8.1-2.6,15.5-6.4,20.6-13.6c5.5-7.9,11-15.8,16.5-23.7 c1.3-1.8,2.7-3.6,4.2-5.3c1.1-1.2,4.6-0.3,4.7,1.2c0.1,1.7,0.1,3.4-0.1,5.1c-0.9,6.2-3.7,11.7-6.6,17.2c-0.5,0.9-0.8,1.9-1.2,2.8 c0.4,0.2,0.5,0.3,0.6,0.3c0.2,0,0.4,0.1,0.6,0c4.5-1.4,7.8-4.3,9.9-8.3c2.4-4.6,4.2-9.5,6.2-14.3c0.2-0.4,0.3-1,0.1-1.3 c-2.9-4.5-5.8-9.1-10.6-11.8c-6.2-3.7-12.6-7.1-18.9-10.6c-0.7-0.4-1.7-0.7-2.1-1.3c-0.5-0.7-0.6-1.7-0.6-2.5c0-0.2,1.4-0.6,2-0.5 c4.4,1.3,8.9,2.5,13.2,4c6.9,2.5,13.4,5.5,18.4,11.2C443.3,288.6,444.3,289.8,445.7,291.3z M283,42.6c0.2-1.8-0.1-3.4-1.8-4 c-1.8-0.6-3.9-1.3-5.7-1.1c-5.3,0.5-10.7,1.1-15.9,2.3c-11.4,2.5-21.9,7.2-32.2,12.6c-1.6,0.9-3.1,2.2-4.4,3.5 c-0.6,0.6-1,1.8-0.7,2.6c0.2,0.5,1.5,1,2.2,1c2.1-0.1,4.2-0.2,6.2-0.7c9.3-2.1,18.5-4.6,28.2-3.5c3.8,0.4,7.4,1.4,11.2,2.1 c0,0.2-0.1,0.4-0.1,0.6c-3.6,1-7.2,2-10.8,3.1c-10.1,3.2-19.4,7.7-26.4,15.9c-0.9,1-1.6,2.3-2.1,3.6c-0.6,1.7,0.3,2.9,2,3.4 c1.2,0.3,2.5,0.6,3.7,0.5c5.3-0.5,10.5-1.3,15.8-1.8c4.9-0.5,9.9-1,14.9-1.4c0.5,0,1.1,0.2,2.2,0.4c-4.4,2.2-8.4,4.2-12.3,6.2 c-5.5,2.8-9.9,7-14.1,11.5c-3.8,4.2-7.9,8.2-12.4,11.8c-8.1,6.5-17.7,10.3-27.2,14.1c-7.1,2.8-14.1,5.6-21.1,8.5 c-0.8,0.3-1.4,1.1-2.2,1.7c0.1,0.3,0.2,0.6,0.3,0.9c1.7-0.1,3.5-0.1,5.2-0.4c6.8-1.3,13.7-2.5,20.4-4.2c7.7-2,14.6-5.9,21.4-9.8 c7.6-4.3,14-10,19.6-16.8c4.7-5.6,10-10.4,16.7-13.5c4-1.9,7.6-4.4,11.4-6.6c2.1-1.2,2.9-3,2.3-5.1c-0.6-2.2-1.9-3.9-4.4-4.3 c-1.7-0.3-3.4-0.6-5-0.5c-7.4,0.7-14.7,1.6-22.1,2.4c-1.8,0.2-3.6,0.4-5.9,0.7c6-5.5,12.4-8.7,19.4-11.1c5.2-1.8,10.4-3.4,15.6-5.1 c2.9-1,3.9-3.7,2.1-6.1c-1-1.4-2.6-2.6-4.1-3.3c-5.5-2.4-11.3-3.2-17.2-3.3c-5,0-10.1,0.8-15.5,1.2c4.6-1.9,8.7-4,13.2-5.4 c6.2-1.9,12.6-3.5,19-4.7C275.7,39.9,279.9,38.5,283,42.6z M359.7,115.4c0.3,0,0.5,0,0.8,0c0.8,6.4,1.5,12.8,2.5,19.1 c0.6,3.6,1.5,7.1,4,10.1c1.5,1.8,3.1,1.3,4.5-0.4c2.9-3.7,4.2-7.9,4.7-12.5c0.8-6.5,1.7-13.1,2.5-19.6c1.4,3.8,2.5,7.5,3.7,11.3 c1.2,3.7,2.2,7.4,4.4,10.7c0.3-0.6,0.4-1.1,0.4-1.5c-0.3-4.6-0.4-9.1-0.9-13.7c-0.7-6.2-1.4-12.3-2.6-18.4c-1-5.2,0-4.3-5.2-4.3 c-4.6,0-7.3,2.2-8.8,6.6c-0.3,0.8-0.6,1.6-0.8,2.2c-1.7-1.1-3.2-2.6-5-3.1c-5.5-1.7-10.4,0.7-12.4,6.2c-1.4,3.9-2.1,8.1-3.1,12.2 c-0.3-1.4-0.6-3.2-1.1-4.7c-0.6-1.7-1.3-3.3-2.4-4.7c-0.4-0.5-1.9-0.5-2.9-0.3c-0.4,0.1-0.7,1.2-0.7,1.9c0,1,0.2,1.9,0.4,2.9 c1.1,7.4,2.1,14.9,3.6,22.3c0.6,3.1,2.3,6.1,3.8,8.9c0.7,1.3,2.4,1.7,3.5,0.2c1.2-1.7,2.7-3.6,3.2-5.6c1-4.8,1.5-9.8,2.2-14.6 C358.5,122.8,359.1,119.1,359.7,115.4z M309.5,390.7c-1.1,0.3-1.7,0.5-2.3,0.7c-9.3,3.6-18.6,7.2-27.9,10.7 c-5,1.9-10.1,3.8-15.2,5.6c-1.1,0.4-1.9,0.9-1.2,2.3c0.2,0.3,0.1,0.8,0.1,1.2c0.4,3,0.4,6.2,1.4,9.1c1.5,4.6,3.6,8.9,5.4,13.4 c0.5,1.2,1,1.2,1.9,0.6c3.2-1.9,6.3-3.8,9.6-5.7c2.1-1.2,3.6-2.7,5-4.6c5.1-7.5,10.3-15,15.5-22.5 C304.3,398,306.7,394.6,309.5,390.7z M350.8,344.8c-2.7,0.5-5.3,1.1-8,1.5c-5.4,0.9-10.8,1.5-16.1,2.6c-7.4,1.6-14.7,3.4-22,5.4 c-3.6,1-7.1,2.5-10.6,4c-1.1,0.5-2.1,1.3-1.8,2.7c4.6-0.5,9.1-1,13.5-1.5c3-0.3,6-0.5,9-1c5.7-0.9,11.5-1.8,17.2-2.9 c7.1-1.4,14.1-2.9,21.1-4.4c2.4-0.5,4.5-1.6,6-3.7c2.1-3.1,1.7-4.6-0.9-5.6c-3.5-1.4-7.1-2.5-10.7-3.3c-6.2-1.4-12.6-2.4-18.9-3.8 c-6.2-1.3-12.4-2.7-18.6-4.1c-2-0.5-4-1.2-6-1.9c-0.7,1.7-0.3,2.7,1,3.3c1.5,0.7,3.1,1.5,4.7,1.9c10.5,2.7,21,5.3,31.5,7.9 c3.3,0.8,6.5,1.6,9.8,2.5C350.9,344.5,350.8,344.6,350.8,344.8z M82.9,269.6c0.3,0.2,0.7,0.5,1,0.6c6,2,12,4.2,18.1,5.8 c6.6,1.7,13.4,3,20.2,4.3c3.8,0.7,7.7,1.2,11.5,1.8c1.7,0.3,2.6-0.6,2.9-2.1c0.3-1.5,0.3-3.2-1.7-3.8c-2.7-0.9-5.4-1.9-8.1-2.7 c-12.5-3.7-25.1-6.4-38.3-5.7c-1.9,0.1-3.8,0.6-5.8,1C82.8,269,82.8,269.3,82.9,269.6z M137.3,256c-3.4-3.8-6.7-7.6-10.3-11.2 c-2.6-2.7-5.4-5.3-8.3-7.7c-1.7-1.4-3.7-1.3-5.7-0.4c-1.3,0.6-1.9,1.4-1,2.8c0.8,1.2,1.5,2.6,2.5,3.6c3.2,3.1,6.5,6.3,10,9.1 c4.1,3.3,8.4,6.3,12.7,9.3c1.7,1.2,2.7,0.7,2.8-2.1C139.4,258.6,138.5,257.2,137.3,256z M105.9,297c2.2,0.1,4.5,0.4,6.7,0.3 c3.3-0.1,6.6-0.2,9.8-0.9c7.7-1.5,15.4-3.4,23.1-5.1c1.4-0.3,2-1.2,1.7-2.6c-0.3-1.3-0.9-2.2-2.4-2c-3.7,0.5-7.5,0.9-11.2,1.3 c-8,0.8-15.7,2.8-23.2,5.8c-1.6,0.6-3.2,1.5-4.7,2.3C105.7,296.5,105.8,296.7,105.9,297z M215.7,213.1c-1.8,4.9-3.9,9.7-5.4,14.7 c-3.1,10.4-5.8,20.9-6.9,31.8c-0.7,6.2-0.6,12.3,2.2,18.1c2,4.3,5.7,6.1,9.3,3.9c2.8-1.7,5.4-3.8,7.5-6.3c3.3-3.8,6-8.1,9-12.2 c0.9-1.2,1.8-2.3,2.7-3.5c-0.1-0.2-0.2-0.3-0.4-0.5c-1.4,0.3-2.8,0.4-4,0.9c-4.9,2-9.1,5.2-12.7,9.1c-1.7,1.9-3.7,3.5-5.6,5.3 c-2.2-3.5-2.9-6.9-2.7-10.3c0.2-5.9,0.7-11.8,1.7-17.5c1.4-8.2,3.4-16.3,5.3-24.4c0.9-3.6,2.3-7.1,3.4-10.7 C217.2,210.7,216.3,211.5,215.7,213.1z M276.2,187.1c-4.8,0.2-9.7,0.2-14.5,0.9c-7.7,1.1-15.4,2.7-23,4.3c-1.1,0.2-2.5,1.4-2.8,2.5 c-0.6,1.7-0.7,3.7-0.5,5.6c0.4,3.5,2.3,4.3,5.3,2.5c0.5-0.3,1-0.7,1.6-1c10.7-4.8,21.7-8.8,33.3-10.7c1.7-0.3,3.2-0.8,3.9-3.3 C278.3,187.5,277.2,187,276.2,187.1z M196,204.6c1.4-2.2,0.3-4.5-2.3-4.7c-4.2-0.5-8.5-0.3-12.7,0.5c-3.7,0.7-7.4,1.2-11.2,1.5 c-2.8,0.2-4.3,1.7-4.3,4.6c0,1.4,0.3,1.8,1.9,1.5c2.9-0.5,5.8-1,8.7-0.9c4.5,0.1,8.9,0.7,14,1.1C191.8,208.2,194.8,206.4,196,204.6 z M263.8,216.5c-3.4,0.1-6.5,1.3-9.4,3.1c-3.2,1.9-6.5,2.3-9.9,0.6c-0.6-0.3-1.1-0.7-1.6-0.9c-0.6-0.2-1.4-0.3-2-0.1 c-0.4,0.2-0.7,1.2-0.5,1.6c0.6,1.2,1.2,2.7,2.2,3.3c2.5,1.6,5.3,2.9,8,4.2c0.5,0.3,1.4,0.2,2,0c6.6-1.7,11.6-5.6,16.4-11 C267,217,265.4,216.4,263.8,216.5z M185.1,235.1c3.3-1.6,6.5-3.5,10-4.8c2.1-0.8,3.5-2,4.7-3.8c1.2-1.9-0.7-2.5-1.3-3.6 c-0.2-0.3-1.6-0.1-2.3,0.1c-1,0.3-1.9,1.2-2.8,1.2c-3.9,0.3-6.7,3-9.9,4.7c-1.3,0.7-2.2,0.7-3.3,0.1c-1.3-0.7-2.5-1.5-3.8-2.1 c-0.5-0.2-1.7-0.1-1.7,0.1c-0.2,0.7-0.4,1.8,0,2.2c1.6,1.7,3.4,3.2,5.2,4.7c0.9,0.8,2.1,1.3,3.2,1.9 C183.8,235.7,184.5,235.4,185.1,235.1z M201.2,203c0.1-0.4,0.2-1.1,0-1.2c-0.3-0.2-1-0.3-1.4-0.2c-2.2,0.8-2.8,2.5-1.9,5.1 C200.2,205.8,200.2,205.9,201.2,203z" fill="#251E60"/></g></svg>