<?xml version="1.0" encoding="UTF-8"?><svg xmlns="http://www.w3.org/2000/svg" xmlns:xlink="http://www.w3.org/1999/xlink" height="512.4" preserveAspectRatio="xMidYMid meet" version="1.0" viewBox="0.1 -0.9 1908.2 512.4" width="1908.2" zoomAndPan="magnify"><g><g><path d="M 414.273438 325.324219 C 416.359375 332.308594 415.527344 342.695312 411.390625 360.769531 C 407.253906 378.839844 399.8125 404.597656 387.777344 421.933594 C 375.746094 439.269531 359.125 448.183594 345.304688 455.699219 C 331.476562 463.21875 320.453125 469.332031 313.9375 474.792969 C 307.425781 480.253906 305.425781 485.0625 302.15625 463.515625 C 298.886719 441.964844 294.351562 394.0625 294.996094 356.382812 C 295.644531 318.703125 301.476562 291.25 304.96875 276.550781 C 308.460938 261.847656 309.609375 259.902344 307.601562 258.335938 C 305.59375 256.773438 300.425781 255.589844 295.789062 251.410156 C 291.148438 247.230469 287.042969 240.054688 286.640625 230.171875 C 286.234375 220.289062 289.53125 207.703125 295.570312 200.164062 C 301.601562 192.632812 310.375 190.148438 316.207031 192.789062 C 322.035156 195.433594 324.929688 203.203125 328.296875 209.980469 C 331.671875 216.757812 335.523438 222.546875 338.835938 230.523438 C 342.148438 238.503906 344.914062 248.667969 349.976562 258.835938 C 355.03125 269.003906 362.382812 279.171875 371.460938 287.898438 C 380.535156 296.625 391.34375 303.910156 399.253906 309.339844 C 407.164062 314.769531 412.179688 318.34375 414.273438 325.324219" fill="#fcd7cf" fill-rule="evenodd"/></g><g><path d="M 0.09375 511.539062 C 2.726562 507.074219 5.765625 502.1875 9.273438 496.84375 C 26.496094 470.640625 55.167969 433.46875 78.25 411.210938 C 101.332031 388.957031 118.820312 381.613281 149.679688 373.773438 C 180.53125 365.929688 224.753906 357.589844 252.351562 350.976562 C 279.949219 344.367188 290.921875 339.492188 296.105469 342.84375 C 301.289062 346.195312 300.679688 357.78125 311.648438 371.804688 C 322.625 385.824219 345.183594 402.285156 356.90625 415.0625 C 368.632812 427.839844 372.792969 435.597656 377.0625 434.378906 C 381.328125 433.160156 385.703125 422.964844 393.183594 410.492188 C 400.664062 398.019531 407.976562 384.605469 408.589844 376.375 C 409.195312 368.144531 403.101562 365.097656 411.023438 369.058594 C 418.953125 373.023438 440.898438 383.996094 464.066406 395.273438 C 487.234375 406.554688 511.617188 418.136719 530.214844 447.707031 C 541.054688 464.945312 549.929688 488.296875 557.132812 511.539062 L 0.09375 511.539062" fill="#7bd2ca" fill-rule="evenodd"/></g><g><path d="M 293.507812 330.042969 C 289.15625 328.226562 281.347656 333.039062 279.492188 342.933594 C 277.632812 352.828125 281.726562 367.804688 289.265625 384.757812 C 296.804688 401.710938 307.792969 420.636719 317.632812 434.804688 C 327.46875 448.976562 336.15625 458.390625 341.960938 458.5 C 347.765625 458.609375 350.6875 449.417969 354.78125 442.1875 C 358.875 434.957031 364.140625 429.6875 368.46875 430.390625 C 372.796875 431.097656 376.179688 437.78125 375.765625 436.613281 C 375.355469 435.445312 371.144531 426.433594 361.960938 416.355469 C 352.773438 406.28125 338.617188 395.148438 327.402344 383.699219 C 316.1875 372.253906 307.910156 360.492188 303.328125 350.394531 C 298.742188 340.296875 297.855469 331.855469 293.507812 330.042969" fill="#fdf7f3" fill-rule="evenodd"/></g><g><path d="M 414.574219 343.8125 C 411.78125 348.855469 408.742188 364.035156 404.546875 377.304688 C 400.351562 390.570312 394.996094 401.917969 388.234375 412.296875 C 381.480469 422.675781 373.320312 432.082031 373.933594 434.226562 C 374.546875 436.371094 383.929688 431.257812 390.832031 430.460938 C 397.734375 429.664062 402.152344 433.1875 404.804688 438.953125 C 407.460938 444.71875 408.347656 452.730469 410.023438 450.40625 C 411.703125 448.078125 414.164062 435.417969 416.265625 420.988281 C 418.371094 406.5625 420.117188 390.371094 421.089844 378.070312 C 422.0625 365.773438 422.257812 357.371094 421.085938 350.621094 C 419.910156 343.871094 417.367188 338.769531 414.574219 343.8125" fill="#fdf7f3" fill-rule="evenodd"/></g><g><path d="M 441.792969 123.429688 C 450.9375 135.097656 454.757812 154.746094 457.0625 175.664062 C 459.367188 196.582031 460.15625 218.761719 458.734375 240.117188 C 457.3125 261.476562 453.6875 282.007812 448.257812 296.371094 C 442.828125 310.734375 435.601562 318.925781 424.808594 322.5625 C 414.019531 326.195312 399.664062 325.273438 384.929688 317.933594 C 370.195312 310.597656 355.078125 296.84375 347.996094 287.257812 C 340.914062 277.675781 341.871094 272.261719 340.320312 257.574219 C 338.765625 242.894531 334.703125 218.941406 331.515625 199.160156 C 328.328125 179.378906 326.019531 163.765625 328.265625 151.050781 C 330.511719 138.332031 337.316406 128.515625 350.648438 121.222656 C 363.984375 113.929688 383.84375 109.164062 401.011719 108.621094 C 418.179688 108.078125 432.648438 111.761719 441.792969 123.429688" fill="#fdf7f3" fill-rule="evenodd"/></g><g><path d="M 307.011719 272.925781 C 303.59375 276.503906 297.351562 277.1875 291.695312 267.535156 C 286.039062 257.886719 280.96875 237.90625 278.359375 213.347656 C 275.742188 188.789062 275.589844 159.652344 281.03125 140.015625 C 286.472656 120.378906 297.515625 110.242188 315.839844 102.816406 C 334.164062 95.386719 359.773438 90.671875 379.933594 91.847656 C 400.09375 93.023438 414.8125 100.101562 427.28125 100.644531 C 439.75 101.183594 449.972656 95.195312 455.335938 90.765625 C 460.699219 86.339844 461.207031 83.472656 460.570312 88.96875 C 459.9375 94.46875 458.15625 108.328125 451.921875 118.617188 C 445.683594 128.90625 434.988281 135.617188 422.84375 139.824219 C 410.699219 144.027344 397.101562 145.730469 380.992188 144.527344 C 364.882812 143.332031 346.25 139.230469 342.96875 139.324219 C 339.691406 139.417969 351.757812 143.699219 358.878906 150.199219 C 365.996094 156.699219 368.164062 165.414062 367.5 179.679688 C 366.835938 193.941406 363.335938 213.753906 358.085938 223.148438 C 352.835938 232.550781 345.835938 231.535156 340.96875 227.039062 C 336.105469 222.542969 333.371094 214.5625 329.601562 208.273438 C 325.828125 201.984375 321.015625 197.386719 315.171875 196.316406 C 309.328125 195.25 302.445312 197.707031 297.53125 203.152344 C 292.617188 208.601562 289.664062 217.039062 289.699219 225.578125 C 289.734375 234.121094 292.761719 242.765625 296.914062 247.921875 C 301.0625 253.078125 306.339844 254.746094 308.679688 258.816406 C 311.023438 262.882812 310.429688 269.351562 307.011719 272.925781" fill="#231f20" fill-rule="evenodd"/></g><g><path d="M 400.519531 190.953125 C 397.765625 190.464844 395.140625 192.304688 394.65625 195.054688 C 394.167969 197.808594 396.007812 200.433594 398.757812 200.921875 C 401.507812 201.40625 404.136719 199.570312 404.621094 196.816406 C 405.109375 194.066406 403.273438 191.4375 400.519531 190.953125" fill="#231f20" fill-rule="evenodd"/></g><g><path d="M 450.03125 187.605469 C 447.710938 187.195312 445.496094 188.742188 445.089844 191.066406 C 444.679688 193.386719 446.226562 195.601562 448.546875 196.011719 C 450.867188 196.421875 453.082031 194.871094 453.492188 192.550781 C 453.902344 190.230469 452.351562 188.015625 450.03125 187.605469" fill="#231f20" fill-rule="evenodd"/></g><g><path d="M 405.972656 177.515625 C 404.570312 177.238281 402.253906 174.554688 398.890625 173.285156 C 395.523438 172.019531 391.117188 172.171875 389.25 171.335938 C 387.382812 170.5 388.054688 168.679688 389.753906 167.378906 C 391.445312 166.074219 394.167969 165.296875 396.730469 165.816406 C 399.292969 166.339844 401.695312 168.164062 403.601562 169.667969 C 405.511719 171.171875 406.921875 172.347656 407.386719 174.003906 C 407.851562 175.660156 407.371094 177.792969 405.972656 177.515625" fill="#231f20" fill-rule="evenodd"/></g><g><path d="M 452.554688 161.398438 C 453.203125 161.996094 453.515625 162.785156 452.539062 163.664062 C 451.566406 164.542969 449.300781 165.511719 447.570312 167.085938 C 445.839844 168.660156 444.648438 170.839844 443.652344 171.765625 C 442.65625 172.6875 441.863281 172.359375 441.234375 171.199219 C 440.605469 170.039062 440.140625 168.054688 440.492188 166.347656 C 440.84375 164.644531 442.011719 163.21875 443.726562 162.203125 C 445.4375 161.191406 447.695312 160.589844 449.3125 160.492188 C 450.929688 160.394531 451.90625 160.800781 452.554688 161.398438" fill="#231f20" fill-rule="evenodd"/></g><g><path d="M 435.367188 194.941406 C 435.171875 196.574219 435.546875 202.832031 437.246094 207.714844 C 438.953125 212.59375 441.984375 216.101562 443.972656 217.351562 C 445.960938 218.605469 446.898438 217.601562 446.242188 215.953125 C 445.585938 214.300781 443.332031 212.003906 441.539062 209.121094 C 439.753906 206.238281 438.421875 202.769531 437.375 199.535156 C 436.328125 196.304688 435.566406 193.3125 435.367188 194.941406" fill="#f79593" fill-rule="evenodd"/></g><g><path d="M 345.492188 275.050781 C 345.921875 277.550781 353.1875 282.292969 362.308594 287.140625 C 371.433594 291.988281 382.421875 296.941406 394.117188 299.34375 C 405.816406 301.742188 418.226562 301.589844 427.066406 300.410156 C 435.90625 299.230469 441.175781 297.019531 444.632812 294.570312 C 448.09375 292.121094 449.734375 289.4375 447.882812 288.449219 C 446.027344 287.457031 440.671875 288.160156 432.894531 289.3125 C 425.117188 290.464844 414.90625 292.066406 401.996094 289.261719 C 389.089844 286.453125 373.476562 279.246094 362.46875 275.769531 C 351.464844 272.292969 345.0625 272.550781 345.492188 275.050781" fill="#fcd7cf" fill-rule="evenodd"/></g><g><path d="M 310.96875 195.628906 C 309.492188 194.832031 311.09375 193.726562 315.710938 193.746094 C 320.328125 193.773438 327.960938 194.925781 337.289062 199.777344 C 346.621094 204.628906 357.65625 213.179688 375.121094 217.609375 C 392.585938 222.035156 416.476562 222.339844 431.898438 219.816406 C 447.320312 217.289062 454.265625 211.9375 458.289062 210.527344 C 462.3125 209.121094 463.40625 211.65625 465.023438 216.105469 C 466.636719 220.550781 468.769531 226.902344 469.035156 235.84375 C 469.300781 244.785156 467.695312 256.320312 465.789062 265.972656 C 463.878906 275.625 461.664062 283.398438 451.90625 289.125 C 442.148438 294.851562 424.851562 298.527344 409.726562 297.851562 C 394.601562 297.179688 381.648438 292.148438 364.101562 284.390625 C 346.5625 276.636719 324.429688 266.152344 313.367188 260.910156 C 302.300781 255.671875 302.300781 255.671875 304.726562 255.804688 C 307.148438 255.941406 311.996094 256.210938 318.429688 257.574219 C 324.863281 258.9375 332.882812 261.394531 335.945312 255.65625 C 339.011719 249.914062 337.117188 235.976562 334.976562 227.09375 C 332.828125 218.207031 330.433594 214.375 328.15625 210.265625 C 325.878906 206.15625 323.714844 201.777344 320.355469 199.34375 C 316.996094 196.910156 312.445312 196.421875 310.96875 195.628906" fill="#7bd2ca" fill-rule="evenodd"/></g><g><path d="M 323.21875 228.851562 C 324.023438 225.152344 325.089844 219.742188 324.097656 214.816406 C 323.105469 209.886719 320.058594 205.441406 316.273438 204.089844 C 312.484375 202.730469 307.953125 204.464844 304.21875 207.945312 C 300.484375 211.425781 297.546875 216.652344 297.546875 222.691406 C 297.546875 228.734375 300.484375 235.59375 303.609375 240.511719 C 306.734375 245.425781 310.042969 248.398438 314.03125 250.074219 C 318.023438 251.75 322.695312 252.132812 325.03125 251.210938 C 327.367188 250.289062 327.367188 248.0625 326.367188 245.398438 C 325.363281 242.730469 323.359375 239.621094 322.621094 237.074219 C 321.890625 234.527344 322.421875 232.546875 323.21875 228.851562" fill="#fdf7f3" fill-rule="evenodd"/></g><g><path d="M 737.320312 255.070312 C 736.125 262.253906 734.46875 274.324219 734.039062 282.351562 C 733.605469 290.382812 732.53125 314.117188 737.914062 322.792969 C 743.296875 331.46875 753.265625 344.835938 765.132812 353.308594 C 777 361.785156 790.761719 365.375 803.226562 364.078125 C 815.6875 362.78125 826.851562 356.601562 836.828125 348.621094 C 846.796875 340.644531 861.109375 317.371094 866.195312 310.492188 C 871.28125 303.613281 869.015625 293.375 867.523438 286.792969 C 866.023438 280.210938 861.640625 271.039062 858.445312 260.171875 C 855.257812 249.300781 853.261719 236.734375 849.671875 234.644531 C 846.082031 232.546875 840.898438 240.921875 832.320312 247.003906 C 823.742188 253.089844 811.78125 256.878906 800.613281 258.175781 C 789.445312 259.472656 779.074219 258.273438 769.101562 255.382812 C 759.128906 252.488281 749.558594 247.902344 744.40625 246.753906 C 739.25 245.601562 738.515625 247.894531 737.320312 255.070312" fill="#fbcece" fill-rule="evenodd"/></g><g><path d="M 696.816406 290.664062 C 691.871094 285.941406 684.816406 281.679688 678.996094 273.765625 C 673.175781 265.855469 668.589844 254.285156 668.988281 242.519531 C 669.386719 230.753906 674.769531 218.789062 683.839844 208.917969 C 692.90625 199.046875 705.660156 191.269531 712.054688 186.078125 C 718.449219 180.890625 718.488281 178.285156 720.078125 178.824219 C 721.664062 179.363281 724.800781 183.046875 732.339844 196.046875 C 739.878906 209.046875 751.820312 231.359375 756.867188 248.039062 C 761.910156 264.714844 760.0625 275.753906 750.671875 284.4375 C 741.28125 293.117188 724.347656 299.445312 714.46875 300.015625 C 704.585938 300.585938 701.757812 295.390625 696.816406 290.664062" fill="#231f20" fill-rule="evenodd"/></g><path d="M 6968.164062 2213.359375 C 6918.710938 2260.585938 6848.164062 2303.203125 6789.960938 2382.34375 C 6731.757812 2461.445312 6685.898438 2577.148438 6689.882812 2694.804688 C 6693.867188 2812.460938 6747.695312 2932.109375 6838.398438 3030.820312 C 6929.0625 3129.53125 7056.601562 3207.304688 7120.546875 3259.21875 C 7184.492188 3311.09375 7184.882812 3337.148438 7200.78125 3331.757812 C 7216.640625 3326.367188 7248.007812 3289.53125 7323.398438 3159.53125 C 7398.789062 3029.53125 7518.203125 2806.40625 7568.671875 2639.609375 C 7619.101562 2472.851562 7600.625 2362.460938 7506.71875 2275.625 C 7412.8125 2188.828125 7243.476562 2125.546875 7144.6875 2119.84375 C 7045.859375 2114.140625 7017.578125 2166.09375 6968.164062 2213.359375 Z M 6968.164062 2213.359375" fill="none" stroke="#231f20" stroke-miterlimit="22.926" stroke-width="5.669" transform="matrix(.1 0 0 -.1 0 512)"/><g><path d="M 721.148438 109.804688 C 721.347656 117.480469 720.949219 130.445312 720.054688 146 C 719.15625 161.554688 717.757812 179.703125 718.539062 193.742188 C 719.320312 207.777344 722.269531 217.703125 729.46875 228.425781 C 736.671875 239.148438 748.113281 250.671875 756.007812 259.566406 C 763.90625 268.464844 768.253906 274.738281 776.011719 278.175781 C 783.773438 281.609375 794.9375 282.207031 806.902344 278.71875 C 818.867188 275.226562 831.632812 267.648438 840.605469 257.777344 C 849.578125 247.90625 854.765625 235.742188 859.851562 226.371094 C 864.9375 216.996094 869.921875 210.414062 874.90625 202.238281 C 879.890625 194.0625 884.878906 184.289062 886.972656 174.617188 C 889.066406 164.945312 888.265625 155.371094 885.179688 143.605469 C 882.085938 131.839844 876.703125 117.882812 867.628906 108.109375 C 858.554688 98.335938 845.789062 92.753906 828.941406 88.066406 C 812.089844 83.378906 791.148438 79.589844 773.695312 78.296875 C 756.246094 76.996094 742.289062 78.195312 733.8125 81.785156 C 725.335938 85.375 722.34375 91.355469 721.246094 95.546875 C 720.148438 99.734375 720.949219 102.125 721.148438 109.804688" fill="#feebe8" fill-rule="evenodd"/></g><g><path d="M 762.601562 138.691406 C 760.890625 138.6875 758.625 138.046875 755.910156 137.019531 C 753.195312 135.996094 750.03125 134.585938 747.359375 134.027344 C 744.6875 133.472656 742.503906 133.769531 739.917969 134.628906 C 737.328125 135.480469 734.335938 136.894531 733.535156 136.953125 C 732.730469 137.011719 734.117188 135.722656 737.007812 134.082031 C 739.894531 132.4375 744.28125 130.445312 749.46875 130.941406 C 754.652344 131.441406 760.632812 134.433594 763.050781 136.246094 C 765.464844 138.058594 764.3125 138.695312 762.601562 138.691406" fill="#231f20" fill-rule="evenodd"/></g><path d="M 7626.015625 3733.085938 C 7608.90625 3733.125 7586.25 3739.53125 7559.101562 3749.804688 C 7531.953125 3760.039062 7500.3125 3774.140625 7473.59375 3779.726562 C 7446.875 3785.273438 7425.039062 3782.304688 7399.179688 3773.710938 C 7373.28125 3765.195312 7343.359375 3751.054688 7335.351562 3750.46875 C 7327.304688 3749.882812 7341.171875 3762.773438 7370.078125 3779.179688 C 7398.945312 3795.625 7442.8125 3815.546875 7494.6875 3810.585938 C 7546.523438 3805.585938 7606.328125 3775.664062 7630.507812 3757.539062 C 7654.648438 3739.414062 7643.125 3733.046875 7626.015625 3733.085938 Z M 7626.015625 3733.085938" fill="none" stroke="#231f20" stroke-miterlimit="22.926" stroke-width="5.669" transform="matrix(.1 0 0 -.1 0 512)"/><g><path d="M 785.90625 153.273438 C 785.554688 152.972656 786.257812 158.0625 785.460938 163.347656 C 784.660156 168.628906 782.367188 174.113281 780.371094 178.453125 C 778.378906 182.789062 776.683594 185.980469 776.832031 187.574219 C 776.980469 189.171875 778.976562 189.171875 780.96875 187.175781 C 782.964844 185.183594 784.960938 181.195312 786.304688 177.15625 C 787.648438 173.113281 788.351562 169.027344 788 164.140625 C 787.648438 159.253906 786.257812 153.574219 785.90625 153.273438" fill="#f79593" fill-rule="evenodd"/></g><g><path d="M 834.148438 156.101562 C 833.289062 156.476562 832.21875 157.203125 830.59375 157.972656 C 828.96875 158.742188 826.789062 159.554688 824.757812 159.257812 C 822.726562 158.957031 820.84375 157.546875 818.878906 156.820312 C 816.910156 156.09375 814.859375 156.050781 814.359375 156.023438 C 813.859375 155.992188 814.914062 155.980469 816.589844 156.972656 C 818.265625 157.960938 820.558594 159.953125 823.101562 160.851562 C 825.640625 161.75 828.433594 161.550781 830.679688 160.503906 C 832.921875 159.457031 834.617188 157.5625 835.140625 156.628906 C 835.660156 155.695312 835.007812 155.722656 834.148438 156.101562" fill="#231f20" fill-rule="evenodd"/></g><g><path d="M 756.90625 155.921875 C 756.53125 156.390625 754.90625 157.289062 753.386719 158.316406 C 751.867188 159.34375 750.460938 160.496094 748.492188 161.074219 C 746.523438 161.652344 744.003906 161.652344 742.015625 160.859375 C 740.023438 160.070312 738.570312 158.488281 737.414062 157.117188 C 736.261719 155.75 735.40625 154.597656 735.386719 154.238281 C 735.367188 153.882812 736.179688 154.328125 737.632812 155.546875 C 739.089844 156.765625 741.183594 158.757812 744.273438 158.859375 C 747.367188 158.957031 751.453125 157.160156 753.933594 156.285156 C 756.414062 155.410156 757.285156 155.453125 756.90625 155.921875" fill="#231f20" fill-rule="evenodd"/></g><g><path d="M 579.648438 404.886719 C 587.621094 388.941406 598.59375 364.757812 616.84375 345.242188 C 635.089844 325.726562 660.617188 310.886719 681.363281 301.300781 C 702.109375 291.710938 718.070312 287.386719 726.117188 284.070312 C 734.160156 280.753906 734.28125 278.449219 735.242188 283.203125 C 736.203125 287.957031 737.992188 299.765625 743.429688 312.675781 C 748.859375 325.589844 757.9375 339.609375 772.859375 347.074219 C 787.78125 354.535156 808.546875 355.441406 822.609375 351.707031 C 836.667969 347.964844 844.015625 339.578125 850.382812 328.382812 C 856.753906 317.1875 862.132812 303.179688 864.609375 294.574219 C 867.089844 285.964844 866.65625 282.757812 878.304688 284.179688 C 889.953125 285.597656 913.6875 291.644531 932.136719 300.03125 C 950.582031 308.410156 963.742188 319.132812 976.707031 330.949219 C 989.671875 342.769531 1002.429688 355.6875 1015.199219 372.871094 C 1027.960938 390.046875 1040.71875 411.484375 1049.699219 430.3125 C 1058.671875 449.140625 1063.859375 465.359375 1071.550781 488.554688 C 1073.960938 495.835938 1076.621094 503.800781 1078.71875 511.527344 L 540.292969 511.527344 C 545.117188 492.257812 551.929688 470.664062 557.300781 455.324219 C 566.683594 428.527344 571.671875 420.828125 579.648438 404.886719" fill="#f25550" fill-rule="evenodd"/></g><g><path d="M 928.046875 289.074219 C 932.632812 284.984375 938.617188 277.011719 943.601562 267.546875 C 948.585938 258.074219 952.570312 247.105469 951.871094 235.339844 C 951.175781 223.574219 945.789062 211.011719 938.414062 200.742188 C 931.035156 190.472656 921.660156 182.492188 914.382812 177.507812 C 907.101562 172.519531 901.921875 170.527344 901.023438 164.542969 C 900.121094 158.5625 903.515625 148.59375 904.3125 131.9375 C 905.109375 115.285156 903.3125 91.953125 897.628906 72.109375 C 891.945312 52.265625 882.375 35.914062 867.316406 23.851562 C 852.257812 11.785156 831.71875 4.007812 812.476562 1.714844 C 793.226562 -0.578125 775.28125 2.609375 759.429688 10.785156 C 743.574219 18.960938 729.8125 32.125 720.839844 45.585938 C 711.867188 59.046875 707.671875 72.808594 708.34375 89.59375 C 709.007812 106.378906 714.53125 126.1875 717.476562 130.0625 C 720.421875 133.933594 720.78125 121.871094 721.28125 112.710938 C 721.78125 103.546875 722.40625 97.292969 725.222656 92.378906 C 728.03125 87.464844 733.03125 83.894531 734.460938 84.84375 C 735.886719 85.792969 733.746094 91.265625 739.457031 97.792969 C 745.167969 104.320312 758.726562 111.894531 774.28125 115.585938 C 789.839844 119.273438 807.390625 119.074219 821.050781 119.972656 C 834.710938 120.871094 844.484375 122.863281 851.265625 126.453125 C 858.042969 130.046875 861.835938 135.226562 863.328125 144.003906 C 864.824219 152.777344 864.023438 165.144531 864.726562 166.140625 C 865.421875 167.136719 867.617188 156.765625 870.804688 152.878906 C 873.996094 148.988281 878.1875 151.582031 880.230469 158.671875 C 882.273438 165.753906 882.164062 177.328125 878.296875 186.179688 C 874.429688 195.023438 866.804688 201.140625 859.90625 209.628906 C 853.003906 218.117188 846.828125 228.980469 845.164062 238.519531 C 843.496094 248.054688 846.332031 256.261719 850.808594 264.085938 C 855.289062 271.910156 861.40625 279.351562 864.296875 282.945312 C 867.183594 286.539062 866.847656 286.289062 870.679688 285.953125 C 874.507812 285.617188 882.511719 285.199219 890.9375 286.457031 C 899.367188 287.710938 908.21875 290.644531 914.242188 292.003906 C 920.265625 293.367188 923.460938 293.160156 928.046875 289.074219" fill="#231f20" fill-rule="evenodd"/></g><path d="M 9280.46875 2229.257812 C 9326.328125 2270.15625 9386.171875 2349.882812 9436.015625 2444.53125 C 9485.859375 2539.257812 9525.703125 2648.945312 9518.710938 2766.601562 C 9511.757812 2884.257812 9457.890625 3009.882812 9384.140625 3112.578125 C 9310.351562 3215.273438 9216.601562 3295.078125 9143.828125 3344.921875 C 9071.015625 3394.804688 9019.21875 3414.726562 9010.234375 3474.570312 C 9001.210938 3534.375 9035.15625 3634.0625 9043.125 3800.625 C 9051.09375 3967.148438 9033.125 4200.46875 8976.289062 4398.90625 C 8919.453125 4597.34375 8823.75 4760.859375 8673.164062 4881.484375 C 8522.578125 5002.148438 8317.1875 5079.921875 8124.765625 5102.851562 C 7932.265625 5125.78125 7752.8125 5093.90625 7594.296875 5012.148438 C 7435.742188 4930.390625 7298.125 4798.75 7208.398438 4664.140625 C 7118.671875 4529.53125 7076.71875 4391.914062 7083.4375 4224.0625 C 7090.078125 4056.210938 7145.3125 3858.125 7174.765625 3819.375 C 7204.21875 3780.664062 7207.8125 3901.289062 7212.8125 3992.890625 C 7217.8125 4084.53125 7224.0625 4147.070312 7252.226562 4196.210938 C 7280.3125 4245.351562 7330.3125 4281.054688 7344.609375 4271.5625 C 7358.867188 4262.070312 7337.460938 4207.34375 7394.570312 4142.070312 C 7451.679688 4076.796875 7587.265625 4001.054688 7742.8125 3964.140625 C 7898.398438 3927.265625 8073.90625 3929.257812 8210.507812 3920.273438 C 8347.109375 3911.289062 8444.84375 3891.367188 8512.65625 3855.46875 C 8580.429688 3819.53125 8618.359375 3767.734375 8633.28125 3679.960938 C 8648.242188 3592.226562 8640.234375 3468.554688 8647.265625 3458.59375 C 8654.21875 3448.632812 8676.171875 3552.34375 8708.046875 3591.210938 C 8739.960938 3630.117188 8781.875 3604.179688 8802.304688 3533.28125 C 8822.734375 3462.460938 8821.640625 3346.71875 8782.96875 3258.203125 C 8744.296875 3169.765625 8668.046875 3108.59375 8599.0625 3023.710938 C 8530.039062 2938.828125 8468.28125 2830.195312 8451.640625 2734.804688 C 8434.960938 2639.453125 8463.320312 2557.382812 8508.085938 2479.140625 C 8552.890625 2400.898438 8614.0625 2326.484375 8642.96875 2290.546875 C 8671.835938 2254.609375 8668.476562 2257.109375 8706.796875 2260.46875 C 8745.078125 2263.828125 8825.117188 2268.007812 8909.375 2255.429688 C 8993.671875 2242.890625 9082.1875 2213.554688 9142.421875 2199.960938 C 9202.65625 2186.328125 9234.609375 2188.398438 9280.46875 2229.257812 Z M 9280.46875 2229.257812" fill="none" stroke="#231f20" stroke-miterlimit="22.926" stroke-width="5.669" transform="matrix(.1 0 0 -.1 0 512)"/><g><path d="M 900.664062 165.800781 C 900.597656 168.859375 901.4375 174.074219 898.351562 179.117188 C 895.265625 184.164062 888.253906 189.039062 882.851562 192.234375 C 877.449219 195.429688 873.65625 196.945312 870.8125 198.078125 C 867.96875 199.214844 866.074219 199.964844 865.113281 201.015625 C 864.148438 202.070312 864.121094 203.429688 864.335938 204.035156 C 864.546875 204.644531 865.003906 204.503906 869.273438 203.203125 C 873.542969 201.90625 881.625 199.449219 888.273438 195.996094 C 894.921875 192.546875 900.140625 188.097656 902.257812 182.988281 C 904.375 177.878906 903.390625 172.105469 902.945312 168.320312 C 902.492188 164.535156 902.578125 162.742188 902.136719 162.292969 C 901.695312 161.84375 900.726562 162.742188 900.664062 165.800781" fill="#f25550" fill-rule="evenodd"/></g><g><path d="M 719.070312 154.683594 C 720.226562 155.40625 724.503906 163.277344 732.96875 169.09375 C 741.4375 174.90625 754.09375 178.671875 768.117188 180.550781 C 782.144531 182.433594 797.539062 182.433594 810.367188 180.808594 C 823.195312 179.183594 833.457031 175.933594 842.089844 172.660156 C 850.722656 169.390625 857.726562 166.097656 861.6875 163.34375 C 865.648438 160.585938 866.574219 158.367188 866.070312 159.84375 C 865.558594 161.320312 863.617188 166.488281 861.28125 169.757812 C 858.945312 173.027344 856.207031 174.394531 855.527344 178.816406 C 854.84375 183.238281 856.222656 190.71875 856.835938 196.019531 C 857.445312 201.320312 857.292969 204.449219 859.496094 204.429688 C 861.695312 204.410156 866.253906 201.246094 863.589844 207.574219 C 860.925781 213.902344 851.039062 229.726562 839.597656 239.859375 C 828.15625 249.996094 815.15625 254.445312 801.496094 256.035156 C 787.84375 257.625 773.523438 256.355469 762.972656 254.105469 C 752.421875 251.855469 745.632812 248.621094 738.285156 239.414062 C 730.9375 230.210938 723.03125 215.039062 720.199219 201.941406 C 717.367188 188.839844 719.609375 177.8125 719.746094 169.089844 C 719.882812 160.367188 717.914062 153.953125 719.070312 154.683594" fill="#7bd2ca" fill-rule="evenodd"/></g><g><path d="M 808.054688 144.703125 C 809.765625 144.699219 812.035156 144.058594 814.75 143.03125 C 817.464844 142.003906 820.628906 140.59375 823.300781 140.035156 C 825.976562 139.480469 828.15625 139.78125 830.742188 140.636719 C 833.328125 141.492188 836.320312 142.902344 837.125 142.964844 C 837.929688 143.023438 836.539062 141.734375 833.652344 140.089844 C 830.765625 138.449219 826.378906 136.453125 821.191406 136.953125 C 816.007812 137.449219 810.023438 140.441406 807.609375 142.253906 C 805.195312 144.066406 806.347656 144.703125 808.054688 144.703125" fill="#231f20" fill-rule="evenodd"/></g><path d="M 8080.546875 3672.96875 C 8097.65625 3673.007812 8120.351562 3679.414062 8147.5 3689.6875 C 8174.648438 3699.960938 8206.289062 3714.0625 8233.007812 3719.648438 C 8259.765625 3725.195312 8281.5625 3722.1875 8307.421875 3713.632812 C 8333.28125 3705.078125 8363.203125 3690.976562 8371.25 3690.351562 C 8379.296875 3689.765625 8365.390625 3702.65625 8336.523438 3719.101562 C 8307.65625 3735.507812 8263.789062 3755.46875 8211.914062 3750.46875 C 8160.078125 3745.507812 8100.234375 3715.585938 8076.09375 3697.460938 C 8051.953125 3679.335938 8063.476562 3672.96875 8080.546875 3672.96875 Z M 8080.546875 3672.96875" fill="none" stroke="#231f20" stroke-miterlimit="22.926" stroke-width="5.669" transform="matrix(.1 0 0 -.1 0 512)"/><g><path d="M 869.082031 168.792969 C 868.609375 171.015625 868.226562 173.453125 869.039062 175.078125 C 869.851562 176.703125 871.859375 177.515625 872.375 178.925781 C 872.890625 180.339844 871.90625 182.347656 872.164062 182.859375 C 872.417969 183.375 873.914062 182.390625 875.304688 179.738281 C 876.695312 177.089844 877.976562 172.769531 878.214844 168.921875 C 878.445312 165.070312 877.632812 161.695312 876.714844 159.707031 C 875.796875 157.71875 874.769531 157.117188 873.742188 157.824219 C 872.71875 158.53125 871.691406 160.539062 870.898438 162.550781 C 870.109375 164.558594 869.554688 166.570312 869.082031 168.792969" fill="#fcd7cf" fill-rule="evenodd"/></g><g><path d="M 1309.800781 308.15625 C 1309.03125 319.46875 1311.351562 327.554688 1321.5 335.785156 C 1331.660156 344.011719 1349.640625 352.378906 1358.929688 356.566406 C 1368.230469 360.746094 1368.851562 360.746094 1362.03125 372.0625 C 1355.21875 383.375 1340.960938 406.003906 1323.601562 426.304688 C 1306.238281 446.609375 1285.78125 464.585938 1266.570312 472.644531 C 1247.351562 480.703125 1229.371094 478.84375 1217.441406 467.996094 C 1205.511719 457.148438 1199.621094 437.308594 1194.890625 420.765625 C 1190.160156 404.21875 1186.589844 390.960938 1187.210938 383.214844 C 1187.828125 375.464844 1192.640625 373.222656 1198.140625 370.703125 C 1203.640625 368.1875 1209.839844 365.398438 1214.960938 360.59375 C 1220.070312 355.789062 1224.101562 348.972656 1224.589844 341.804688 C 1225.070312 334.632812 1222.011719 327.117188 1226.96875 316.425781 C 1231.929688 305.730469 1244.910156 291.859375 1258.480469 280.386719 C 1272.050781 268.910156 1286.21875 259.835938 1296.289062 258.128906 C 1306.371094 256.421875 1312.351562 262.09375 1313.398438 272.195312 C 1314.449219 282.300781 1310.578125 296.84375 1309.800781 308.15625" fill="#fcd7cf" fill-rule="evenodd"/></g><g><path d="M 1159.859375 197.710938 C 1157.300781 203.90625 1161.328125 218.167969 1163.890625 227.851562 C 1166.449219 237.539062 1167.53125 242.652344 1168.621094 250.789062 C 1169.699219 258.925781 1170.789062 270.085938 1173.421875 279.769531 C 1176.058594 289.457031 1180.238281 297.671875 1185.050781 304.257812 C 1189.851562 310.847656 1195.28125 315.804688 1203.019531 318.359375 C 1210.769531 320.917969 1220.851562 321.074219 1234.25 314.71875 C 1247.660156 308.367188 1264.398438 295.5 1275.980469 283.757812 C 1287.550781 272.011719 1293.96875 261.382812 1301.101562 256.421875 C 1308.230469 251.464844 1316.070312 252.171875 1322.308594 244.625 C 1328.558594 237.074219 1333.210938 221.265625 1331.039062 208.710938 C 1328.871094 196.160156 1319.878906 186.859375 1310.121094 184.925781 C 1300.351562 182.988281 1289.808594 188.410156 1285.910156 193.644531 C 1282.011719 198.878906 1284.738281 203.925781 1283.03125 200.363281 C 1281.328125 196.796875 1275.191406 184.621094 1268.859375 175.28125 C 1262.539062 165.9375 1256.03125 159.429688 1247.421875 158.574219 C 1238.828125 157.722656 1228.128906 162.527344 1216.660156 169.582031 C 1205.191406 176.632812 1192.949219 185.929688 1182.261719 189.648438 C 1171.558594 193.371094 1162.421875 191.511719 1159.859375 197.710938" fill="#feebe8" fill-rule="evenodd"/></g><g><path d="M 1190.808594 224.460938 C 1190.738281 224.449219 1192.960938 226.753906 1193.03125 231.410156 C 1193.101562 236.070312 1191.019531 243.085938 1189.558594 247.828125 C 1188.101562 252.566406 1187.25 255.035156 1187.890625 255.648438 C 1188.53125 256.261719 1190.648438 255.019531 1192.339844 252.054688 C 1194.019531 249.085938 1195.261719 244.386719 1195.730469 240.277344 C 1196.191406 236.167969 1195.878906 232.644531 1194.550781 229.722656 C 1193.230469 226.796875 1190.878906 224.46875 1190.808594 224.460938" fill="#f79593" fill-rule="evenodd"/></g><g><path d="M 1284 215.914062 C 1280.660156 217.695312 1274.148438 213.667969 1268.03125 203.59375 C 1261.910156 193.519531 1256.179688 177.402344 1253.390625 170.507812 C 1250.601562 163.609375 1250.75 165.933594 1250.671875 169.496094 C 1250.601562 173.0625 1250.289062 177.867188 1251.300781 182.050781 C 1252.300781 186.238281 1254.628906 189.800781 1251.449219 190.578125 C 1248.269531 191.351562 1239.589844 189.335938 1229.601562 189.566406 C 1219.601562 189.800781 1208.289062 192.28125 1197.75 195.378906 C 1187.210938 198.480469 1177.449219 202.199219 1169.699219 204.679688 C 1161.949219 207.160156 1156.21875 208.402344 1152.5 203.054688 C 1148.78125 197.707031 1147.070312 185.773438 1147.378906 174.304688 C 1147.691406 162.835938 1150.019531 151.828125 1154.511719 144.855469 C 1159 137.882812 1165.671875 134.9375 1168.46875 133.566406 C 1171.28125 132.195312 1170.21875 132.398438 1170.988281 128.214844 C 1171.769531 124.03125 1174.378906 115.457031 1188.699219 110.011719 C 1203.019531 104.5625 1229.050781 102.238281 1243 100.144531 C 1256.949219 98.050781 1258.808594 96.191406 1256.230469 92.585938 C 1253.648438 88.976562 1246.640625 83.625 1247.101562 74.996094 C 1247.550781 66.367188 1255.488281 54.460938 1266.210938 50.398438 C 1276.921875 46.332031 1290.421875 50.109375 1299.488281 55.714844 C 1308.558594 61.324219 1313.210938 68.761719 1313.289062 75.734375 C 1313.371094 82.710938 1308.871094 89.21875 1300.96875 92.550781 C 1293.058594 95.882812 1281.75 96.039062 1276.089844 96.96875 C 1270.441406 97.898438 1270.441406 99.601562 1275.078125 101.460938 C 1279.730469 103.320312 1289.03125 105.335938 1298.851562 107.679688 C 1308.671875 110.019531 1319.019531 112.6875 1328.699219 122.609375 C 1338.390625 132.527344 1347.421875 149.695312 1354.488281 166.957031 C 1361.558594 184.222656 1366.679688 201.578125 1368.078125 218.9375 C 1369.46875 236.296875 1367.140625 253.652344 1368.851562 265.820312 C 1370.550781 277.984375 1376.289062 284.960938 1379.46875 288.523438 C 1382.640625 292.089844 1383.261719 292.242188 1379.390625 295.730469 C 1375.511719 299.21875 1367.140625 306.035156 1356.761719 310.375 C 1346.378906 314.714844 1333.980469 316.574219 1324.910156 317.195312 C 1315.851562 317.8125 1310.109375 317.195312 1306.699219 311.382812 C 1303.289062 305.570312 1302.210938 294.566406 1301.351562 283.640625 C 1300.5 272.714844 1299.878906 261.867188 1299.960938 255.746094 C 1300.039062 249.621094 1300.808594 248.230469 1303.679688 247.378906 C 1306.550781 246.523438 1311.511719 246.214844 1316 243.191406 C 1320.488281 240.167969 1324.519531 234.433594 1325.21875 226.453125 C 1325.921875 218.472656 1323.28125 208.242188 1318.398438 201.8125 C 1313.519531 195.378906 1306.390625 192.746094 1300.890625 192.902344 C 1295.390625 193.054688 1291.511719 196 1289.5 201.269531 C 1287.480469 206.539062 1287.328125 214.132812 1284 215.914062" fill="#231f20" fill-rule="evenodd"/></g><path d="M 12840 2960.859375 C 12806.601562 2943.046875 12741.484375 2983.320312 12680.3125 3084.0625 C 12619.101562 3184.804688 12561.796875 3345.976562 12533.90625 3414.921875 C 12506.015625 3483.90625 12507.5 3460.664062 12506.71875 3425.039062 C 12506.015625 3389.375 12502.890625 3341.328125 12513.007812 3299.492188 C 12523.007812 3257.617188 12546.289062 3221.992188 12514.492188 3214.21875 C 12482.695312 3206.484375 12395.898438 3226.640625 12296.015625 3224.335938 C 12196.015625 3221.992188 12082.890625 3197.1875 11977.5 3166.210938 C 11872.109375 3135.195312 11774.492188 3098.007812 11696.992188 3073.203125 C 11619.492188 3048.398438 11562.1875 3035.976562 11525 3089.453125 C 11487.8125 3142.929688 11470.703125 3262.265625 11473.789062 3376.953125 C 11476.914062 3491.640625 11500.195312 3601.71875 11545.117188 3671.445312 C 11590 3741.171875 11656.71875 3770.625 11684.6875 3784.335938 C 11712.8125 3798.046875 11702.1875 3796.015625 11709.882812 3837.851562 C 11717.695312 3879.6875 11743.789062 3965.429688 11886.992188 4019.882812 C 12030.195312 4074.375 12290.507812 4097.617188 12430 4118.554688 C 12569.492188 4139.492188 12588.085938 4158.085938 12562.304688 4194.140625 C 12536.484375 4230.234375 12466.40625 4283.75 12471.015625 4370.039062 C 12475.507812 4456.328125 12554.882812 4575.390625 12662.109375 4616.015625 C 12769.21875 4656.679688 12904.21875 4618.90625 12994.882812 4562.851562 C 13085.585938 4506.757812 13132.109375 4432.382812 13132.890625 4362.65625 C 13133.710938 4292.890625 13088.710938 4227.8125 13009.6875 4194.492188 C 12930.585938 4161.171875 12817.5 4159.609375 12760.898438 4150.3125 C 12704.414062 4141.015625 12704.414062 4123.984375 12750.78125 4105.390625 C 12797.304688 4086.796875 12890.3125 4066.640625 12988.515625 4043.203125 C 13086.71875 4019.804688 13190.195312 3993.125 13286.992188 3893.90625 C 13383.90625 3794.726562 13474.21875 3623.046875 13544.882812 3450.429688 C 13615.585938 3277.773438 13666.796875 3104.21875 13680.78125 2930.625 C 13694.6875 2757.03125 13671.40625 2583.476562 13688.515625 2461.796875 C 13705.507812 2340.15625 13762.890625 2270.390625 13794.6875 2234.765625 C 13826.40625 2199.101562 13832.617188 2197.578125 13793.90625 2162.695312 C 13755.117188 2127.8125 13671.40625 2059.648438 13567.617188 2016.25 C 13463.789062 1972.851562 13339.804688 1954.257812 13249.101562 1948.046875 C 13158.515625 1941.875 13101.09375 1948.046875 13066.992188 2006.171875 C 13032.890625 2064.296875 13022.109375 2174.335938 13013.515625 2283.59375 C 13005 2392.851562 12998.789062 2501.328125 12999.609375 2562.539062 C 13000.390625 2623.789062 13008.085938 2637.695312 13036.796875 2646.210938 C 13065.507812 2654.765625 13115.117188 2657.851562 13160 2688.085938 C 13204.882812 2718.320312 13245.195312 2775.664062 13252.1875 2855.46875 C 13259.21875 2935.273438 13232.8125 3037.578125 13183.984375 3101.875 C 13135.195312 3166.210938 13063.90625 3192.539062 13008.90625 3190.976562 C 12953.90625 3189.453125 12915.117188 3160 12895 3107.304688 C 12874.804688 3054.609375 12873.28125 2978.671875 12840 2960.859375 Z M 12840 2960.859375" fill="none" stroke="#231f20" stroke-miterlimit="22.926" stroke-width="5.669" transform="matrix(.1 0 0 -.1 0 512)"/><g><path d="M 1429.738281 378.785156 C 1409.121094 370.160156 1387.390625 364.699219 1375.398438 361.519531 C 1363.421875 358.34375 1361.179688 357.453125 1357.550781 364.242188 C 1353.921875 371.027344 1348.910156 385.488281 1335.628906 403.734375 C 1322.351562 421.980469 1300.808594 444.011719 1281.671875 455.609375 C 1262.53125 467.207031 1245.800781 468.378906 1234.480469 463.535156 C 1223.171875 458.695312 1217.28125 447.847656 1211.910156 434.621094 C 1206.539062 421.394531 1201.679688 405.796875 1199.828125 394.582031 C 1197.980469 383.367188 1199.128906 376.546875 1200.699219 372.839844 C 1202.269531 369.136719 1204.269531 368.546875 1200.230469 369.222656 C 1196.191406 369.894531 1186.128906 371.828125 1176.441406 372.644531 C 1166.761719 373.457031 1162.339844 375.667969 1150.019531 384.308594 C 1137.699219 392.945312 1077.011719 482.480469 1059.300781 511.527344 L 1506.339844 509.71875 C 1511.691406 488.410156 1500.179688 451.429688 1485.96875 426.914062 C 1469.898438 399.183594 1450.371094 387.40625 1429.738281 378.785156" fill="#7bd2ca" fill-rule="evenodd"/></g><g><path d="M 1388.199219 365.433594 C 1385.25 363.21875 1375.449219 361.226562 1369.441406 359.785156 C 1363.421875 358.34375 1361.179688 357.453125 1356.679688 364.152344 C 1352.179688 370.847656 1345.421875 385.132812 1332.140625 403.378906 C 1318.871094 421.625 1299.058594 443.832031 1280.800781 455.519531 C 1262.53125 467.207031 1245.800781 468.378906 1234.480469 463.535156 C 1223.171875 458.695312 1217.28125 447.847656 1211.910156 434.621094 C 1206.539062 421.398438 1201.679688 405.796875 1199.828125 394.582031 C 1197.980469 383.367188 1199.128906 376.546875 1200.699219 372.839844 C 1202.269531 369.136719 1204.269531 368.546875 1200.230469 369.222656 C 1196.191406 369.894531 1186.128906 371.828125 1185.640625 386.570312 C 1185.160156 401.3125 1194.261719 428.855469 1204.289062 447.71875 C 1214.320312 466.578125 1225.28125 476.75 1242.609375 478.617188 C 1259.941406 480.480469 1283.628906 474.042969 1302.289062 458.933594 C 1320.949219 443.824219 1334.578125 420.050781 1347.25 404.203125 C 1359.929688 388.351562 1371.660156 380.429688 1379.460938 375.253906 C 1387.269531 370.074219 1391.148438 367.644531 1388.199219 365.433594" fill="#fff" fill-rule="evenodd"/></g><g><path d="M 1207.359375 216.121094 C 1209.511719 214.6875 1213.289062 209.441406 1217.039062 208.027344 C 1220.800781 206.613281 1224.519531 209.035156 1226.351562 209.640625 C 1228.171875 210.246094 1228.089844 209.035156 1226.199219 207.585938 C 1224.308594 206.132812 1220.601562 204.4375 1217.410156 204.609375 C 1214.210938 204.78125 1211.53125 206.816406 1209.398438 208.492188 C 1207.28125 210.167969 1205.699219 211.480469 1205.179688 213.328125 C 1204.671875 215.171875 1205.199219 217.554688 1207.359375 216.121094" fill="#231f20" fill-rule="evenodd"/></g><g><path d="M 1164.390625 218.386719 C 1163.910156 219.304688 1163.589844 220.144531 1164.878906 219.523438 C 1166.160156 218.902344 1169.039062 216.820312 1171.878906 217.21875 C 1174.730469 217.621094 1177.539062 220.503906 1179.210938 221.542969 C 1180.878906 222.578125 1181.398438 221.777344 1181.25 220.3125 C 1181.101562 218.851562 1180.269531 216.730469 1178.878906 215.382812 C 1177.480469 214.035156 1175.5 213.460938 1173.289062 213.605469 C 1171.078125 213.753906 1168.621094 214.621094 1167.070312 215.550781 C 1165.519531 216.480469 1164.878906 217.472656 1164.390625 218.386719" fill="#231f20" fill-rule="evenodd"/></g><g><path d="M 1256.070312 92.367188 C 1256.480469 91.867188 1256.5 92.621094 1259.558594 93.636719 C 1262.621094 94.652344 1268.71875 95.933594 1272.449219 96.46875 C 1276.179688 97.007812 1277.53125 96.804688 1277.800781 97.261719 C 1278.058594 97.71875 1277.230469 98.835938 1275.839844 99.640625 C 1274.449219 100.445312 1272.5 100.929688 1269.421875 100.6875 C 1266.339844 100.441406 1262.128906 99.46875 1259.378906 98.628906 C 1256.640625 97.785156 1255.351562 97.074219 1255.109375 95.847656 C 1254.859375 94.617188 1255.660156 92.867188 1256.070312 92.367188" fill="#4678c5" fill-rule="evenodd"/></g><g><path d="M 1288.359375 202.375 C 1289.289062 201.386719 1289.621094 199.839844 1286.128906 200.460938 C 1282.648438 201.082031 1275.339844 203.871094 1268.078125 209.21875 C 1260.808594 214.566406 1253.589844 222.476562 1239.808594 229.808594 C 1226.019531 237.140625 1205.679688 243.890625 1192.53125 245.699219 C 1179.378906 247.507812 1173.421875 244.367188 1170.199219 243.828125 C 1166.980469 243.289062 1166.480469 245.355469 1165.921875 250.5 C 1165.371094 255.648438 1164.75 263.882812 1165.191406 271.671875 C 1165.640625 279.460938 1167.140625 286.808594 1170.511719 293.300781 C 1173.878906 299.789062 1179.109375 305.425781 1188.628906 308.023438 C 1198.160156 310.617188 1211.988281 310.175781 1224.421875 304.566406 C 1236.851562 298.957031 1247.890625 288.183594 1260.351562 278.183594 C 1272.808594 268.183594 1286.679688 258.957031 1293.820312 253.398438 C 1300.960938 247.839844 1301.371094 245.953125 1301.449219 245.558594 C 1301.519531 245.160156 1301.261719 246.257812 1299.320312 247.226562 C 1297.371094 248.191406 1293.738281 249.03125 1289.058594 250.90625 C 1284.371094 252.777344 1278.628906 255.683594 1275.558594 251.746094 C 1272.5 247.808594 1272.101562 237.023438 1272.109375 230.328125 C 1272.121094 223.628906 1272.53125 221.019531 1272.960938 218.042969 C 1273.398438 215.070312 1273.859375 211.730469 1275.769531 209.367188 C 1277.671875 207.007812 1281.019531 205.621094 1283.460938 204.710938 C 1285.898438 203.800781 1287.429688 203.367188 1288.359375 202.375" fill="#7bd2ca" fill-rule="evenodd"/></g><g><path d="M 1294.050781 218.246094 C 1293.789062 215.839844 1293.25 211.378906 1294.089844 207.601562 C 1294.929688 203.820312 1297.140625 200.730469 1300.179688 199.722656 C 1303.210938 198.710938 1307.070312 199.777344 1310.140625 202.523438 C 1313.210938 205.273438 1315.5 209.699219 1316.449219 213.191406 C 1317.410156 216.679688 1317.019531 219.238281 1316.03125 221.449219 C 1315.039062 223.664062 1313.441406 225.53125 1312.519531 227.25 C 1311.609375 228.96875 1311.378906 230.53125 1310.941406 232.210938 C 1310.5 233.890625 1309.851562 235.683594 1308.671875 236.960938 C 1307.480469 238.238281 1305.769531 239.003906 1304.28125 238.886719 C 1302.789062 238.773438 1301.53125 237.78125 1300.921875 236.160156 C 1300.308594 234.539062 1300.351562 232.285156 1300.140625 230.320312 C 1299.929688 228.355469 1299.46875 226.679688 1298.460938 225.226562 C 1297.449219 223.777344 1295.878906 222.558594 1295.101562 221.773438 C 1294.320312 220.992188 1294.320312 220.648438 1294.050781 218.246094" fill="#fcd7cf" fill-rule="evenodd"/></g><g><path d="M 1218.058594 222.535156 C 1220.710938 222.070312 1223.230469 223.835938 1223.699219 226.476562 C 1224.160156 229.121094 1222.398438 231.644531 1219.761719 232.109375 C 1217.109375 232.578125 1214.589844 230.8125 1214.121094 228.171875 C 1213.660156 225.527344 1215.421875 223.003906 1218.058594 222.535156" fill="#231f20" fill-rule="evenodd"/></g><g><path d="M 1175.929688 227.769531 C 1178.160156 227.378906 1180.289062 228.867188 1180.679688 231.09375 C 1181.078125 233.324219 1179.589844 235.449219 1177.359375 235.84375 C 1175.128906 236.238281 1173 234.75 1172.609375 232.519531 C 1172.21875 230.292969 1173.699219 228.164062 1175.929688 227.769531" fill="#231f20" fill-rule="evenodd"/></g><g><path d="M 1763.492188 321.171875 C 1765.617188 328.25 1764.769531 338.78125 1760.578125 357.097656 C 1756.375 375.417969 1748.835938 401.519531 1736.640625 419.09375 C 1724.445312 436.667969 1707.601562 445.703125 1693.59375 453.320312 C 1679.578125 460.941406 1668.398438 467.140625 1661.800781 472.675781 C 1655.195312 478.210938 1653.167969 483.085938 1649.855469 461.242188 C 1646.539062 439.402344 1641.945312 390.84375 1642.597656 352.652344 C 1643.257812 314.457031 1649.171875 286.632812 1652.703125 271.730469 C 1656.246094 256.832031 1657.414062 254.855469 1655.378906 253.273438 C 1653.34375 251.683594 1648.101562 250.488281 1643.398438 246.25 C 1638.699219 242.015625 1634.539062 234.742188 1634.125 224.722656 C 1633.714844 214.707031 1637.0625 201.945312 1643.183594 194.308594 C 1649.292969 186.671875 1658.183594 184.152344 1664.097656 186.832031 C 1670 189.511719 1672.9375 197.386719 1676.359375 204.257812 C 1679.773438 211.128906 1683.683594 216.996094 1687.039062 225.082031 C 1690.386719 233.164062 1693.203125 243.472656 1698.328125 253.777344 C 1703.449219 264.082031 1710.902344 274.390625 1720.101562 283.234375 C 1729.308594 292.082031 1740.257812 299.464844 1748.273438 304.96875 C 1756.300781 310.472656 1761.378906 314.097656 1763.492188 321.171875" fill="#fcd7cf" fill-rule="evenodd"/></g><g><path d="M 1343.683594 509.921875 C 1346.351562 505.394531 1349.429688 500.441406 1352.988281 495.023438 C 1370.445312 468.464844 1399.503906 430.789062 1422.90625 408.226562 C 1446.296875 385.667969 1464.023438 378.226562 1495.304688 370.277344 C 1526.574219 362.328125 1571.402344 353.875 1599.371094 347.175781 C 1627.351562 340.472656 1643.285156 332.234375 1643.730469 338.929688 C 1644.164062 345.621094 1648.355469 354.070312 1659.476562 368.28125 C 1670.609375 382.496094 1693.476562 399.179688 1705.359375 412.132812 C 1717.242188 425.082031 1721.457031 432.945312 1725.789062 431.710938 C 1730.109375 430.476562 1734.546875 420.140625 1742.121094 407.496094 C 1749.707031 394.855469 1752.679688 377.734375 1754.949219 371.394531 C 1757.222656 365.0625 1758.734375 364.761719 1760.207031 365.5 C 1761.695312 366.242188 1790.496094 380.640625 1813.96875 392.074219 C 1837.453125 403.507812 1862.179688 415.25 1881.027344 445.21875 C 1892.007812 462.691406 1901 486.363281 1908.304688 509.921875 L 1343.683594 509.921875" fill="#f57f7e" fill-rule="evenodd"/></g><g><path d="M 1791.390625 116.527344 C 1800.664062 128.351562 1804.539062 148.273438 1806.871094 169.472656 C 1809.203125 190.675781 1810 213.160156 1808.558594 234.804688 C 1807.125 256.453125 1803.449219 277.265625 1797.941406 291.824219 C 1792.445312 306.382812 1785.117188 314.683594 1774.179688 318.371094 C 1763.242188 322.054688 1748.683594 321.121094 1733.746094 313.679688 C 1718.824219 306.242188 1703.488281 292.300781 1696.316406 282.585938 C 1689.140625 272.871094 1690.109375 267.382812 1688.53125 252.5 C 1686.964844 237.617188 1682.84375 213.34375 1679.613281 193.289062 C 1676.382812 173.238281 1674.039062 157.410156 1676.316406 144.523438 C 1678.59375 131.632812 1685.488281 121.683594 1699.003906 114.289062 C 1712.515625 106.898438 1732.660156 102.066406 1750.046875 101.515625 C 1767.449219 100.964844 1782.117188 104.699219 1791.390625 116.527344" fill="#fdf7f3" fill-rule="evenodd"/></g><g><path d="M 1654.777344 268.058594 C 1651.3125 271.6875 1644.976562 272.378906 1639.242188 262.597656 C 1633.507812 252.816406 1628.375 232.566406 1625.722656 207.671875 C 1623.074219 182.777344 1622.917969 153.242188 1628.429688 133.339844 C 1633.953125 113.4375 1645.144531 103.160156 1663.71875 95.632812 C 1682.292969 88.105469 1708.25 83.324219 1728.683594 84.515625 C 1749.113281 85.710938 1765.207031 88.09375 1776.675781 93.429688 C 1815.070312 111.285156 1798.746094 130.125 1772.175781 133.144531 C 1759.238281 134.617188 1746.085938 139.132812 1729.761719 137.914062 C 1713.425781 136.699219 1694.539062 132.546875 1691.222656 132.640625 C 1687.894531 132.734375 1700.128906 137.074219 1707.347656 143.664062 C 1714.5625 150.25 1716.753906 159.085938 1716.078125 173.542969 C 1715.410156 188 1711.855469 208.078125 1706.542969 217.605469 C 1701.210938 227.132812 1694.117188 226.109375 1689.195312 221.550781 C 1684.261719 216.992188 1681.488281 208.902344 1677.671875 202.527344 C 1673.851562 196.152344 1668.960938 191.492188 1663.039062 190.410156 C 1657.113281 189.324219 1650.144531 191.816406 1645.167969 197.339844 C 1640.175781 202.859375 1637.183594 211.414062 1637.226562 220.070312 C 1637.261719 228.726562 1640.324219 237.488281 1644.53125 242.714844 C 1648.742188 247.941406 1654.085938 249.632812 1656.457031 253.757812 C 1658.828125 257.878906 1658.226562 264.4375 1654.777344 268.058594" fill="#a42e16" fill-rule="evenodd"/></g><g><path d="M 1749.558594 184.96875 C 1746.769531 184.476562 1744.101562 186.339844 1743.605469 189.128906 C 1743.121094 191.917969 1744.984375 194.582031 1747.769531 195.074219 C 1750.558594 195.566406 1753.226562 193.703125 1753.710938 190.914062 C 1754.207031 188.125 1752.34375 185.460938 1749.558594 184.96875" fill="#231f20" fill-rule="evenodd"/></g><g><path d="M 1799.730469 181.578125 C 1797.386719 181.160156 1795.140625 182.734375 1794.730469 185.085938 C 1794.308594 187.4375 1795.882812 189.679688 1798.226562 190.097656 C 1800.585938 190.511719 1802.832031 188.941406 1803.238281 186.589844 C 1803.660156 184.238281 1802.089844 181.992188 1799.730469 181.578125" fill="#231f20" fill-rule="evenodd"/></g><g><path d="M 1755.085938 171.347656 C 1753.671875 171.066406 1751.324219 168.34375 1747.90625 167.0625 C 1744.5 165.777344 1740.027344 165.933594 1738.140625 165.085938 C 1736.242188 164.238281 1736.921875 162.390625 1738.648438 161.074219 C 1740.359375 159.75 1743.121094 158.960938 1745.71875 159.492188 C 1748.316406 160.023438 1750.753906 161.871094 1752.683594 163.394531 C 1754.621094 164.917969 1756.054688 166.113281 1756.519531 167.789062 C 1756.992188 169.46875 1756.507812 171.628906 1755.085938 171.347656" fill="#a42e16" fill-rule="evenodd"/></g><g><path d="M 1802.296875 155.015625 C 1802.949219 155.621094 1803.269531 156.421875 1802.273438 157.3125 C 1801.289062 158.203125 1799 159.183594 1797.238281 160.777344 C 1795.492188 162.375 1794.273438 164.585938 1793.269531 165.519531 C 1792.261719 166.457031 1791.453125 166.125 1790.824219 164.949219 C 1790.179688 163.773438 1789.707031 161.761719 1790.070312 160.03125 C 1790.425781 158.304688 1791.609375 156.859375 1793.34375 155.828125 C 1795.082031 154.804688 1797.371094 154.195312 1799.007812 154.09375 C 1800.648438 153.996094 1801.632812 154.410156 1802.296875 155.015625" fill="#a42e16" fill-rule="evenodd"/></g><g><path d="M 1784.886719 189.011719 C 1784.6875 190.667969 1785.0625 197.007812 1786.792969 201.957031 C 1788.511719 206.90625 1791.585938 210.460938 1793.605469 211.726562 C 1795.621094 212.996094 1796.570312 211.980469 1795.910156 210.308594 C 1795.234375 208.636719 1792.953125 206.304688 1791.148438 203.382812 C 1789.328125 200.460938 1787.984375 196.945312 1786.914062 193.667969 C 1785.855469 190.394531 1785.085938 187.359375 1784.886719 189.011719" fill="#f79593" fill-rule="evenodd"/></g><g><path d="M 1693.78125 270.210938 C 1694.210938 272.746094 1701.574219 277.554688 1710.824219 282.46875 C 1720.066406 287.382812 1731.203125 292.402344 1743.058594 294.835938 C 1754.917969 297.269531 1767.5 297.113281 1776.453125 295.917969 C 1785.417969 294.71875 1790.761719 292.480469 1794.273438 290 C 1797.773438 287.519531 1799.4375 284.796875 1797.5625 283.792969 C 1795.675781 282.789062 1790.253906 283.5 1782.371094 284.667969 C 1774.476562 285.835938 1764.132812 287.460938 1751.050781 284.617188 C 1737.960938 281.773438 1722.140625 274.464844 1710.980469 270.941406 C 1699.828125 267.417969 1693.335938 267.679688 1693.78125 270.210938" fill="#fcd7cf" fill-rule="evenodd"/></g><g><path d="M 1658.789062 189.707031 C 1657.292969 188.898438 1658.910156 187.78125 1663.597656 187.804688 C 1668.277344 187.828125 1676.011719 188.992188 1685.476562 193.914062 C 1694.929688 198.832031 1706.113281 207.5 1723.8125 211.988281 C 1741.515625 216.476562 1765.734375 216.785156 1781.359375 214.226562 C 1796.996094 211.667969 1804.039062 206.238281 1808.113281 204.8125 C 1812.1875 203.382812 1813.304688 205.957031 1814.945312 210.460938 C 1816.574219 214.96875 1818.738281 221.40625 1819.007812 230.472656 C 1819.277344 239.539062 1817.65625 251.226562 1815.714844 261.011719 C 1813.785156 270.796875 1811.53125 278.675781 1801.640625 284.476562 C 1791.753906 290.28125 1774.230469 294.011719 1758.894531 293.324219 C 1743.558594 292.640625 1730.433594 287.542969 1712.652344 279.679688 C 1694.863281 271.820312 1672.425781 261.195312 1661.222656 255.882812 C 1650.003906 250.570312 1650.003906 250.570312 1652.460938 250.707031 C 1654.914062 250.84375 1659.828125 251.117188 1666.34375 252.5 C 1672.875 253.882812 1681 256.371094 1684.113281 250.554688 C 1687.214844 244.734375 1685.296875 230.609375 1683.121094 221.601562 C 1680.945312 212.597656 1678.523438 208.710938 1676.210938 204.546875 C 1673.902344 200.382812 1671.703125 195.941406 1668.296875 193.472656 C 1664.90625 191.007812 1660.285156 190.515625 1658.789062 189.707031" fill="#7bd2ca" fill-rule="evenodd"/></g><g><path d="M 1671.207031 223.382812 C 1672.019531 219.636719 1673.097656 214.152344 1672.101562 209.15625 C 1671.09375 204.164062 1668 199.65625 1664.167969 198.28125 C 1660.324219 196.910156 1655.726562 198.667969 1651.945312 202.191406 C 1648.164062 205.71875 1645.183594 211.015625 1645.183594 217.140625 C 1645.183594 223.265625 1648.164062 230.21875 1651.328125 235.203125 C 1654.496094 240.183594 1657.855469 243.195312 1661.894531 244.894531 C 1665.945312 246.59375 1670.671875 246.980469 1673.046875 246.046875 C 1675.410156 245.113281 1675.410156 242.859375 1674.394531 240.15625 C 1673.375 237.453125 1671.351562 234.300781 1670.601562 231.71875 C 1669.863281 229.136719 1670.394531 227.128906 1671.207031 223.382812" fill="#fdf7f3" fill-rule="evenodd"/></g><g><path d="M 1146.628906 508.910156 C 1144.378906 506.523438 1142.878906 501.867188 1143.121094 491.207031 C 1143.371094 480.546875 1145.359375 463.878906 1146.351562 457.960938 C 1147.351562 452.046875 1147.351562 456.878906 1147.351562 465.210938 C 1147.351562 473.546875 1147.351562 485.378906 1152.191406 493.679688 C 1157.019531 501.984375 1166.699219 506.757812 1171.949219 509.144531 C 1177.210938 511.527344 1178.039062 511.527344 1174.460938 511.527344 C 1170.878906 511.527344 1162.878906 511.527344 1157.378906 511.46875 C 1151.878906 511.410156 1148.878906 511.296875 1146.628906 508.910156" fill="#0a213d" fill-rule="evenodd"/></g></g></svg>