<svg id="full" xmlns="http://www.w3.org/2000/svg" xmlns:xlink="http://www.w3.org/1999/xlink" viewBox="0 0 506 244"><defs><style>.cls-1{fill:none;}.cls-2{fill:#35763d;}.cls-3{clip-path:url(#clip-path);}.cls-4{fill:#c1da70;}.cls-5{fill:#184721;}</style><clipPath id="clip-path"><path id="WI" class="cls-1" d="M205.65,114c-.62-.67-3.89,1.51-3.91,1.68a1.6,1.6,0,0,1-1,1.33c.19-3.36-2-.09-3,1.21a22.12,22.12,0,0,0-2.56,5.32c-1.5,3.65-5.37,3.1-6.07,6.77-.31,1.61-2.52,1.36-3.57,1-1.84-.57-.4-1.27-.3-2.18s-.06-6,.95-3.77c-.37-2.36,1.1-4.66,2.1-6.66,1.23-2.49,2.3-6.07,4.54-7.87,1.71-1.39,3.7-.41,5.23-1.62.15-1.44,1.43-4.07.61-5.43s-2.73-1.33-3.52-2.72c-1.57-2.73-.28-5,1.08-7.41.64-1.14,1-4-1.07-4-1.37,2-4.16,3-6,1.39.15.4,0,.59-.42.58,1.23-2.92,4.51-7.71,1.61-10.61,3,.92,1.22-3.4.18-4.48,3.43-2.11-3.41-5-5.71-5.08a1.25,1.25,0,0,0-.08-1.46,3.53,3.53,0,0,1-3.28.46c-3-1-.81-2.58.46-4.18-2.21-.75-.1-1.73-2.19-2.52-1.71-.65-3.42-1.26-5.14-1.87-.39-.14-2.83-1.33-3.21-1.09-2.35,1.52-6.89-3.06-8.1.3-2.57-.7-5.92-.72-8.11-2.22a43.1,43.1,0,0,0-7.72-4.07,132.84,132.84,0,0,0-19.12-5.89c-3.72-.93-15.64-2.17-16.64-6a16.78,16.78,0,0,0-2.2-5.62c-.06-.09-1.4-1.15-1-1.28-3.33,1.2.44-1.32-3-.3a1.32,1.32,0,0,0-.58-1.87,10.09,10.09,0,0,0-2,1.06c-1.22-2.48-3.93-2.26-6.34-3.48A11.27,11.27,0,0,1,93.26,29c-1.25-1.39-1.11-1-2.79-.49,1.66.11-.25.84-.9,1.23a29.57,29.57,0,0,0-3.49,2.13c-.28.24-.27.43-.71.42-.93,0-1-.32-1.23-1-.31-1.07,2.91-3.48,3.12-4.74a2.43,2.43,0,0,0-1.05-2.38l1.81-2c1.41-1.34,1.7-3.32,2.76-4.62.43-.53-.91-1.66-1.06-2.28-.24-1.44-4.89.62-5.5.86s-9.12,4.65-8.15,2c-6.63,2.76-13.15,5.92-20,8.06-2.67.84-6.07,1.3-8.3-.85-1.1-1.06-4.58-1.08-5.66.23A1.47,1.47,0,0,1,41.82,28c-2.57.52-2.54-.51-2.9,2.72-.39,3.52-.22,7.07-.28,10.61-.06,3.13-.07,6.34-.33,9.47-.07.91-1,4.84-.12,5.46-1.7-1.23-1.11,4-3.25,2.59C33.08,57.6,33.23,60,32.3,60.56c-.69.43,0-.16-1.63-.11-.18,0-4.52,3.13-4.41,2.61-2.27.78-3.45,3-4.4,5-.45,1-.84,2.53-1.26,3.2-1.28,2-3,2.35-3.26,5.43-.17,2.44,0,4,2.81,3.77,2.53-.24,2.56,2.75,3.77,4.27C25.81,87.12,25,88,23.7,90.49c-.52,1-.73,2.19-1.66,2.93-1.52,1.22-1,2.85-1,5,0,2.32.54,4.28-1.34,5.83-1,.81,1,4.66,1,5.85.09,3.16-1.09,5.75-1.78,8.74s4.17,4.69,5.44,7,4.7,5,7.56,4c2.67-.86,3.68,2.72,4.8,4.26,1.67,2.28,4.64,2.95,7.12,3.95,4.9,2,4.7,5.21,6.36,9.29a5.14,5.14,0,0,0,2.21,2.55,40.09,40.09,0,0,1,6,5.07c2.1,1.91,5.12,2,7.3,3.85a17,17,0,0,1,3.76,4.86c.8,1.45,1.6,2.91,2.31,4.41.94,2-.84,4.44-.59,6.8.3,3,1.23,5.8,1.52,8.76.1,1-.14,5.8.57,6.21s1.7.66,2.31,1.09c.94.67,1.92,3.32,2.9,3.62-1.62,2.16-3.87,4.47-4.5,7.18-.58,2.49.34,6.33.87,8.84.56,2.72,2.83,3.78,2.73,7.09-.09,3,3.85,4.6,6.42,5.32s5.78,1.31,7.13,3.78C91.43,227.13,93,231,93,231c8.13.19,16.26.36,24.38.43,17.3.17,34.6-.07,51.9-.24,8.68-.09,17.59.34,26.21-.26-.68-1.75-.63-5.3-.38-7.45s1.6-4,1.53-6c-.05-1.69-2.8-4.64-3.34-6.59A59.52,59.52,0,0,1,191,192.61a14.67,14.67,0,0,1,2.48-7.72c1.66-2.4.86-5.92,2.28-8.67,3-5.82-.33-11.73,1.21-17.92.51-2.07,1.32-6,3.18-7.33,3-2.06,3.5-3.14,2.78-6.82-1.33-6.82,1.33-13.61,4.24-19.65.15-.32,2.82-6,2-6.47,1.28-.62,1.65-2.27,2.64-3.19,1.52-1.41.57-2.35,1.29-4.35a38,38,0,0,1,2.41-4.71,2.54,2.54,0,0,1,1.29-1.67c1.26-1,.55-2.23.4-3.74,1.56.66.45-3.69.9-3.74a1.39,1.39,0,0,1,1.48,1,4.32,4.32,0,0,0-.61-4.23h0c-.54-.54-1.08.17-1.43.1-1.58-.33.64,2.27-1.91,1.83-.7-.13-.18,6.85-3.77,4.32-1.24,4-6.19,8.65-5.86,12.94Z"/></clipPath></defs><path id="WI-2" data-name="WI" class="cls-2" d="M205.65,114c-.62-.67-3.89,1.51-3.91,1.68a1.6,1.6,0,0,1-1,1.33c.19-3.36-2-.09-3,1.21a22.12,22.12,0,0,0-2.56,5.32c-1.5,3.65-5.37,3.1-6.07,6.77-.31,1.61-2.52,1.36-3.57,1-1.84-.57-.4-1.27-.3-2.18s-.06-6,.95-3.77c-.37-2.36,1.1-4.66,2.1-6.66,1.23-2.49,2.3-6.07,4.54-7.87,1.71-1.39,3.7-.41,5.23-1.62.15-1.44,1.43-4.07.61-5.43s-2.73-1.33-3.52-2.72c-1.57-2.73-.28-5,1.08-7.41.64-1.14,1-4-1.07-4-1.37,2-4.16,3-6,1.39.15.4,0,.59-.42.58,1.23-2.92,4.51-7.71,1.61-10.61,3,.92,1.22-3.4.18-4.48,3.43-2.11-3.41-5-5.71-5.08a1.25,1.25,0,0,0-.08-1.46,3.53,3.53,0,0,1-3.28.46c-3-1-.81-2.58.46-4.18-2.21-.75-.1-1.73-2.19-2.52-1.71-.65-3.42-1.26-5.14-1.87-.39-.14-2.83-1.33-3.21-1.09-2.35,1.52-6.89-3.06-8.1.3-2.57-.7-5.92-.72-8.11-2.22a43.1,43.1,0,0,0-7.72-4.07,132.84,132.84,0,0,0-19.12-5.89c-3.72-.93-15.64-2.17-16.64-6a16.78,16.78,0,0,0-2.2-5.62c-.06-.09-1.4-1.15-1-1.28-3.33,1.2.44-1.32-3-.3a1.32,1.32,0,0,0-.58-1.87,10.09,10.09,0,0,0-2,1.06c-1.22-2.48-3.93-2.26-6.34-3.48A11.27,11.27,0,0,1,93.26,29c-1.25-1.39-1.11-1-2.79-.49,1.66.11-.25.84-.9,1.23a29.57,29.57,0,0,0-3.49,2.13c-.28.24-.27.43-.71.42-.93,0-1-.32-1.23-1-.31-1.07,2.91-3.48,3.12-4.74a2.43,2.43,0,0,0-1.05-2.38l1.81-2c1.41-1.34,1.7-3.32,2.76-4.62.43-.53-.91-1.66-1.06-2.28-.24-1.44-4.89.62-5.5.86s-9.12,4.65-8.15,2c-6.63,2.76-13.15,5.92-20,8.06-2.67.84-6.07,1.3-8.3-.85-1.1-1.06-4.58-1.08-5.66.23A1.47,1.47,0,0,1,41.82,28c-2.57.52-2.54-.51-2.9,2.72-.39,3.52-.22,7.07-.28,10.61-.06,3.13-.07,6.34-.33,9.47-.07.91-1,4.84-.12,5.46-1.7-1.23-1.11,4-3.25,2.59C33.08,57.6,33.23,60,32.3,60.56c-.69.43,0-.16-1.63-.11-.18,0-4.52,3.13-4.41,2.61-2.27.78-3.45,3-4.4,5-.45,1-.84,2.53-1.26,3.2-1.28,2-3,2.35-3.26,5.43-.17,2.44,0,4,2.81,3.77,2.53-.24,2.56,2.75,3.77,4.27C25.81,87.12,25,88,23.7,90.49c-.52,1-.73,2.19-1.66,2.93-1.52,1.22-1,2.85-1,5,0,2.32.54,4.28-1.34,5.83-1,.81,1,4.66,1,5.85.09,3.16-1.09,5.75-1.78,8.74s4.17,4.69,5.44,7,4.7,5,7.56,4c2.67-.86,3.68,2.72,4.8,4.26,1.67,2.28,4.64,2.95,7.12,3.95,4.9,2,4.7,5.21,6.36,9.29a5.14,5.14,0,0,0,2.21,2.55,40.09,40.09,0,0,1,6,5.07c2.1,1.91,5.12,2,7.3,3.85a17,17,0,0,1,3.76,4.86c.8,1.45,1.6,2.91,2.31,4.41.94,2-.84,4.44-.59,6.8.3,3,1.23,5.8,1.52,8.76.1,1-.14,5.8.57,6.21s1.7.66,2.31,1.09c.94.67,1.92,3.32,2.9,3.62-1.62,2.16-3.87,4.47-4.5,7.18-.58,2.49.34,6.33.87,8.84.56,2.72,2.83,3.78,2.73,7.09-.09,3,3.85,4.6,6.42,5.32s5.78,1.31,7.13,3.78C91.43,227.13,93,231,93,231c8.13.19,16.26.36,24.38.43,17.3.17,34.6-.07,51.9-.24,8.68-.09,17.59.34,26.21-.26-.68-1.75-.63-5.3-.38-7.45s1.6-4,1.53-6c-.05-1.69-2.8-4.64-3.34-6.59A59.52,59.52,0,0,1,191,192.61a14.67,14.67,0,0,1,2.48-7.72c1.66-2.4.86-5.92,2.28-8.67,3-5.82-.33-11.73,1.21-17.92.51-2.07,1.32-6,3.18-7.33,3-2.06,3.5-3.14,2.78-6.82-1.33-6.82,1.33-13.61,4.24-19.65.15-.32,2.82-6,2-6.47,1.28-.62,1.65-2.27,2.64-3.19,1.52-1.41.57-2.35,1.29-4.35a38,38,0,0,1,2.41-4.71,2.54,2.54,0,0,1,1.29-1.67c1.26-1,.55-2.23.4-3.74,1.56.66.45-3.69.9-3.74a1.39,1.39,0,0,1,1.48,1,4.32,4.32,0,0,0-.61-4.23h0c-.54-.54-1.08.17-1.43.1-1.58-.33.64,2.27-1.91,1.83-.7-.13-.18,6.85-3.77,4.32-1.24,4-6.19,8.65-5.86,12.94Z"/><g id="circle"><g id="w_clip"><g class="cls-3"><circle class="cls-4" cx="113.62" cy="183.86" r="64.77"/></g></g><path class="cls-5" d="M131.51,202.66l3.92-3.76a1.31,1.31,0,0,1,2,0c.23.31,4.76,4.14,9.44,4.14,4.14,0,8.13-3,8.13-7.21,0-4-3.69-7.59-10.59-7.59h-4.29a1.43,1.43,0,0,1-1.46-1.54v-4.83a1.35,1.35,0,0,1,1.46-1.53h4.29c6.29,0,9.51-3.15,9.51-7.06a7.17,7.17,0,0,0-7.44-7.06,9.92,9.92,0,0,0-7.74,3.68,1.39,1.39,0,0,1-2.08.08l-3.75-3.53a1.36,1.36,0,0,1,0-2s5.83-6.75,14.42-6.75c8.89,0,16.33,5.44,16.33,14,0,5.9-4.44,10.35-7.9,12v.23c3.61,1.54,9.29,5.68,9.29,12.51,0,8.66-7.06,15-17.65,15-9.59,0-14.26-4.83-15.95-6.82A1.51,1.51,0,0,1,131.51,202.66Z"/><path class="cls-5" d="M101.87,150.56c10.44,0,18,3.32,25,9.62a1.93,1.93,0,0,1,.1,2.9l-6.31,6.52a1.67,1.67,0,0,1-2.59,0,24.44,24.44,0,0,0-15.93-6.11c-13.24,0-23.06,11.07-23.06,24.11s9.93,23.89,23.17,23.89a24.78,24.78,0,0,0,15.82-5.9,1.92,1.92,0,0,1,2.59,0l6.41,6.62a2,2,0,0,1-.1,2.8,35.52,35.52,0,0,1-25.13,10,37.24,37.24,0,1,1,0-74.48Z"/></g><g id="text"><path class="cls-5" d="M266,91.14a15.12,15.12,0,0,1,10.89,4.19.84.84,0,0,1,0,1.26l-3.51,3.64a.77.77,0,0,1-1.12,0,9.23,9.23,0,0,0-6.08-2.29,9.21,9.21,0,0,0,.05,18.4,9.5,9.5,0,0,0,6-2.16.88.88,0,0,1,1.17,0L277,118a.89.89,0,0,1-.05,1.21A15.45,15.45,0,0,1,266,123.54a16.2,16.2,0,1,1,0-32.4Z"/><path class="cls-5" d="M291.1,100.37a11.52,11.52,0,1,1-11.49,11.55A11.5,11.5,0,0,1,291.1,100.37Zm0,17.92a6.4,6.4,0,1,0-6.37-6.37A6.41,6.41,0,0,0,291.1,118.29Z"/><path class="cls-5" d="M308.7,100.88a.62.62,0,0,1,.57-.51h.52a.71.71,0,0,1,.54.32l7.42,13.82h.07l7.42-13.82a.73.73,0,0,1,.55-.32h.51a.62.62,0,0,1,.57.51l3.62,21.51a.59.59,0,0,1-.61.7h-3.77a.65.65,0,0,1-.61-.51l-1.44-9.89H324l-5.37,10.37a.77.77,0,0,1-.55.35h-.57a.72.72,0,0,1-.55-.35l-5.4-10.37h-.07l-1.4,9.89a.64.64,0,0,1-.61.51h-3.78a.59.59,0,0,1-.61-.7Z"/><path class="cls-5" d="M336.79,100.88a.63.63,0,0,1,.58-.51h.51a.73.73,0,0,1,.55.32l7.42,13.82h.06l7.43-13.82a.7.7,0,0,1,.54-.32h.51a.62.62,0,0,1,.58.51l3.61,21.51a.58.58,0,0,1-.6.7H354.2a.65.65,0,0,1-.61-.51l-1.44-9.89h-.06l-5.38,10.37a.73.73,0,0,1-.54.35h-.58a.7.7,0,0,1-.54-.35l-5.41-10.37h-.06l-1.41,9.89a.63.63,0,0,1-.61.51h-3.77a.59.59,0,0,1-.61-.7Z"/><path class="cls-5" d="M362.36,101.3a.63.63,0,0,1,.61-.61h3.94a.6.6,0,0,1,.6.61v13a4,4,0,1,0,7.94,0v-13a.61.61,0,0,1,.61-.61H380a.63.63,0,0,1,.61.61v13.21a9.12,9.12,0,0,1-18.24,0Z"/><path class="cls-5" d="M385.72,101a.61.61,0,0,1,.61-.58h.8l12.77,12.29h0V101.3a.61.61,0,0,1,.61-.61h3.84a.62.62,0,0,1,.6.61v21.53a.6.6,0,0,1-.6.58h-.52a1,1,0,0,1-.41-.16l-12.64-12.7h0v11.93a.61.61,0,0,1-.61.61h-3.81a.63.63,0,0,1-.61-.61Z"/><path class="cls-5" d="M410.49,101.3a.63.63,0,0,1,.61-.61h3.84a.63.63,0,0,1,.61.61v21.18a.63.63,0,0,1-.61.61H411.1a.63.63,0,0,1-.61-.61Z"/><path class="cls-5" d="M423.93,105.4h-4.58a.6.6,0,0,1-.6-.61V101.3a.6.6,0,0,1,.6-.61h14.21a.61.61,0,0,1,.61.61v3.49a.61.61,0,0,1-.61.61H429v17.08a.63.63,0,0,1-.61.61h-3.84a.63.63,0,0,1-.61-.61Z"/><path class="cls-5" d="M437.37,101.3a.63.63,0,0,1,.61-.61h3.84a.62.62,0,0,1,.6.61v21.18a.62.62,0,0,1-.6.61H438a.63.63,0,0,1-.61-.61Z"/><path class="cls-5" d="M447.93,101.3a.61.61,0,0,1,.61-.61h13.24a.61.61,0,0,1,.61.61v3.49a.61.61,0,0,1-.61.61h-8.86v4h7.3a.62.62,0,0,1,.6.61v3.49a.6.6,0,0,1-.6.61h-7.3v4.32h8.86a.6.6,0,0,1,.61.6v3.49a.61.61,0,0,1-.61.61H448.54a.61.61,0,0,1-.61-.61Z"/><path class="cls-5" d="M465.4,120.05l1.5-2.66a.83.83,0,0,1,1.09-.19c.13.07,2.43,1.76,4.55,1.76a2,2,0,0,0,2.2-1.92c0-1.34-1.12-2.37-3.29-3.23-2.75-1.09-6.21-3.23-6.21-7.07,0-3.17,2.46-6.37,7.39-6.37a11.93,11.93,0,0,1,6.85,2.4.82.82,0,0,1,.19,1L478,106.26c-.22.35-.8.64-1.09.41s-2.62-1.91-4.57-1.91a1.85,1.85,0,0,0-2,1.63c0,1.18,1,2.08,3.49,3.1s6.46,2.94,6.46,7.3c0,3.29-2.85,6.62-7.55,6.62-4.16,0-6.46-1.73-7.2-2.46C465.24,120.63,465.14,120.5,465.4,120.05Z"/><path class="cls-5" d="M266,137.14a15.12,15.12,0,0,1,10.89,4.19.84.84,0,0,1,0,1.26l-3.51,3.64a.77.77,0,0,1-1.12,0,9.23,9.23,0,0,0-6.08-2.29,9.21,9.21,0,0,0,.05,18.4,9.5,9.5,0,0,0,6-2.16.88.88,0,0,1,1.17,0L277,164a.89.89,0,0,1-.05,1.21A15.45,15.45,0,0,1,266,169.54a16.2,16.2,0,1,1,0-32.4Z"/><path class="cls-5" d="M291.1,146.37a11.52,11.52,0,1,1-11.49,11.55A11.5,11.5,0,0,1,291.1,146.37Zm0,17.92a6.4,6.4,0,1,0-6.37-6.37A6.41,6.41,0,0,0,291.1,164.29Z"/><path class="cls-5" d="M306.46,147a.61.61,0,0,1,.61-.58h.8l12.76,12.29h0V147.3a.6.6,0,0,1,.6-.61h3.84a.63.63,0,0,1,.61.61v21.53a.61.61,0,0,1-.61.58h-.51a1,1,0,0,1-.41-.16l-12.64-12.7h0v11.93a.6.6,0,0,1-.6.61H307.1a.63.63,0,0,1-.61-.61Z"/><path class="cls-5" d="M331.23,147.3a.6.6,0,0,1,.6-.61h13.25a.61.61,0,0,1,.61.61v3.49a.61.61,0,0,1-.61.61h-8.86V156h7.29a.63.63,0,0,1,.61.61v3.49a.63.63,0,0,1-.61.61h-7.29v7.77a.63.63,0,0,1-.61.61h-3.78a.6.6,0,0,1-.6-.61Z"/><path class="cls-5" d="M349.24,147.3a.61.61,0,0,1,.61-.61h9.57A6.84,6.84,0,0,1,361.66,160l4.38,8.13a.61.61,0,0,1-.54.93h-4.26a.59.59,0,0,1-.51-.29l-4.26-8.48h-2.2v8.16a.63.63,0,0,1-.61.61h-3.81a.61.61,0,0,1-.61-.61Zm9.76,9a2.57,2.57,0,0,0,2.43-2.56,2.45,2.45,0,0,0-2.43-2.43h-4.73v5Z"/><path class="cls-5" d="M380.54,146.37a11.52,11.52,0,1,1-11.49,11.55A11.5,11.5,0,0,1,380.54,146.37Zm0,17.92a6.4,6.4,0,1,0-6.37-6.37A6.41,6.41,0,0,0,380.54,164.29Z"/><path class="cls-5" d="M395.9,147a.61.61,0,0,1,.61-.58h.8l12.76,12.29h0V147.3a.61.61,0,0,1,.61-.61h3.84a.63.63,0,0,1,.61.61v21.53a.61.61,0,0,1-.61.58H414a1,1,0,0,1-.42-.16L401,156.55h0v11.93a.61.61,0,0,1-.61.61h-3.8a.63.63,0,0,1-.61-.61Z"/><path class="cls-5" d="M423.55,151.4H419a.61.61,0,0,1-.61-.61V147.3a.61.61,0,0,1,.61-.61h14.21a.61.61,0,0,1,.61.61v3.49a.61.61,0,0,1-.61.61H428.6v17.08a.63.63,0,0,1-.61.61h-3.84a.62.62,0,0,1-.6-.61Z"/><path class="cls-5" d="M437,147.3a.62.62,0,0,1,.6-.61h3.84a.63.63,0,0,1,.61.61v21.18a.63.63,0,0,1-.61.61h-3.84a.62.62,0,0,1-.6-.61Z"/><path class="cls-5" d="M447.51,147a.61.61,0,0,1,.61-.58h.8l12.77,12.29h0V147.3a.61.61,0,0,1,.61-.61h3.84a.63.63,0,0,1,.61.61v21.53a.61.61,0,0,1-.61.58h-.51a1,1,0,0,1-.42-.16l-12.64-12.7h0v11.93a.61.61,0,0,1-.61.61h-3.81a.63.63,0,0,1-.61-.61Z"/><path class="cls-5" d="M482.17,146.4a12.36,12.36,0,0,1,7.81,3,.57.57,0,0,1,.06.87L487.51,153a.67.67,0,0,1-.86,0,5.9,5.9,0,0,0-4.19-1.54,6.42,6.42,0,0,0,0,12.83,7.64,7.64,0,0,0,2.85-.51v-1.86h-2a.58.58,0,0,1-.61-.57v-3.17a.59.59,0,0,1,.61-.61h6.43a.61.61,0,0,1,.58.61l0,8.61a.79.79,0,0,1-.26.51,16.13,16.13,0,0,1-7.93,2.08,11.49,11.49,0,1,1,0-23Z"/><path class="cls-5" d="M266,187.14a15.12,15.12,0,0,1,10.89,4.19.84.84,0,0,1,0,1.26l-3.51,3.64a.77.77,0,0,1-1.12,0,9.23,9.23,0,0,0-6.08-2.29,9.21,9.21,0,0,0,.05,18.4,9.5,9.5,0,0,0,6-2.16.88.88,0,0,1,1.17,0L277,214a.89.89,0,0,1-.05,1.21A15.45,15.45,0,0,1,266,219.54a16.2,16.2,0,1,1,0-32.4Z"/><path class="cls-5" d="M296.09,187.14a16.2,16.2,0,1,1-16.16,16.25A16.18,16.18,0,0,1,296.09,187.14Zm0,25.2a9,9,0,1,0-9-9A9,9,0,0,0,296.09,212.34Z"/><path class="cls-5" d="M313.41,188.76a.8.8,0,0,1,.77-1.17h6a.89.89,0,0,1,.77.5l7.42,16.42h.27l7.43-16.42a.87.87,0,0,1,.76-.5h6a.79.79,0,0,1,.76,1.17L329.43,219a.85.85,0,0,1-.76.5h-.45a.88.88,0,0,1-.77-.5Z"/><path class="cls-5" d="M347.25,188.45a.89.89,0,0,1,.86-.86h5.4a.89.89,0,0,1,.85.86v29.79a.88.88,0,0,1-.85.85h-5.4a.89.89,0,0,1-.86-.85Z"/><path class="cls-5" d="M362.1,188.45a.85.85,0,0,1,.81-.86h11a15.75,15.75,0,1,1,0,31.5h-11a.85.85,0,0,1-.81-.85Zm11.34,24c5.08,0,8.77-4,8.77-9.13a8.74,8.74,0,0,0-8.77-9.09h-4.32v18.22Z"/><path class="cls-5" d="M393.06,210.27v-4.09a.83.83,0,0,1,.86-.86h10.3a.83.83,0,0,1,.85.86v4.09a.82.82,0,0,1-.85.81h-10.3A.82.82,0,0,1,393.06,210.27Z"/><path class="cls-5" d="M411.69,198h-4.32a.85.85,0,0,1-.81-.86V194.3a1.34,1.34,0,0,1,.27-.68l6.57-5.13h4.14a.85.85,0,0,1,.81.86v28.89a.85.85,0,0,1-.81.85h-5a.86.86,0,0,1-.85-.85Z"/><path class="cls-5" d="M427.8,214.32c2.11-.67,8.1-2.74,9-7.38a12.85,12.85,0,0,1-4.27.9c-4.23,0-9-3.1-9-9.76a10.37,10.37,0,0,1,10.31-10.31c7,0,10.84,5.22,10.84,12.24,0,13.23-11,18.58-15.12,19.8a1.06,1.06,0,0,1-1.39-.72l-1.31-3.47C426.76,215.08,426.9,214.59,427.8,214.32Zm10.53-16a4.32,4.32,0,1,0-4.32,4.37A4.35,4.35,0,0,0,438.33,198.3Z"/></g></svg>